  0
SECTION
  2
HEADER
  9
$ACADVER
  1
AC1015
  9
$ACADMAINTVER
 70
     6
  9
$DWGCODEPAGE
  3
ANSI_936
  9
$INSBASE
 10
0.0
 20
0.0
 30
0.0
  9
$EXTMIN
 10
0.0
 20
-14.8720139527
 30
0.0
  9
$EXTMAX
 10
220.0
 20
200.0
 30
0.0
  9
$LIMMIN
 10
0.0
 20
0.0
  9
$LIMMAX
 10
420.0
 20
297.0
  9
$ORTHOMODE
 70
     0
  9
$REGENMODE
 70
     1
  9
$FILLMODE
 70
     1
  9
$QTEXTMODE
 70
     0
  9
$MIRRTEXT
 70
     1
  9
$LTSCALE
 40
1.0
  9
$ATTMODE
 70
     1
  9
$TEXTSIZE
 40
3.5
  9
$TRACEWID
 40
1.0
  9
$TEXTSTYLE
  7
Standard
  9
$CLAYER
  8
0
  9
$CELTYPE
  6
ByLayer
  9
$CECOLOR
 62
   256
  9
$CELTSCALE
 40
1.0
  9
$DISPSILH
 70
     0
  9
$DIMSCALE
 40
1.0
  9
$DIMASZ
 40
3.556
  9
$DIMEXO
 40
1.0
  9
$DIMDLI
 40
3.75
  9
$DIMRND
 40
0.0
  9
$DIMDLE
 40
0.0
  9
$DIMEXE
 40
1.0
  9
$DIMTP
 40
0.0
  9
$DIMTM
 40
0.0
  9
$DIMTXT
 40
3.5
  9
$DIMCEN
 40
2.5
  9
$DIMTSZ
 40
0.0
  9
$DIMTOL
 70
     0
  9
$DIMLIM
 70
     0
  9
$DIMTIH
 70
     1
  9
$DIMTOH
 70
     1
  9
$DIMSE1
 70
     0
  9
$DIMSE2
 70
     0
  9
$DIMTAD
 70
     1
  9
$DIMZIN
 70
     1
  9
$DIMBLK
  1

  9
$DIMASO
 70
     1
  9
$DIMSHO
 70
     1
  9
$DIMPOST
  1

  9
$DIMAPOST
  1

  9
$DIMALT
 70
     0
  9
$DIMALTD
 70
     3
  9
$DIMALTF
 40
0.0393700787
  9
$DIMLFAC
 40
1.0
  9
$DIMTOFL
 70
     1
  9
$DIMTVP
 40
0.0
  9
$DIMTIX
 70
     0
  9
$DIMSOXD
 70
     0
  9
$DIMSAH
 70
     0
  9
$DIMBLK1
  1

  9
$DIMBLK2
  1

  9
$DIMSTYLE
  2
ISO-25
  9
$DIMCLRD
 70
     0
  9
$DIMCLRE
 70
     0
  9
$DIMCLRT
 70
     0
  9
$DIMTFAC
 40
1.0
  9
$DIMGAP
 40
1.524
  9
$DIMJUST
 70
     0
  9
$DIMSD1
 70
     0
  9
$DIMSD2
 70
     0
  9
$DIMTOLJ
 70
     0
  9
$DIMTZIN
 70
     1
  9
$DIMALTZ
 70
     0
  9
$DIMALTTZ
 70
     0
  9
$DIMUPT
 70
     0
  9
$DIMDEC
 70
     2
  9
$DIMTDEC
 70
     2
  9
$DIMALTU
 70
     2
  9
$DIMALTTD
 70
     3
  9
$DIMTXSTY
  7
Standard
  9
$DIMAUNIT
 70
     0
  9
$DIMADEC
 70
     2
  9
$DIMALTRND
 40
0.0
  9
$DIMAZIN
 70
     0
  9
$DIMDSEP
 70
    44
  9
$DIMATFIT
 70
     3
  9
$DIMFRAC
 70
     0
  9
$DIMLDRBLK
  1

  9
$DIMLUNIT
 70
     2
  9
$DIMLWD
 70
    -2
  9
$DIMLWE
 70
    -2
  9
$DIMTMOVE
 70
     0
  9
$LUNITS
 70
     2
  9
$LUPREC
 70
     2
  9
$SKETCHINC
 40
1.0
  9
$FILLETRAD
 40
10.0
  9
$AUNITS
 70
     0
  9
$AUPREC
 70
     2
  9
$MENU
  1
.
  9
$ELEVATION
 40
0.0
  9
$PELEVATION
 40
0.0
  9
$THICKNESS
 40
0.0
  9
$LIMCHECK
 70
     0
  9
$CHAMFERA
 40
0.0
  9
$CHAMFERB
 40
0.0
  9
$CHAMFERC
 40
0.0
  9
$CHAMFERD
 40
0.0
  9
$SKPOLY
 70
     0
  9
$TDCREATE
 40
2459528.968294722
  9
$TDUCREATE
 40
2459528.968294722
  9
$TDUPDATE
 40
2459528.968356967
  9
$TDUUPDATE
 40
2459528.968356967
  9
$TDINDWG
 40
0.0000000116
  9
$TDUSRTIMER
 40
0.0000000116
  9
$USRTIMER
 70
     1
  9
$ANGBASE
 50
0.0
  9
$ANGDIR
 70
     0
  9
$PDMODE
 70
     0
  9
$PDSIZE
 40
-1.0
  9
$PLINEWID
 40
0.0
  9
$SPLFRAME
 70
     0
  9
$SPLINETYPE
 70
     6
  9
$SPLINESEGS
 70
     8
  9
$HANDSEED
  5
F2
  9
$SURFTAB1
 70
     6
  9
$SURFTAB2
 70
     6
  9
$SURFTYPE
 70
     6
  9
$SURFU
 70
     6
  9
$SURFV
 70
     6
  9
$UCSBASE
  2

  9
$UCSNAME
  2

  9
$UCSORG
 10
0.0
 20
0.0
 30
0.0
  9
$UCSXDIR
 10
1.0
 20
0.0
 30
0.0
  9
$UCSYDIR
 10
0.0
 20
1.0
 30
0.0
  9
$UCSORTHOREF
  2

  9
$UCSORTHOVIEW
 70
     0
  9
$UCSORGTOP
 10
0.0
 20
0.0
 30
0.0
  9
$UCSORGBOTTOM
 10
0.0
 20
0.0
 30
0.0
  9
$UCSORGLEFT
 10
0.0
 20
0.0
 30
0.0
  9
$UCSORGRIGHT
 10
0.0
 20
0.0
 30
0.0
  9
$UCSORGFRONT
 10
0.0
 20
0.0
 30
0.0
  9
$UCSORGBACK
 10
0.0
 20
0.0
 30
0.0
  9
$PUCSBASE
  2

  9
$PUCSNAME
  2

  9
$PUCSORG
 10
0.0
 20
0.0
 30
0.0
  9
$PUCSXDIR
 10
1.0
 20
0.0
 30
0.0
  9
$PUCSYDIR
 10
0.0
 20
1.0
 30
0.0
  9
$PUCSORTHOREF
  2

  9
$PUCSORTHOVIEW
 70
     0
  9
$PUCSORGTOP
 10
0.0
 20
0.0
 30
0.0
  9
$PUCSORGBOTTOM
 10
0.0
 20
0.0
 30
0.0
  9
$PUCSORGLEFT
 10
0.0
 20
0.0
 30
0.0
  9
$PUCSORGRIGHT
 10
0.0
 20
0.0
 30
0.0
  9
$PUCSORGFRONT
 10
0.0
 20
0.0
 30
0.0
  9
$PUCSORGBACK
 10
0.0
 20
0.0
 30
0.0
  9
$USERI1
 70
     0
  9
$USERI2
 70
     0
  9
$USERI3
 70
     0
  9
$USERI4
 70
     0
  9
$USERI5
 70
     0
  9
$USERR1
 40
0.0
  9
$USERR2
 40
0.0
  9
$USERR3
 40
0.0
  9
$USERR4
 40
0.0
  9
$USERR5
 40
0.0
  9
$WORLDVIEW
 70
     1
  9
$SHADEDGE
 70
     3
  9
$SHADEDIF
 70
    70
  9
$TILEMODE
 70
     1
  9
$MAXACTVP
 70
    64
  9
$PINSBASE
 10
0.0
 20
0.0
 30
0.0
  9
$PLIMCHECK
 70
     0
  9
$PEXTMIN
 10
1.0000000000E+20
 20
1.0000000000E+20
 30
1.0000000000E+20
  9
$PEXTMAX
 10
-1.0000000000E+20
 20
-1.0000000000E+20
 30
-1.0000000000E+20
  9
$PLIMMIN
 10
0.0
 20
0.0
  9
$PLIMMAX
 10
420.0
 20
297.0
  9
$UNITMODE
 70
     0
  9
$VISRETAIN
 70
     1
  9
$PLINEGEN
 70
     0
  9
$PSLTSCALE
 70
     1
  9
$TREEDEPTH
 70
  3020
  9
$CMLSTYLE
  2
Standard
  9
$CMLJUST
 70
     0
  9
$CMLSCALE
 40
20.0
  9
$PROXYGRAPHICS
 70
     1
  9
$MEASUREMENT
 70
     1
  9
$CELWEIGHT
370
    -1
  9
$ENDCAPS
280
     0
  9
$JOINSTYLE
280
     0
  9
$LWDISPLAY
290
     1
  9
$INSUNITS
 70
     4
  9
$HYPERLINKBASE
  1

  9
$STYLESHEET
  1

  9
$XEDIT
290
     1
  9
$CEPSNTYPE
380
     0
  9
$PSTYLEMODE
290
     1
  9
$FINGERPRINTGUID
  2
{239BA4D2-A53A-46D1-90C7-D2BD1F779D51}
  9
$VERSIONGUID
  2
{FAEB1C32-E019-11D5-929B-00C0DF256EC4}
  9
$EXTNAMES
290
     1
  9
$PSVPSCALE
 40
0.0
  9
$OLESTARTUP
290
     0
  0
ENDSEC
  0
SECTION
  2
CLASSES
  0
CLASS
  1
ACDBDICTIONARYWDFLT
  2
AcDbDictionaryWithDefault
  3
ObjectDBX Classes
 90
        0
280
     0
281
     0
  0
CLASS
  1
VISUALSTYLE
  2
AcDbVisualStyle
  3
ObjectDBX Classes
 90
     4095
280
     0
281
     0
  0
CLASS
  1
MATERIAL
  2
AcDbMaterial
  3
ObjectDBX Classes
 90
     1153
280
     0
281
     0
  0
CLASS
  1
SCALE
  2
AcDbScale
  3
ObjectDBX Classes
 90
     1153
280
     0
281
     0
  0
CLASS
  1
TABLESTYLE
  2
AcDbTableStyle
  3
ObjectDBX Classes
 90
     4095
280
     0
281
     0
  0
CLASS
  1
MLEADERSTYLE
  2
AcDbMLeaderStyle
  3
ACDB_MLEADERSTYLE_CLASS
 90
     4095
280
     0
281
     0
  0
CLASS
  1
SUN
  2
AcDbSun
  3
SCENEOE
 90
     1153
280
     0
281
     0
  0
CLASS
  1
ACDBPLACEHOLDER
  2
AcDbPlaceHolder
  3
ObjectDBX Classes
 90
        0
280
     0
281
     0
  0
CLASS
  1
LAYOUT
  2
AcDbLayout
  3
ObjectDBX Classes
 90
        0
280
     0
281
     0
  0
ENDSEC
  0
SECTION
  2
TABLES
  0
TABLE
  2
VPORT
  5
8
330
0
100
AcDbSymbolTable
 70
     1
  0
VPORT
  5
29
330
8
100
AcDbSymbolTableRecord
100
AcDbViewportTableRecord
  2
*Active
 70
     0
 10
0.0
 20
0.0
 11
1.0
 21
1.0
 12
110.0
 22
92.5639930237
 13
0.0
 23
0.0
 14
10.0
 24
10.0
 15
10.0
 25
10.0
 16
0.0
 26
0.0
 36
1.0
 17
0.0
 27
0.0
 37
0.0
 40
219.1694542317
 41
1.0238653045
 42
50.0
 43
0.0
 44
0.0
 50
0.0
 51
0.0
 71
     0
 72
   100
 73
     1
 74
     3
 75
     0
 76
     0
 77
     0
 78
     0
281
     0
 65
     1
110
0.0
120
0.0
130
0.0
111
1.0
121
0.0
131
0.0
112
0.0
122
1.0
132
0.0
 79
     0
146
0.0
  0
ENDTAB
  0
TABLE
  2
LTYPE
  5
5
330
0
100
AcDbSymbolTable
 70
     6
  0
LTYPE
  5
14
330
5
100
AcDbSymbolTableRecord
100
AcDbLinetypeTableRecord
  2
ByBlock
 70
     0
  3

 72
    65
 73
     0
 40
0.0
  0
LTYPE
  5
15
330
5
100
AcDbSymbolTableRecord
100
AcDbLinetypeTableRecord
  2
ByLayer
 70
     0
  3

 72
    65
 73
     0
 40
0.0
  0
LTYPE
  5
16
330
5
100
AcDbSymbolTableRecord
100
AcDbLinetypeTableRecord
  2
Continuous
 70
     0
  3
Solid line
 72
    65
 73
     0
 40
0.0
  0
LTYPE
  5
6E
330
5
100
AcDbSymbolTableRecord
100
AcDbLinetypeTableRecord
  2
HIDDEN
 70
     0
  3
Hidden __ __ __ __ __ __ __ __ __ __ __ __ __ __
 72
    65
 73
     2
 40
1.905
 49
1.27
 74
     0
 49
-0.635
 74
     0
  0
LTYPE
  5
6F
330
5
100
AcDbSymbolTableRecord
100
AcDbLinetypeTableRecord
  2
PHANTOM
 70
     0
  3
Phantom ______  __  __  ______  __  __  ______
 72
    65
 73
     6
 40
12.7
 49
6.35
 74
     0
 49
-1.27
 74
     0
 49
1.27
 74
     0
 49
-1.27
 74
     0
 49
1.27
 74
     0
 49
-1.27
 74
     0
  0
LTYPE
  5
70
330
5
100
AcDbSymbolTableRecord
100
AcDbLinetypeTableRecord
  2
CENTER
 70
     0
  3
Center ____ _ ____ _ ____ _ ____ _ ____ _ ____
 72
    65
 73
     4
 40
10.16
 49
6.35
 74
     0
 49
-1.27
 74
     0
 49
1.27
 74
     0
 49
-1.27
 74
     0
  0
LTYPE
  5
71
330
5
100
AcDbSymbolTableRecord
100
AcDbLinetypeTableRecord
  2
CENTERX2
 70
     0
  3
Center (2x) ________  __  ________  __  _____
 72
    65
 73
     4
 40
20.32
 49
12.7
 74
     0
 49
-2.54
 74
     0
 49
2.54
 74
     0
 49
-2.54
 74
     0
  0
LTYPE
  5
72
330
5
100
AcDbSymbolTableRecord
100
AcDbLinetypeTableRecord
  2
DOT2
 70
     0
  3
Dot (.5x) ........................................
 72
    65
 73
     2
 40
0.635
 49
0.0
 74
     0
 49
-0.635
 74
     0
  0
ENDTAB
  0
TABLE
  2
LAYER
  5
2
330
0
100
AcDbSymbolTable
 70
     1
  0
LAYER
  5
10
330
2
100
AcDbSymbolTableRecord
100
AcDbLayerTableRecord
  2
0
 70
     0
 62
     7
  6
Continuous
370
    -3
390
F
  0
ENDTAB
  0
TABLE
  2
STYLE
  5
3
330
0
100
AcDbSymbolTable
 70
     2
  0
STYLE
  5
11
330
3
100
AcDbSymbolTableRecord
100
AcDbTextStyleTableRecord
  2
Standard
 70
     0
 40
0.0
 41
1.0
 50
0.0
 71
     0
 42
3.5
  3
txt
  4

  0
STYLE
  5
EF
330
3
100
AcDbSymbolTableRecord
100
AcDbTextStyleTableRecord
  2
SLDTEXTSTYLE0
 70
     0
 40
0.0
 41
0.7
 50
0.0
 71
     0
 42
3.5
  3
TXT
  4

  0
ENDTAB
  0
TABLE
  2
VIEW
  5
6
330
0
100
AcDbSymbolTable
 70
     0
  0
ENDTAB
  0
TABLE
  2
UCS
  5
7
330
0
100
AcDbSymbolTable
 70
     0
  0
ENDTAB
  0
TABLE
  2
APPID
  5
9
330
0
100
AcDbSymbolTable
 70
     1
  0
APPID
  5
12
330
9
100
AcDbSymbolTableRecord
100
AcDbRegAppTableRecord
  2
ACAD
 70
     0
  0
ENDTAB
  0
TABLE
  2
DIMSTYLE
  5
A
330
0
100
AcDbSymbolTable
 70
     1
100
AcDbDimStyleTable
  0
DIMSTYLE
105
27
330
A
100
AcDbSymbolTableRecord
100
AcDbDimStyleTableRecord
  2
ISO-25
 70
     0
 41
2.5
 42
0.625
 43
3.75
 44
1.25
 73
     0
 74
     0
 77
     1
 78
     8
140
2.5
141
2.5
143
0.0393700787
147
0.625
171
     3
172
     1
178
     0
271
     2
272
     2
274
     3
278
    44
283
     0
284
     8
340
11
  0
ENDTAB
  0
TABLE
  2
BLOCK_RECORD
  5
1
330
0
100
AcDbSymbolTable
 70
     1
  0
BLOCK_RECORD
  5
1F
330
1
100
AcDbSymbolTableRecord
100
AcDbBlockTableRecord
  2
*Model_Space
340
22
  0
BLOCK_RECORD
  5
1B
330
1
100
AcDbSymbolTableRecord
100
AcDbBlockTableRecord
  2
*Paper_Space
340
1E
  0
BLOCK_RECORD
  5
23
330
1
100
AcDbSymbolTableRecord
100
AcDbBlockTableRecord
  2
*Paper_Space0
340
26
  0
ENDTAB
  0
ENDSEC
  0
SECTION
  2
BLOCKS
  0
BLOCK
  5
20
330
1F
100
AcDbEntity
  8
0
100
AcDbBlockBegin
  2
*Model_Space
 70
     0
 10
0.0
 20
0.0
 30
0.0
  3
*Model_Space
  1

  0
ENDBLK
  5
21
330
1F
100
AcDbEntity
  8
0
100
AcDbBlockEnd
  0
BLOCK
  5
1C
330
1B
100
AcDbEntity
 67
     1
  8
0
100
AcDbBlockBegin
  2
*Paper_Space
 70
     0
 10
0.0
 20
0.0
 30
0.0
  3
*Paper_Space
  1

  0
ENDBLK
  5
1D
330
1B
100
AcDbEntity
 67
     1
  8
0
100
AcDbBlockEnd
  0
BLOCK
  5
24
330
23
100
AcDbEntity
  8
0
100
AcDbBlockBegin
  2
*Paper_Space0
 70
     0
 10
0.0
 20
0.0
 30
0.0
  3
*Paper_Space0
  1

  0
ENDBLK
  5
25
330
23
100
AcDbEntity
  8
0
100
AcDbBlockEnd
  0
ENDSEC
  0
SECTION
  2
ENTITIES
  0
CIRCLE
  5
73
330
1F
100
AcDbEntity
  8
0
  6
Continuous
 62
     7
100
AcDbCircle
 10
20.0
 20
180.0
 30
0.0
 40
1.0
  0
CIRCLE
  5
74
330
1F
100
AcDbEntity
  8
0
  6
Continuous
 62
     7
100
AcDbCircle
 10
20.0
 20
150.0
 30
0.0
 40
1.000000000000001
  0
CIRCLE
  5
75
330
1F
100
AcDbEntity
  8
0
  6
Continuous
 62
     7
100
AcDbCircle
 10
40.0
 20
180.0
 30
0.0
 40
1.0
  0
CIRCLE
  5
76
330
1F
100
AcDbEntity
  8
0
  6
Continuous
 62
     7
100
AcDbCircle
 10
40.0
 20
150.0
 30
0.0
 40
0.9999999999999976
  0
CIRCLE
  5
77
330
1F
100
AcDbEntity
  8
0
  6
Continuous
 62
     7
100
AcDbCircle
 10
200.0
 20
180.0
 30
0.0
 40
0.9999999999999976
  0
CIRCLE
  5
78
330
1F
100
AcDbEntity
  8
0
  6
Continuous
 62
     7
100
AcDbCircle
 10
180.0
 20
180.0
 30
0.0
 40
1.0
  0
CIRCLE
  5
79
330
1F
100
AcDbEntity
  8
0
  6
Continuous
 62
     7
100
AcDbCircle
 10
180.0
 20
150.0
 30
0.0
 40
1.0
  0
CIRCLE
  5
7A
330
1F
100
AcDbEntity
  8
0
  6
Continuous
 62
     7
100
AcDbCircle
 10
200.0
 20
150.0
 30
0.0
 40
1.0
  0
CIRCLE
  5
7B
330
1F
100
AcDbEntity
  8
0
  6
Continuous
 62
     7
100
AcDbCircle
 10
110.0
 20
31.0
 30
0.0
 40
1.0
  0
CIRCLE
  5
7C
330
1F
100
AcDbEntity
  8
0
  6
Continuous
 62
     7
100
AcDbCircle
 10
110.0
 20
15.0
 30
0.0
 40
1.0
  0
CIRCLE
  5
7D
330
1F
100
AcDbEntity
  8
0
  6
Continuous
 62
     7
100
AcDbCircle
 10
110.0
 20
40.0
 30
0.0
 40
1.0
  0
CIRCLE
  5
7E
330
1F
100
AcDbEntity
  8
0
  6
Continuous
 62
     7
100
AcDbCircle
 10
175.0
 20
75.0
 30
0.0
 40
1.0
  0
CIRCLE
  5
7F
330
1F
100
AcDbEntity
  8
0
  6
Continuous
 62
     7
100
AcDbCircle
 10
110.0
 20
110.0
 30
0.0
 40
1.0
  0
CIRCLE
  5
80
330
1F
100
AcDbEntity
  8
0
  6
Continuous
 62
     7
100
AcDbCircle
 10
45.0
 20
75.0
 30
0.0
 40
1.0
  0
CIRCLE
  5
81
330
1F
100
AcDbEntity
  8
0
  6
Continuous
 62
     7
100
AcDbCircle
 10
95.0
 20
190.0
 30
0.0
 40
0.9999999999999976
  0
CIRCLE
  5
82
330
1F
100
AcDbEntity
  8
0
  6
Continuous
 62
     7
100
AcDbCircle
 10
125.0
 20
190.0
 30
0.0
 40
0.9999999999999839
  0
CIRCLE
  5
83
330
1F
100
AcDbEntity
  8
0
  6
Continuous
 62
     7
100
AcDbCircle
 10
20.0
 20
120.0
 30
0.0
 40
1.000000000000001
  0
CIRCLE
  5
84
330
1F
100
AcDbEntity
  8
0
  6
Continuous
 62
     7
100
AcDbCircle
 10
40.0
 20
120.0
 30
0.0
 40
0.9999999999999976
  0
CIRCLE
  5
85
330
1F
100
AcDbEntity
  8
0
  6
Continuous
 62
     7
100
AcDbCircle
 10
10.0
 20
0.0
 30
0.0
 40
1.000000000000002
  0
CIRCLE
  5
86
330
1F
100
AcDbEntity
  8
0
  6
Continuous
 62
     7
100
AcDbCircle
 10
180.0
 20
120.0
 30
0.0
 40
0.9999999999999976
  0
CIRCLE
  5
87
330
1F
100
AcDbEntity
  8
0
  6
Continuous
 62
     7
100
AcDbCircle
 10
200.0
 20
120.0
 30
0.0
 40
0.9999999999999976
  0
CIRCLE
  5
88
330
1F
100
AcDbEntity
  8
0
  6
Continuous
 62
     7
100
AcDbCircle
 10
84.99
 20
160.0000016667
 30
0.0
 40
0.9999999999999976
  0
CIRCLE
  5
89
330
1F
100
AcDbEntity
  8
0
  6
Continuous
 62
     7
100
AcDbCircle
 10
94.99
 20
160.0000016667
 30
0.0
 40
0.9999999999999976
  0
CIRCLE
  5
8A
330
1F
100
AcDbEntity
  8
0
  6
Continuous
 62
     7
100
AcDbCircle
 10
200.0
 20
165.0
 30
0.0
 40
0.9999999999999976
  0
CIRCLE
  5
8B
330
1F
100
AcDbEntity
  8
0
  6
Continuous
 62
     7
100
AcDbCircle
 10
180.0
 20
165.0
 30
0.0
 40
0.9999999999999976
  0
CIRCLE
  5
8C
330
1F
100
AcDbEntity
  8
0
  6
Continuous
 62
     7
100
AcDbCircle
 10
200.0
 20
135.0
 30
0.0
 40
0.9999999999999976
  0
CIRCLE
  5
8D
330
1F
100
AcDbEntity
  8
0
  6
Continuous
 62
     7
100
AcDbCircle
 10
180.0
 20
135.0
 30
0.0
 40
0.9999999999999976
  0
CIRCLE
  5
8E
330
1F
100
AcDbEntity
  8
0
  6
Continuous
 62
     7
100
AcDbCircle
 10
190.0
 20
177.4899959968
 30
0.0
 40
0.9999999999999976
  0
CIRCLE
  5
8F
330
1F
100
AcDbEntity
  8
0
  6
Continuous
 62
     7
100
AcDbCircle
 10
40.0
 20
165.0
 30
0.0
 40
0.9999999999999976
  0
CIRCLE
  5
90
330
1F
100
AcDbEntity
  8
0
  6
Continuous
 62
     7
100
AcDbCircle
 10
20.0
 20
165.0
 30
0.0
 40
0.9999999999999976
  0
CIRCLE
  5
91
330
1F
100
AcDbEntity
  8
0
  6
Continuous
 62
     7
100
AcDbCircle
 10
20.0
 20
135.0
 30
0.0
 40
1.000000000000001
  0
CIRCLE
  5
92
330
1F
100
AcDbEntity
  8
0
  6
Continuous
 62
     7
100
AcDbCircle
 10
40.0
 20
135.0
 30
0.0
 40
0.9999999999999976
  0
CIRCLE
  5
93
330
1F
100
AcDbEntity
  8
0
  6
Continuous
 62
     7
100
AcDbCircle
 10
30.0
 20
177.4899959968
 30
0.0
 40
0.9999999999999976
  0
CIRCLE
  5
94
330
1F
100
AcDbEntity
  8
0
  6
Continuous
 62
     7
100
AcDbCircle
 10
180.0
 20
50.0
 30
0.0
 40
0.9999999999999976
  0
CIRCLE
  5
95
330
1F
100
AcDbEntity
  8
0
  6
Continuous
 62
     7
100
AcDbCircle
 10
200.0
 20
50.0
 30
0.0
 40
0.9999999999999976
  0
CIRCLE
  5
96
330
1F
100
AcDbEntity
  8
0
  6
Continuous
 62
     7
100
AcDbCircle
 10
180.0
 20
20.0
 30
0.0
 40
0.9999999999999976
  0
CIRCLE
  5
97
330
1F
100
AcDbEntity
  8
0
  6
Continuous
 62
     7
100
AcDbCircle
 10
200.0
 20
20.0
 30
0.0
 40
0.9999999999999976
  0
CIRCLE
  5
98
330
1F
100
AcDbEntity
  8
0
  6
Continuous
 62
     7
100
AcDbCircle
 10
20.0
 20
50.9932332252
 30
0.0
 40
0.9999999999999954
  0
CIRCLE
  5
99
330
1F
100
AcDbEntity
  8
0
  6
Continuous
 62
     7
100
AcDbCircle
 10
40.0
 20
50.9932332252
 30
0.0
 40
0.9999999999999954
  0
CIRCLE
  5
9A
330
1F
100
AcDbEntity
  8
0
  6
Continuous
 62
     7
100
AcDbCircle
 10
20.0
 20
20.9932332252
 30
0.0
 40
0.9999999999999976
  0
CIRCLE
  5
9B
330
1F
100
AcDbEntity
  8
0
  6
Continuous
 62
     7
100
AcDbCircle
 10
40.0
 20
20.9932332252
 30
0.0
 40
0.9999999999999976
  0
CIRCLE
  5
9C
330
1F
100
AcDbEntity
  8
0
  6
Continuous
 62
     7
100
AcDbCircle
 10
85.0
 20
190.0000016667
 30
0.0
 40
1.000000000000011
  0
CIRCLE
  5
9D
330
1F
100
AcDbEntity
  8
0
  6
Continuous
 62
     7
100
AcDbCircle
 10
74.99
 20
160.0000016667
 30
0.0
 40
1.000000000000011
  0
CIRCLE
  5
9E
330
1F
100
AcDbEntity
  8
0
  6
Continuous
 62
     7
100
AcDbCircle
 10
75.0
 20
190.0
 30
0.0
 40
0.9999999999999976
  0
CIRCLE
  5
9F
330
1F
100
AcDbEntity
  8
0
  6
Continuous
 62
     7
100
AcDbCircle
 10
145.0
 20
190.0
 30
0.0
 40
0.9999999999999976
  0
CIRCLE
  5
A0
330
1F
100
AcDbEntity
  8
0
  6
Continuous
 62
     7
100
AcDbCircle
 10
144.99
 20
160.0
 30
0.0
 40
0.9999999999999976
  0
CIRCLE
  5
A1
330
1F
100
AcDbEntity
  8
0
  6
Continuous
 62
     7
100
AcDbCircle
 10
135.0
 20
190.0
 30
0.0
 40
0.9999999999999976
  0
CIRCLE
  5
A2
330
1F
100
AcDbEntity
  8
0
  6
Continuous
 62
     7
100
AcDbCircle
 10
134.99
 20
160.0
 30
0.0
 40
0.9999999999999976
  0
CIRCLE
  5
A3
330
1F
100
AcDbEntity
  8
0
  6
Continuous
 62
     7
100
AcDbCircle
 10
124.99
 20
160.0
 30
0.0
 40
0.9999999999999976
  0
LINE
  5
A4
330
1F
100
AcDbEntity
  8
0
  6
Continuous
 62
     7
100
AcDbLine
 10
0.0
 20
0.0
 30
0.0
 11
220.0
 21
0.0
 31
0.0
  0
LINE
  5
A5
330
1F
100
AcDbEntity
  8
0
  6
Continuous
 62
     7
100
AcDbLine
 10
0.0
 20
0.0
 30
0.0
 11
0.0
 21
200.0
 31
0.0
  0
LINE
  5
A6
330
1F
100
AcDbEntity
  8
0
  6
Continuous
 62
     7
100
AcDbLine
 10
0.0
 20
200.0
 30
0.0
 11
220.0
 21
200.0
 31
0.0
  0
LINE
  5
A7
330
1F
100
AcDbEntity
  8
0
  6
Continuous
 62
     7
100
AcDbLine
 10
220.0
 20
0.0
 30
0.0
 11
220.0
 21
200.0
 31
0.0
  0
LWPOLYLINE
  5
A8
330
1F
100
AcDbEntity
  8
0
  6
Continuous
 62
     7
100
AcDbPolyline
 90
       85
 70
   128
 43
0.0
 10
1.7831334844
 20
-1.1171966737
 10
2.3486530107
 20
-1.9175807781
 10
2.3486530107
 20
-1.9175807781
 10
2.3560213338
 20
-1.94521199
 10
2.3578634146
 20
-1.9765273635
 10
2.3578634146
 20
-1.9765273635
 10
2.3560213338
 20
-1.9977112926
 10
2.3486530107
 20
-2.0216583429
 10
2.3486530107
 20
-2.0216583429
 10
2.3385215663
 20
-2.056657878
 10
2.3210217988
 20
-2.0833680495
 10
2.2961537081
 20
-2.1027098978
 10
2.2648383346
 20
-2.1128413422
 10
2.2648383346
 20
-2.1128413422
 10
2.2197073552
 20
-2.0925784534
 10
2.1856288605
 20
-2.0584999588
 10
2.1856288605
 20
-2.0584999588
 10
1.6827408041
 20
-1.3142993185
 10
1.6827408041
 20
-1.3142993185
 10
0.6815698933
 20
-1.3142993185
 10
0.6815698933
 20
-1.3142993185
 10
0.244075705
 20
-1.9424488688
 10
0.244075705
 20
-1.9424488688
 10
2.3440478087
 20
-4.9459616013
 10
2.3440478087
 20
-4.9459616013
 10
2.354179253
 20
-4.970829692
 10
2.3578634146
 20
-5.0058292271
 10
2.3578634146
 20
-5.0058292271
 10
2.3578634146
 20
-5.0187237926
 10
2.3578634146
 20
-5.0325393986
 10
2.3578634146
 20
-5.0325393986
 10
2.3735211014
 20
-5.0417498025
 10
2.3790473438
 20
-5.0481970853
 10
2.3735211014
 20
-5.0546443681
 10
2.3578634146
 20
-5.0583285297
 10
2.3578634146
 20
-5.0583285297
 10
2.3348374047
 20
-5.0988543071
 10
2.3348374047
 20
-5.0988543071
 10
1.768397561
 20
-5.9056856943
 10
1.768397561
 20
-5.9056856943
 10
1.7214245008
 20
-5.9121329771
 10
1.7214245008
 20
-5.9121329771
 10
0.6032814596
 20
-5.9121329771
 10
0.6032814596
 20
-5.9121329771
 10
0.5756502477
 20
-5.8872648864
 10
0.5756502477
 20
-5.8872648864
 10
0.009210404
 20
-5.1255644786
 10
0.009210404
 20
-5.1255644786
 10
0.0027631212
 20
-5.0905649435
 10
0.0
 20
-5.0629337316
 10
0.0
 20
-5.0629337316
 10
0.0009210404
 20
-5.0371446005
 10
0.004605202
 20
-5.019644833
 10
0.004605202
 20
-5.019644833
 10
0.0193418483
 20
-4.9864873787
 10
0.039604737
 20
-4.9606982476
 10
0.0644728277
 20
-4.9431984801
 10
0.0957882012
 20
-4.9330670358
 10
0.0957882012
 20
-4.9330670358
 10
0.1399981402
 20
-4.9459616013
 10
0.1768397561
 20
-4.984645298
 10
0.1768397561
 20
-4.984645298
 10
0.6935434184
 20
-5.6763466356
 10
0.6935434184
 20
-5.6763466356
 10
1.7214245008
 20
-5.6763466356
 10
1.7214245008
 20
-5.6763466356
 10
2.1708922142
 20
-5.0481970853
 10
2.1708922142
 20
-5.0481970853
 10
0.009210404
 20
-2.0511316356
 10
0.009210404
 20
-2.0511316356
 10
0.0027631212
 20
-2.0244214641
 10
0.0
 20
-1.9848167271
 10
0.0
 20
-1.9848167271
 10
0.0009210404
 20
-1.9599486364
 10
0.004605202
 20
-1.9387647072
 10
0.004605202
 20
-1.9387647072
 10
0.0230260099
 20
-1.891791647
 10
0.0230260099
 20
-1.891791647
 10
0.5931500152
 20
-1.0914075426
 10
0.5931500152
 20
-1.0914075426
 10
0.6207812271
 20
-1.0785129771
 10
0.6207812271
 20
-1.0785129771
 10
1.7508977934
 20
-1.0849602598
 10
1.7508977934
 20
-1.0849602598
 10
1.7831342073
 20
-1.1171966737
  0
LWPOLYLINE
  5
A9
330
1F
100
AcDbEntity
  8
0
  6
Continuous
 62
     7
100
AcDbPolyline
 90
       30
 70
   128
 43
0.0
 10
5.6551843882
 20
-1.0849602598
 10
5.677293003
 20
-1.0950917042
 10
5.6947927706
 20
-1.1107493909
 10
5.7086083765
 20
-1.1346964412
 10
5.7178187805
 20
-1.1641697339
 10
5.7178187805
 20
-1.1641697339
 10
5.7178187805
 20
-1.2756156219
 10
5.7178187805
 20
-1.2756156219
 10
5.7178187805
 20
-5.8071343719
 10
5.7178187805
 20
-5.8071343719
 10
5.700319013
 20
-5.8642388765
 10
5.6653194779
 20
-5.9056856943
 10
5.6653194779
 20
-5.9056856943
 10
5.6312409832
 20
-5.9121329771
 10
5.6312409832
 20
-5.9121329771
 10
3.3636395274
 20
-5.9121329771
 10
3.3636395274
 20
-5.9121329771
 10
3.3240347904
 20
-5.877133442
 10
3.3010087805
 20
-5.8264762202
 10
3.3010087805
 20
-5.8264762202
 10
3.3010087805
 20
-5.6956884839
 10
3.3010087805
 20
-5.6956884839
 10
3.3010087805
 20
-1.1706170167
 10
3.3010087805
 20
-1.1706170167
 10
3.3120612652
 20
-1.1402226836
 10
3.3286399924
 20
-1.1144335525
 10
3.3525870427
 20
-1.0941706638
 10
3.3829813758
 20
-1.0785129771
 10
3.3829813758
 20
-1.0785129771
 10
5.6551880335
 20
-1.0849602598
  0
LWPOLYLINE
  5
AA
330
1F
100
AcDbEntity
  8
0
  6
Continuous
 62
     7
100
AcDbPolyline
 90
        8
 70
   128
 43
0.0
 10
5.5409781635
 20
-5.6763466356
 10
5.5409790244
 20
-1.3142993185
 10
5.5409790244
 20
-1.3142993185
 10
3.4778485366
 20
-1.3142993185
 10
3.4778485366
 20
-1.3142993185
 10
3.4778485366
 20
-5.6763466356
 10
3.4778485366
 20
-5.6763466356
 10
5.5409790244
 20
-5.6763466356
  0
LWPOLYLINE
  5
AB
330
1F
100
AcDbEntity
  8
0
  6
Continuous
 62
     7
100
AcDbPolyline
 90
       41
 70
   128
 43
0.0
 10
6.7512243986
 20
-1.1153545929
 10
6.7631996303
 20
-1.1393016432
 10
6.7724100343
 20
-1.1733801379
 10
6.7770152363
 20
-1.2203531981
 10
6.7788573171
 20
-1.2774577027
 10
6.7788573171
 20
-1.2774577027
 10
6.7788573171
 20
-5.6763466356
 10
6.7788573171
 20
-5.6763466356
 10
8.9350128849
 20
-5.6763466356
 10
8.9350128849
 20
-5.6763466356
 10
8.9571178544
 20
-5.681872878
 10
8.9755386623
 20
-5.6947674435
 10
8.9911963491
 20
-5.7131882515
 10
9.0022488338
 20
-5.7380563422
 10
9.0022488338
 20
-5.7380563422
 10
9.0133013186
 20
-5.7666085944
 10
9.0169854802
 20
-5.7942398063
 10
9.0169854802
 20
-5.7942398063
 10
9.0114592378
 20
-5.8338445434
 10
8.9948805107
 20
-5.8734492804
 10
8.9810649047
 20
-5.8900280076
 10
8.9626440968
 20
-5.9020015327
 10
8.9368549657
 20
-5.9093698559
 10
8.9064606326
 20
-5.9121329771
 10
8.9064606326
 20
-5.9121329771
 10
6.6646483079
 20
-5.9121329771
 10
6.6646483079
 20
-5.9121329771
 10
6.6250435709
 20
-5.877133442
 10
6.602017561
 20
-5.8264762202
 10
6.602017561
 20
-5.8264762202
 10
6.602017561
 20
-5.6956884839
 10
6.602017561
 20
-5.6956884839
 10
6.602017561
 20
-1.1706170167
 10
6.602017561
 20
-1.1706170167
 10
6.6130700457
 20
-1.1346964412
 10
6.6287277325
 20
-1.1079862697
 10
6.6489906212
 20
-1.0886444214
 10
6.6738587119
 20
-1.0785129771
 10
6.6738587119
 20
-1.0785129771
 10
6.7189896913
 20
-1.087723381
 10
6.7512261052
 20
-1.1153545929
  0
LWPOLYLINE
  5
AC
330
1F
100
AcDbEntity
  8
0
  6
Continuous
 62
     7
100
AcDbPolyline
 90
       63
 70
   128
 43
0.0
 10
11.1408978701
 20
-1.0840392194
 10
11.1666937652
 20
-1.0941706638
 10
11.186956654
 20
-1.1116704313
 10
11.2007722599
 20
-1.1393016432
 10
11.2081405831
 20
-1.1743011783
 10
11.2081405831
 20
-1.1743011783
 10
11.2026143407
 20
-1.2304846425
 10
11.186956654
 20
-1.2746945815
 10
11.186956654
 20
-1.2746945815
 10
11.1648516845
 20
-1.292194349
 10
11.1353783918
 20
-1.3041678742
 10
11.0976157355
 20
-1.3115361973
 10
11.0524847561
 20
-1.3142993185
 10
11.0524847561
 20
-1.3142993185
 10
10.6103853659
 20
-1.3142993185
 10
10.6103853659
 20
-1.3142993185
 10
10.6103853659
 20
-5.6763466356
 10
10.6103853659
 20
-5.6763466356
 10
11.1353783918
 20
-5.6763466356
 10
11.1353783918
 20
-5.6763466356
 10
11.1630096037
 20
-5.6910832819
 10
11.1851145732
 20
-5.7122672111
 10
11.1998512195
 20
-5.739898423
 10
11.2081405831
 20
-5.7739769176
 10
11.2081405831
 20
-5.7739769176
 10
11.2026143407
 20
-5.8310814222
 10
11.1860356136
 20
-5.8752913612
 10
11.1722200076
 20
-5.890949048
 10
11.1537991997
 20
-5.9029225731
 10
11.128931109
 20
-5.9093698559
 10
11.0985367759
 20
-5.9121329771
 10
11.0985367759
 20
-5.9121329771
 10
9.9702622904
 20
-5.9121329771
 10
9.9702622904
 20
-5.9121329771
 10
9.9444731593
 20
-5.8973963307
 10
9.9242102706
 20
-5.877133442
 10
9.9103946646
 20
-5.8495022301
 10
9.9030263415
 20
-5.8163447758
 10
9.9030263415
 20
-5.8163447758
 10
9.9094736242
 20
-5.7564771501
 10
9.9278944322
 20
-5.7131882515
 10
9.9444731593
 20
-5.6966095243
 10
9.96934125
 20
-5.6855570396
 10
10.0015776639
 20
-5.6781887164
 10
10.0411824009
 20
-5.6763466356
 10
10.0411824009
 20
-5.6763466356
 10
10.4335456098
 20
-5.6763466356
 10
10.4335456098
 20
-5.6763466356
 10
10.4335456098
 20
-1.3142993185
 10
10.4335456098
 20
-1.3142993185
 10
9.9711833308
 20
-1.3142993185
 10
9.9711833308
 20
-1.3142993185
 10
9.9444731593
 20
-1.301404753
 10
9.925131311
 20
-1.2811418643
 10
9.9103946646
 20
-1.252589612
 10
9.9030263415
 20
-1.2166690365
 10
9.9030263415
 20
-1.2166690365
 10
9.9094736242
 20
-1.1577224512
 10
9.9269733918
 20
-1.1190387545
 10
9.9536835633
 20
-1.0941706638
 10
9.9840778963
 20
-1.0785129771
 10
9.9840778963
 20
-1.0785129771
 10
11.1409046341
 20
-1.0840392194
  0
LWPOLYLINE
  5
AD
330
1F
100
AcDbEntity
  8
0
  6
Continuous
 62
     7
100
AcDbPolyline
 90
       49
 70
   128
 43
0.0
 10
13.9712616801
 20
-1.1181177141
 10
14.5505961814
 20
-1.9175807781
 10
14.5505961814
 20
-1.9175807781
 10
14.5598065854
 20
-1.9774484039
 10
14.5598065854
 20
-1.9774484039
 10
14.540464737
 20
-5.1053015899
 10
14.540464737
 20
-5.1053015899
 10
13.9519199238
 20
-5.9056856943
 10
13.9519199238
 20
-5.9056856943
 10
13.9040258232
 20
-5.9121329771
 10
13.9040258232
 20
-5.9121329771
 10
12.2056273323
 20
-5.9121329771
 10
12.2056273323
 20
-5.9121329771
 10
12.1779961204
 20
-5.8946332095
 10
12.1586542721
 20
-5.8688440784
 10
12.146680747
 20
-5.8356866242
 10
12.1429965854
 20
-5.7942398063
 10
12.1429965854
 20
-5.7942398063
 10
12.1503649085
 20
-5.7445036249
 10
12.172469878
 20
-5.7076620091
 10
12.190890686
 20
-5.6938464031
 10
12.2148377363
 20
-5.6837149588
 10
12.2452320694
 20
-5.6781887164
 10
12.2811526448
 20
-5.6763466356
 10
12.2811526448
 20
-5.6763466356
 10
12.6735158537
 20
-5.6763466356
 10
12.6735158537
 20
-5.6763466356
 10
12.6735158537
 20
-1.3142993185
 10
12.6735158537
 20
-1.3142993185
 10
12.2111535747
 20
-1.3142993185
 10
12.2111535747
 20
-1.3142993185
 10
12.1844434032
 20
-1.301404753
 10
12.1651015549
 20
-1.2811418643
 10
12.1503649085
 20
-1.252589612
 10
12.1429965854
 20
-1.2166690365
 10
12.1429965854
 20
-1.2166690365
 10
12.1485228277
 20
-1.1595645319
 10
12.1641805145
 20
-1.1162756333
 10
12.1779961204
 20
-1.0996969062
 10
12.1973379688
 20
-1.087723381
 10
12.2231270998
 20
-1.0812760983
 10
12.2535214329
 20
-1.0785129771
 10
12.2535214329
 20
-1.0785129771
 10
12.3060207355
 20
-1.0785129771
 10
12.3060207355
 20
-1.0785129771
 10
13.8948154192
 20
-1.0785129771
 10
13.8948154192
 20
-1.0785129771
 10
13.9399463986
 20
-1.0886444214
 10
13.9712617721
 20
-1.1181177141
  0
LWPOLYLINE
  5
AE
330
1F
100
AcDbEntity
  8
0
  6
Continuous
 62
     7
100
AcDbPolyline
 90
       12
 70
   128
 43
0.0
 10
14.3829658628
 20
-2.003237535
 10
13.8653421265
 20
-1.3142993185
 10
13.8653421265
 20
-1.3142993185
 10
12.8503556098
 20
-1.3142993185
 10
12.8503556098
 20
-1.3142993185
 10
12.8503556098
 20
-5.6763466356
 10
12.8503556098
 20
-5.6763466356
 10
13.8653421265
 20
-5.6763466356
 10
13.8653421265
 20
-5.6763466356
 10
14.3829668293
 20
-4.9809611364
 10
14.3829668293
 20
-4.9809611364
 10
14.3829668293
 20
-2.003237535
  0
LWPOLYLINE
  5
AF
330
1F
100
AcDbEntity
  8
0
  6
Continuous
 62
     7
100
AcDbPolyline
 90
       69
 70
   128
 43
0.0
 10
15.6309753656
 20
-1.1383806028
 10
16.6533314063
 20
-5.4027976379
 10
16.6533314063
 20
-5.4027976379
 10
17.1239830488
 20
-3.4492709572
 10
17.1239830488
 20
-3.4492709572
 10
17.1396407355
 20
-3.4197976646
 10
17.1599036242
 20
-3.3986137355
 10
17.1829296341
 20
-3.3866402103
 10
17.2096398056
 20
-3.3820350083
 10
17.2096398056
 20
-3.3820350083
 10
17.2391130983
 20
-3.3866402103
 10
17.263981189
 20
-3.4004558162
 10
17.2842440777
 20
-3.4234818262
 10
17.3008228049
 20
-3.45571824
 10
17.3008228049
 20
-3.45571824
 10
17.7668692454
 20
-5.4027976379
 10
17.7668692454
 20
-5.4027976379
 10
18.0118659909
 20
-4.3951794443
 10
18.0118659909
 20
-4.3951794443
 10
18.7938292873
 20
-1.1319333201
 10
18.7938292873
 20
-1.1319333201
 10
18.8214604992
 20
-1.0978548254
 10
18.8564600343
 20
-1.0785129771
 10
18.8564600343
 20
-1.0785129771
 10
18.9052751753
 20
-1.0858813002
 10
18.9421167912
 20
-1.1098283505
 10
18.9679059223
 20
-1.1485120472
 10
18.9808004878
 20
-1.2028534306
 10
18.9808004878
 20
-1.2028534306
 10
18.9614586395
 20
-1.2885101874
 10
18.9614586395
 20
-1.2885101874
 10
17.8580522447
 20
-5.8402918262
 10
17.8580522447
 20
-5.8402918262
 10
17.828578952
 20
-5.8872648864
 10
17.7862110938
 20
-5.9121329771
 10
17.7862110938
 20
-5.9121329771
 10
17.7429221951
 20
-5.9075277751
 10
17.7088437005
 20
-5.8927911287
 10
17.7088437005
 20
-5.8927911287
 10
17.6710810442
 20
-5.8347655838
 10
17.6710810442
 20
-5.8347655838
 10
17.215166048
 20
-3.9724219024
 10
17.215166048
 20
-3.9724219024
 10
17.2050346037
 20
-3.9853164679
 10
17.2050346037
 20
-3.9853164679
 10
16.7445144055
 20
-5.8412128665
 10
16.7445144055
 20
-5.8412128665
 10
16.7159621532
 20
-5.8881859268
 10
16.6772784566
 20
-5.9121329771
 10
16.6772784566
 20
-5.9121329771
 10
16.6303053963
 20
-5.9075277751
 10
16.5953058613
 20
-5.8927911287
 10
16.5953058613
 20
-5.8927911287
 10
16.562148407
 20
-5.832923503
 10
16.562148407
 20
-5.832923503
 10
15.4440053659
 20
-1.2166690365
 10
15.4440053659
 20
-1.2166690365
 10
15.446768487
 20
-1.1770642995
 10
15.455978891
 20
-1.1439068452
 10
15.4707155373
 20
-1.1181177141
 10
15.4918994665
 20
-1.0978548254
 10
15.4918994665
 20
-1.0978548254
 10
15.5195306784
 20
-1.083118179
 10
15.5443987691
 20
-1.0785129771
 10
15.5443987691
 20
-1.0785129771
 10
15.5720299809
 20
-1.0821971387
 10
15.5950559909
 20
-1.0932496234
 10
15.6153188796
 20
-1.1125914717
 10
15.6309765663
 20
-1.1383806028
  0
LWPOLYLINE
  5
B0
330
1F
100
AcDbEntity
  8
0
  6
Continuous
 62
     7
100
AcDbPolyline
 90
       30
 70
   128
 43
0.0
 10
22.2191661596
 20
-1.0849602598
 10
22.2412834909
 20
-1.0950917042
 10
22.2587832584
 20
-1.1107493909
 10
22.2725988643
 20
-1.1346964412
 10
22.2818092683
 20
-1.1641697339
 10
22.2818092683
 20
-1.1641697339
 10
22.2818092683
 20
-1.2756156219
 10
22.2818092683
 20
-1.2756156219
 10
22.2818092683
 20
-5.8071343719
 10
22.2818092683
 20
-5.8071343719
 10
22.2643095008
 20
-5.8642388765
 10
22.2293099657
 20
-5.9056856943
 10
22.2293099657
 20
-5.9056856943
 10
22.195231471
 20
-5.9121329771
 10
22.195231471
 20
-5.9121329771
 10
19.9276300152
 20
-5.9121329771
 10
19.9276300152
 20
-5.9121329771
 10
19.8880252782
 20
-5.877133442
 10
19.8649992683
 20
-5.8264762202
 10
19.8649992683
 20
-5.8264762202
 10
19.8649992683
 20
-5.6956884839
 10
19.8649992683
 20
-5.6956884839
 10
19.8649992683
 20
-1.1706170167
 10
19.8649992683
 20
-1.1706170167
 10
19.876051753
 20
-1.1402226836
 10
19.8926304802
 20
-1.1144335525
 10
19.9165775305
 20
-1.0941706638
 10
19.9469718636
 20
-1.0785129771
 10
19.9469718636
 20
-1.0785129771
 10
22.2191785213
 20
-1.0849602598
  0
LWPOLYLINE
  5
B1
330
1F
100
AcDbEntity
  8
0
  6
Continuous
 62
     7
100
AcDbPolyline
 90
        8
 70
   128
 43
0.0
 10
22.1049636602
 20
-5.6763466356
 10
22.1049695122
 20
-1.3142993185
 10
22.1049695122
 20
-1.3142993185
 10
20.0418390244
 20
-1.3142993185
 10
20.0418390244
 20
-1.3142993185
 10
20.0418390244
 20
-5.6763466356
 10
20.0418390244
 20
-5.6763466356
 10
22.1049695122
 20
-5.6763466356
  0
LWPOLYLINE
  5
B2
330
1F
100
AcDbEntity
  8
0
  6
Continuous
 62
     7
100
AcDbPolyline
 90
       70
 70
   128
 43
0.0
 10
24.9942690134
 20
-1.1181177141
 10
25.5736076448
 20
-1.9295543033
 10
25.5736076448
 20
-1.9295543033
 10
25.5828180488
 20
-1.989421929
 10
25.5828180488
 20
-1.989421929
 10
25.5828180488
 20
-2.7944112354
 10
25.5828180488
 20
-2.7944112354
 10
25.5736076448
 20
-2.8404632553
 10
25.5736076448
 20
-2.8404632553
 10
24.9776945084
 20
-3.6518998444
 10
24.9776945084
 20
-3.6518998444
 10
24.9344056098
 20
-3.6721627332
 10
24.9344056098
 20
-3.6721627332
 10
24.0649434756
 20
-3.6721627332
 10
24.0649434756
 20
-3.6721627332
 10
25.5680814024
 20
-5.7223986554
 10
25.5680814024
 20
-5.7223986554
 10
25.5791338872
 20
-5.7693717156
 10
25.5828180488
 20
-5.7942398063
 10
25.5828180488
 20
-5.7942398063
 10
25.5828180488
 20
-5.8016081295
 10
25.5828180488
 20
-5.8117395739
 10
25.5828180488
 20
-5.8117395739
 10
25.5984757355
 20
-5.8172658162
 10
25.6040019779
 20
-5.8218710182
 10
25.5984757355
 20
-5.8264762202
 10
25.5828180488
 20
-5.8292393414
 10
25.5828180488
 20
-5.8292393414
 10
25.571765564
 20
-5.8587126341
 10
25.5579499581
 20
-5.8826596844
 10
25.5404501905
 20
-5.9001594519
 10
25.5201873018
 20
-5.9121329771
 10
25.5201873018
 20
-5.9121329771
 10
25.4870298476
 20
-5.9112119367
 10
25.4612407165
 20
-5.9075277751
 10
25.4409778277
 20
-5.9010804923
 10
25.4280832622
 20
-5.8927911287
 10
25.4280832622
 20
-5.8927911287
 10
23.7600791044
 20
-3.6721627332
 10
23.7600791044
 20
-3.6721627332
 10
23.3428478049
 20
-3.6721627332
 10
23.3428478049
 20
-3.6721627332
 10
23.3428478049
 20
-5.8089764527
 10
23.3428478049
 20
-5.8089764527
 10
23.3290321989
 20
-5.8568705533
 10
23.2967957851
 20
-5.8992384115
 10
23.2967957851
 20
-5.8992384115
 10
23.2802170579
 20
-5.9084488155
 10
23.2544279268
 20
-5.9121329771
 10
23.2544279268
 20
-5.9121329771
 10
23.2166652706
 20
-5.9047646539
 10
23.1890340587
 20
-5.8826596844
 10
23.1789026143
 20
-5.8642388765
 10
23.1715342912
 20
-5.8393707858
 10
23.1678501296
 20
-5.8071343719
 10
23.1660080488
 20
-5.7675296348
 10
23.1660080488
 20
-5.7675296348
 10
23.1660080488
 20
-1.1770642995
 10
23.1660080488
 20
-1.1770642995
 10
23.1752184527
 20
-1.1475910068
 10
23.1890340587
 20
-1.1227229161
 10
23.2065338262
 20
-1.1043021082
 10
23.2286387957
 20
-1.0914075426
 10
23.2286387957
 20
-1.0914075426
 10
23.3290321989
 20
-1.0849602598
 10
23.3290321989
 20
-1.0849602598
 10
24.9178268826
 20
-1.0785129771
 10
24.9178268826
 20
-1.0785129771
 10
24.962957862
 20
-1.0886444214
 10
24.9942732355
 20
-1.1181177141
  0
LWPOLYLINE
  5
B3
330
1F
100
AcDbEntity
  8
0
  6
Continuous
 62
     7
100
AcDbPolyline
 90
       12
 70
   128
 43
0.0
 10
25.405973196
 20
-2.0308687469
 10
24.9012481555
 20
-1.3142993185
 10
24.9012481555
 20
-1.3142993185
 10
23.3428478049
 20
-1.3142993185
 10
23.3428478049
 20
-1.3142993185
 10
23.3428478049
 20
-3.4363763917
 10
23.3428478049
 20
-3.4363763917
 10
24.8966429535
 20
-3.4363763917
 10
24.8966429535
 20
-3.4363763917
 10
25.4059782927
 20
-2.7124386402
 10
25.4059782927
 20
-2.7124386402
 10
25.4059782927
 20
-2.0308687469
  0
LWPOLYLINE
  5
B4
330
1F
100
AcDbEntity
  8
0
  6
Continuous
 62
     7
100
AcDbPolyline
 90
       72
 70
   128
 43
0.0
 10
28.8479030132
 20
-1.1181177141
 10
28.8626429002
 20
-1.141143724
 10
28.8736953849
 20
-1.1687749359
 10
28.8801426677
 20
-1.203774471
 10
28.8819847485
 20
-1.243379208
 10
28.8819847485
 20
-1.243379208
 10
28.8672481021
 20
-1.2958785106
 10
28.8672481021
 20
-1.2958785106
 10
27.2655588529
 20
-3.5054544214
 10
27.2655588529
 20
-3.5054544214
 10
28.8672481021
 20
-5.721477615
 10
28.8672481021
 20
-5.721477615
 10
28.8783005869
 20
-5.7693717156
 10
28.8819847485
 20
-5.7942398063
 10
28.8819847485
 20
-5.7942398063
 10
28.8810637081
 20
-5.8145026951
 10
28.8773795465
 20
-5.8292393414
 10
28.8773795465
 20
-5.8292393414
 10
28.8663270617
 20
-5.8587126341
 10
28.8525114558
 20
-5.8826596844
 10
28.8350116883
 20
-5.9001594519
 10
28.8147487995
 20
-5.9121329771
 10
28.8147487995
 20
-5.9121329771
 10
28.7815913453
 20
-5.9112119367
 10
28.7558022142
 20
-5.9075277751
 10
28.7355393255
 20
-5.9010804923
 10
28.7226447599
 20
-5.8927911287
 10
28.7226447599
 20
-5.8927911287
 10
27.0592458041
 20
-3.6721627332
 10
27.0592458041
 20
-3.6721627332
 10
26.6438565854
 20
-3.6721627332
 10
26.6438565854
 20
-3.6721627332
 10
26.6438565854
 20
-5.8089764527
 10
26.6438565854
 20
-5.8089764527
 10
26.6300409794
 20
-5.8568705533
 10
26.5978045655
 20
-5.8992384115
 10
26.5978045655
 20
-5.8992384115
 10
26.5812258384
 20
-5.9084488155
 10
26.5554367073
 20
-5.9121329771
 10
26.5554367073
 20
-5.9121329771
 10
26.5176740511
 20
-5.9047646539
 10
26.4900428392
 20
-5.8826596844
 10
26.4799113948
 20
-5.8642388765
 10
26.4725430716
 20
-5.8393707858
 10
26.4688589101
 20
-5.8071343719
 10
26.4670168293
 20
-5.7675296348
 10
26.4670168293
 20
-5.7675296348
 10
26.4670168293
 20
-1.1706170167
 10
26.4670168293
 20
-1.1706170167
 10
26.4762272332
 20
-1.1346964412
 10
26.4928059604
 20
-1.1079862697
 10
26.5139898895
 20
-1.0886444214
 10
26.5425421418
 20
-1.0785129771
 10
26.5425421418
 20
-1.0785129771
 10
26.58491
 20
-1.087723381
 10
26.6162253735
 20
-1.1162756333
 10
26.6281988986
 20
-1.1402226836
 10
26.6374093026
 20
-1.1761432591
 10
26.6420145046
 20
-1.2231163193
 10
26.6438565854
 20
-1.2820629047
 10
26.6438565854
 20
-1.2820629047
 10
26.6438565854
 20
-3.4363763917
 10
26.6438565854
 20
-3.4363763917
 10
27.0592458041
 20
-3.4363763917
 10
27.0592458041
 20
-3.4363763917
 10
28.7318551639
 20
-1.0987758658
 10
28.7318551639
 20
-1.0987758658
 10
28.753039093
 20
-1.083118179
 10
28.7760651029
 20
-1.0785129771
 10
28.7760651029
 20
-1.0785129771
 10
28.8138277591
 20
-1.0886444214
 10
28.8479062538
 20
-1.1181177141
  0
LWPOLYLINE
  5
B5
330
1F
100
AcDbEntity
  8
0
  6
Continuous
 62
     7
100
AcDbPolyline
 90
       85
 70
   128
 43
0.0
 10
31.5511524677
 20
-1.1171966737
 10
32.1166786204
 20
-1.9175807781
 10
32.1166786204
 20
-1.9175807781
 10
32.1240469436
 20
-1.94521199
 10
32.1258890244
 20
-1.9765273635
 10
32.1258890244
 20
-1.9765273635
 10
32.1240469436
 20
-1.9977112926
 10
32.1166786204
 20
-2.0216583429
 10
32.1166786204
 20
-2.0216583429
 10
32.1065471761
 20
-2.056657878
 10
32.0890474085
 20
-2.0833680495
 10
32.0641793178
 20
-2.1027098978
 10
32.0328639444
 20
-2.1128413422
 10
32.0328639444
 20
-2.1128413422
 10
31.9877329649
 20
-2.0925784534
 10
31.9536544703
 20
-2.0584999588
 10
31.9536544703
 20
-2.0584999588
 10
31.4507664139
 20
-1.3142993185
 10
31.4507664139
 20
-1.3142993185
 10
30.449595503
 20
-1.3142993185
 10
30.449595503
 20
-1.3142993185
 10
30.0121013148
 20
-1.9424488688
 10
30.0121013148
 20
-1.9424488688
 10
32.1120734184
 20
-4.9459616013
 10
32.1120734184
 20
-4.9459616013
 10
32.1222048628
 20
-4.970829692
 10
32.1258890244
 20
-5.0058292271
 10
32.1258890244
 20
-5.0058292271
 10
32.1258890244
 20
-5.0187237926
 10
32.1258890244
 20
-5.0325393986
 10
32.1258890244
 20
-5.0325393986
 10
32.1415467111
 20
-5.0417498025
 10
32.1470729535
 20
-5.0481970853
 10
32.1415467111
 20
-5.0546443681
 10
32.1258890244
 20
-5.0583285297
 10
32.1258890244
 20
-5.0583285297
 10
32.1028630145
 20
-5.0988543071
 10
32.1028630145
 20
-5.0988543071
 10
31.5364231707
 20
-5.9056856943
 10
31.5364231707
 20
-5.9056856943
 10
31.4894501105
 20
-5.9121329771
 10
31.4894501105
 20
-5.9121329771
 10
30.3713070694
 20
-5.9121329771
 10
30.3713070694
 20
-5.9121329771
 10
30.3436758575
 20
-5.8872648864
 10
30.3436758575
 20
-5.8872648864
 10
29.7772360137
 20
-5.1255644786
 10
29.7772360137
 20
-5.1255644786
 10
29.7707887309
 20
-5.0905649435
 10
29.7680256098
 20
-5.0629337316
 10
29.7680256098
 20
-5.0629337316
 10
29.7689466502
 20
-5.0371446005
 10
29.7726308117
 20
-5.019644833
 10
29.7726308117
 20
-5.019644833
 10
29.7873674581
 20
-4.9864873787
 10
29.8076303468
 20
-4.9606982476
 10
29.8324984375
 20
-4.9431984801
 10
29.863813811
 20
-4.9330670358
 10
29.863813811
 20
-4.9330670358
 10
29.90802375
 20
-4.9459616013
 10
29.9448653659
 20
-4.984645298
 10
29.9448653659
 20
-4.984645298
 10
30.4615690282
 20
-5.6763466356
 10
30.4615690282
 20
-5.6763466356
 10
31.4894501105
 20
-5.6763466356
 10
31.4894501105
 20
-5.6763466356
 10
31.9389178239
 20
-5.0481970853
 10
31.9389178239
 20
-5.0481970853
 10
29.7772360137
 20
-2.0511316356
 10
29.7772360137
 20
-2.0511316356
 10
29.7707887309
 20
-2.0244214641
 10
29.7680256098
 20
-1.9848167271
 10
29.7680256098
 20
-1.9848167271
 10
29.7689466502
 20
-1.9599486364
 10
29.7726308117
 20
-1.9387647072
 10
29.7726308117
 20
-1.9387647072
 10
29.7910516197
 20
-1.891791647
 10
29.7910516197
 20
-1.891791647
 10
30.361175625
 20
-1.0914075426
 10
30.361175625
 20
-1.0914075426
 10
30.3888068369
 20
-1.0785129771
 10
30.3888068369
 20
-1.0785129771
 10
31.5189234032
 20
-1.0849602598
 10
31.5189234032
 20
-1.0849602598
 10
31.5511598171
 20
-1.1171966737
  0
LWPOLYLINE
  5
B6
330
1F
100
AcDbEntity
  8
0
  6
Continuous
 62
     7
100
AcDbPolyline
 90
       64
 70
   128
 43
0.0
 10
38.7177467346
 20
-1.0840392194
 10
38.7435642721
 20
-1.0941706638
 10
38.7638271608
 20
-1.1116704313
 10
38.7776427668
 20
-1.1393016432
 10
38.7850110899
 20
-1.1743011783
 10
38.7850110899
 20
-1.1743011783
 10
38.7785638072
 20
-1.234168804
 10
38.7583009184
 20
-1.2783787431
 10
38.7408011509
 20
-1.2940364298
 10
38.7159330602
 20
-1.3050889146
 10
38.6818545655
 20
-1.3124572377
 10
38.6404077477
 20
-1.3142993185
 10
38.6404077477
 20
-1.3142993185
 10
36.5468829268
 20
-1.3142993185
 10
36.5468829268
 20
-1.3142993185
 10
36.5468829268
 20
-3.4363763917
 10
36.5468829268
 20
-3.4363763917
 10
37.5968689787
 20
-3.4363763917
 10
37.5968689787
 20
-3.4363763917
 10
37.6309474733
 20
-3.4538761592
 10
37.655815564
 20
-3.4778232095
 10
37.6705522104
 20
-3.5100596234
 10
37.6751574123
 20
-3.5487433201
 10
37.6751574123
 20
-3.5487433201
 10
37.6705522104
 20
-3.5911111783
 10
37.6576576448
 20
-3.6279527941
 10
37.6456841197
 20
-3.6426894405
 10
37.6272633117
 20
-3.655584006
 10
37.6005531402
 20
-3.66479441
 10
37.567395686
 20
-3.6721627332
 10
37.567395686
 20
-3.6721627332
 10
36.5468829268
 20
-3.6721627332
 10
36.5468829268
 20
-3.6721627332
 10
36.5468829268
 20
-5.6763466356
 10
36.5468829268
 20
-5.6763466356
 10
38.7030384947
 20
-5.6763466356
 10
38.7030384947
 20
-5.6763466356
 10
38.7389590701
 20
-5.6901622415
 10
38.7647482012
 20
-5.7141092919
 10
38.7794848476
 20
-5.7491088269
 10
38.7850110899
 20
-5.7942398063
 10
38.7850110899
 20
-5.7942398063
 10
38.7794848476
 20
-5.8338445434
 10
38.7629061204
 20
-5.8734492804
 10
38.7490905145
 20
-5.8900280076
 10
38.7306697066
 20
-5.9020015327
 10
38.7048805755
 20
-5.9093698559
 10
38.6744862424
 20
-5.9121329771
 10
38.6744862424
 20
-5.9121329771
 10
36.4326739177
 20
-5.9121329771
 10
36.4326739177
 20
-5.9121329771
 10
36.3930691806
 20
-5.877133442
 10
36.3700431707
 20
-5.8264762202
 10
36.3700431707
 20
-5.8264762202
 10
36.3700431707
 20
-5.6956884839
 10
36.3700431707
 20
-5.6956884839
 10
36.3700431707
 20
-1.1706170167
 10
36.3700431707
 20
-1.1706170167
 10
36.3810956555
 20
-1.1402226836
 10
36.3976743826
 20
-1.1144335525
 10
36.4216214329
 20
-1.0941706638
 10
36.4510947256
 20
-1.0785129771
 10
36.4510947256
 20
-1.0785129771
 10
38.717775141
 20
-1.0840392194
  0
LWPOLYLINE
  5
B7
330
1F
100
AcDbEntity
  8
0
  6
Continuous
 62
     7
100
AcDbPolyline
 90
       55
 70
   128
 43
0.0
 10
42.0620441437
 20
-1.1144335525
 10
42.0731253049
 20
-1.1383806028
 10
42.0814146684
 20
-1.1724590975
 10
42.0860198704
 20
-1.2185111173
 10
42.0878619512
 20
-1.2756156219
 10
42.0878619512
 20
-1.2756156219
 10
42.0878619512
 20
-5.8071343719
 10
42.0878619512
 20
-5.8071343719
 10
42.0777305069
 20
-5.8531863917
 10
42.0593096989
 20
-5.8854228056
 10
42.0335205678
 20
-5.9056856943
 10
41.9994420732
 20
-5.9121329771
 10
41.9994420732
 20
-5.9121329771
 10
41.9644425381
 20
-5.9038436135
 10
41.9358902858
 20
-5.8808176036
 10
41.9174694779
 20
-5.8384497454
 10
41.9110221951
 20
-5.7730558772
 10
41.9110221951
 20
-5.7730558772
 10
41.9110221951
 20
-4.6447813917
 10
41.9110221951
 20
-4.6447813917
 10
40.9384035366
 20
-5.9056856943
 10
40.9384035366
 20
-5.9056856943
 10
40.9043250419
 20
-5.9121329771
 10
40.9043250419
 20
-5.9121329771
 10
40.2955173399
 20
-5.9121329771
 10
40.2955173399
 20
-5.9121329771
 10
40.2660440473
 20
-5.886343846
 10
40.2660440473
 20
-5.886343846
 10
39.6756571532
 20
-5.08227558
 10
39.6756571532
 20
-5.08227558
 10
39.6710519512
 20
-5.0168817118
 10
39.6710519512
 20
-5.0168817118
 10
39.6710519512
 20
-3.4612444824
 10
39.6710519512
 20
-3.4612444824
 10
39.6903937995
 20
-3.4151924626
 10
39.6903937995
 20
-3.4151924626
 10
40.2853858956
 20
-2.6240187621
 10
40.2853858956
 20
-2.6240187621
 10
40.3342010366
 20
-2.6111241966
 10
40.3342010366
 20
-2.6111241966
 10
40.9144564863
 20
-2.6175714794
 10
40.9144564863
 20
-2.6175714794
 10
40.9531401829
 20
-2.6378343681
 10
40.9531401829
 20
-2.6378343681
 10
41.9110221951
 20
-3.953080054
 10
41.9110221951
 20
-3.953080054
 10
41.9110221951
 20
-1.1650907743
 10
41.9110221951
 20
-1.1650907743
 10
41.9229957203
 20
-1.1319333201
 10
41.9377323666
 20
-1.106144189
 10
41.9552321341
 20
-1.0886444214
 10
41.9754950229
 20
-1.0785129771
 10
41.9754950229
 20
-1.0785129771
 10
42.0279943255
 20
-1.087723381
 10
42.0620728201
 20
-1.1144335525
  0
LWPOLYLINE
  5
B8
330
1F
100
AcDbEntity
  8
0
  6
Continuous
 62
     7
100
AcDbPolyline
 90
       14
 70
   128
 43
0.0
 10
41.8373346329
 20
-4.2616285868
 10
40.8260366082
 20
-2.846910538
 10
40.8260366082
 20
-2.846910538
 10
40.3461745617
 20
-2.846910538
 10
40.3461745617
 20
-2.846910538
 10
39.8478917073
 20
-3.5340066737
 10
39.8478917073
 20
-3.5340066737
 10
39.8478917073
 20
-4.9828032172
 10
39.8478917073
 20
-4.9828032172
 10
40.3461745617
 20
-5.6763466356
 10
40.3461745617
 20
-5.6763466356
 10
40.8205103659
 20
-5.6763466356
 10
40.8205103659
 20
-5.6763466356
 10
41.8373389634
 20
-4.2616285868
  0
LWPOLYLINE
  5
B9
330
1F
100
AcDbEntity
  8
0
  6
Continuous
 62
     7
100
AcDbPolyline
 90
       64
 70
   128
 43
0.0
 10
43.1203246117
 20
-2.6479658124
 10
43.1332428011
 20
-2.6719128627
 10
43.1415321646
 20
-2.7059913574
 10
43.147058407
 20
-2.7529644176
 10
43.1489004878
 20
-2.8100689222
 10
43.1489004878
 20
-2.8100689222
 10
43.1489004878
 20
-4.9947767423
 10
43.1489004878
 20
-4.9947767423
 10
43.653630625
 20
-5.6763466356
 10
43.653630625
 20
-5.6763466356
 10
44.1390189139
 20
-5.6763466356
 10
44.1390189139
 20
-5.6763466356
 10
45.2120309756
 20
-4.220181769
 10
45.2120309756
 20
-4.220181769
 10
45.2120309756
 20
-2.7105965594
 10
45.2120309756
 20
-2.7105965594
 10
45.2212413796
 20
-2.6774391051
 10
45.2368990663
 20
-2.6488868528
 10
45.257161955
 20
-2.6277029237
 10
45.2838721265
 20
-2.6111241966
 10
45.2838721265
 20
-2.6111241966
 10
45.3225558232
 20
-2.6194135601
 10
45.364002641
 20
-2.6433606104
 10
45.364002641
 20
-2.6433606104
 10
45.3750551258
 20
-2.6682287012
 10
45.3824234489
 20
-2.7041492766
 10
45.3870286509
 20
-2.7502012964
 10
45.3888707317
 20
-2.807305801
 10
45.3888707317
 20
-2.807305801
 10
45.3888707317
 20
-5.8071343719
 10
45.3888707317
 20
-5.8071343719
 10
45.3787392873
 20
-5.8531863917
 10
45.3603184794
 20
-5.8854228056
 10
45.3345293483
 20
-5.9056856943
 10
45.3004508537
 20
-5.9121329771
 10
45.3004508537
 20
-5.9121329771
 10
45.2654513186
 20
-5.9038436135
 10
45.2368990663
 20
-5.8808176036
 10
45.2184782584
 20
-5.8384497454
 10
45.2120309756
 20
-5.7730558772
 10
45.2120309756
 20
-5.7730558772
 10
45.2120309756
 20
-4.6447813917
 10
45.2120309756
 20
-4.6447813917
 10
44.2394123171
 20
-5.9056856943
 10
44.2394123171
 20
-5.9056856943
 10
44.2053338224
 20
-5.9121329771
 10
44.2053338224
 20
-5.9121329771
 10
43.5965261204
 20
-5.9121329771
 10
43.5965261204
 20
-5.9121329771
 10
43.5670528277
 20
-5.886343846
 10
43.5670528277
 20
-5.886343846
 10
42.9821921761
 20
-5.08227558
 10
42.9821921761
 20
-5.08227558
 10
42.9720607317
 20
-5.0168817118
 10
42.9720607317
 20
-5.0168817118
 10
42.9720607317
 20
-2.695859913
 10
42.9720607317
 20
-2.695859913
 10
42.9812711357
 20
-2.6682287012
 10
42.996007782
 20
-2.6452026912
 10
43.0153496303
 20
-2.6258608429
 10
43.0411387614
 20
-2.6111241966
 10
43.0411387614
 20
-2.6111241966
 10
43.0871907813
 20
-2.6203346005
 10
43.1203482355
 20
-2.6479658124
  0
LWPOLYLINE
  5
BA
330
1F
100
AcDbEntity
  8
0
  6
Continuous
 62
     7
100
AcDbPolyline
 90
       54
 70
   128
 43
0.0
 10
48.6253798008
 20
-2.616650439
 10
48.6613272599
 20
-2.6415185297
 10
48.682511189
 20
-2.6838863879
 10
48.682511189
 20
-2.6838863879
 10
48.6788270274
 20
-2.7529644176
 10
48.6677745427
 20
-2.8017795586
 10
48.6677745427
 20
-2.8017795586
 10
48.6493537348
 20
-2.8211214069
 10
48.6263277248
 20
-2.8358580533
 10
48.598696513
 20
-2.8441474169
 10
48.5664600991
 20
-2.846910538
 10
48.5664600991
 20
-2.846910538
 10
46.9472710823
 20
-2.846910538
 10
46.9472710823
 20
-2.846910538
 10
46.4499092683
 20
-3.5395329161
 10
46.4499092683
 20
-3.5395329161
 10
46.4499092683
 20
-4.9837242576
 10
46.4499092683
 20
-4.9837242576
 10
46.9481921227
 20
-5.6763466356
 10
46.9481921227
 20
-5.6763466356
 10
48.6060648361
 20
-5.6763466356
 10
48.6060648361
 20
-5.6763466356
 10
48.6281698056
 20
-5.681872878
 10
48.6465906136
 20
-5.6947674435
 10
48.6622483003
 20
-5.7131882515
 10
48.6733007851
 20
-5.7380563422
 10
48.6733007851
 20
-5.7380563422
 10
48.6843532698
 20
-5.7666085944
 10
48.6880374314
 20
-5.7942398063
 10
48.6880374314
 20
-5.7942398063
 10
48.682511189
 20
-5.8338445434
 10
48.6659324619
 20
-5.8734492804
 10
48.6521168559
 20
-5.8900280076
 10
48.633696048
 20
-5.9020015327
 10
48.6079069169
 20
-5.9093698559
 10
48.5775125838
 20
-5.9121329771
 10
48.5775125838
 20
-5.9121329771
 10
46.8864824162
 20
-5.9121329771
 10
46.8864824162
 20
-5.9121329771
 10
46.8579301639
 20
-5.886343846
 10
46.8579301639
 20
-5.886343846
 10
46.2730695122
 20
-5.08227558
 10
46.2730695122
 20
-5.08227558
 10
46.2730695122
 20
-5.0168817118
 10
46.2730695122
 20
-5.0168817118
 10
46.2776747142
 20
-3.4612444824
 10
46.2776747142
 20
-3.4612444824
 10
46.2970165625
 20
-3.4151924626
 10
46.2970165625
 20
-3.4151924626
 10
46.8800351334
 20
-2.6240187621
 10
46.8800351334
 20
-2.6240187621
 10
46.9085873857
 20
-2.6111241966
 10
46.9085873857
 20
-2.6111241966
 10
48.6254066845
 20
-2.616650439
  0
LWPOLYLINE
  5
BB
330
1F
100
AcDbEntity
  8
0
  6
Continuous
 62
     7
100
AcDbPolyline
 90
       50
 70
   128
 43
0.0
 10
50.8193075657
 20
-2.6369133277
 10
51.3922120351
 20
-3.4409815937
 10
51.3922120351
 20
-3.4409815937
 10
51.401422439
 20
-3.4805863307
 10
51.401422439
 20
-3.4805863307
 10
51.401422439
 20
-4.9579351265
 10
51.401422439
 20
-4.9579351265
 10
51.9743095655
 20
-5.7095040899
 10
51.9743095655
 20
-5.7095040899
 10
51.9853620503
 20
-5.7564771501
 10
51.9890462119
 20
-5.7813452408
 10
51.9890462119
 20
-5.7813452408
 10
51.9881251715
 20
-5.8043712507
 10
51.9844410099
 20
-5.8209499778
 10
51.9844410099
 20
-5.8209499778
 10
51.9733885252
 20
-5.8531863917
 10
51.9595729192
 20
-5.8798965632
 10
51.9420731517
 20
-5.8992384115
 10
51.921810263
 20
-5.9121329771
 10
51.921810263
 20
-5.9121329771
 10
51.8895738491
 20
-5.9112119367
 10
51.863784718
 20
-5.9093698559
 10
51.8444428697
 20
-5.9056856943
 10
51.8315483041
 20
-5.9001594519
 10
51.8315483041
 20
-5.9001594519
 10
51.3341864901
 20
-5.282141346
 10
51.3341864901
 20
-5.282141346
 10
50.8266932317
 20
-5.9066067347
 10
50.8266932317
 20
-5.9066067347
 10
50.7935357774
 20
-5.9121329771
 10
50.7935357774
 20
-5.9121329771
 10
50.1911753582
 20
-5.9121329771
 10
50.1911753582
 20
-5.9121329771
 10
50.1626231059
 20
-5.886343846
 10
50.1626231059
 20
-5.886343846
 10
49.5786834947
 20
-5.08227558
 10
49.5786834947
 20
-5.08227558
 10
49.5740782927
 20
-5.0168817118
 10
49.5740782927
 20
-5.0168817118
 10
49.5740782927
 20
-3.4612444824
 10
49.5740782927
 20
-3.4612444824
 10
49.5924991006
 20
-3.4151924626
 10
49.5924991006
 20
-3.4151924626
 10
50.1709124695
 20
-2.6240187621
 10
50.1709124695
 20
-2.6240187621
 10
50.1985436814
 20
-2.6111241966
 10
50.1985436814
 20
-2.6111241966
 10
50.7815622523
 20
-2.6175714794
 10
50.7815622523
 20
-2.6175714794
 10
50.8193249085
 20
-2.6369133277
  0
LWPOLYLINE
  5
BC
330
1F
100
AcDbEntity
  8
0
  6
Continuous
 62
     7
100
AcDbPolyline
 90
       16
 70
   128
 43
0.0
 10
51.2245595455
 20
-3.5404539565
 10
50.7272208689
 20
-2.846910538
 10
50.7272208689
 20
-2.846910538
 10
50.2482798628
 20
-2.846910538
 10
50.2482798628
 20
-2.846910538
 10
49.7509180488
 20
-3.5340066737
 10
49.7509180488
 20
-3.5340066737
 10
49.7509180488
 20
-4.9828032172
 10
49.7509180488
 20
-4.9828032172
 10
50.2482798628
 20
-5.6763466356
 10
50.2482798628
 20
-5.6763466356
 10
50.7272208689
 20
-5.6763466356
 10
50.7272208689
 20
-5.6763466356
 10
51.2245826829
 20
-4.975434894
 10
51.2245826829
 20
-4.975434894
 10
51.2245826829
 20
-3.5404539565
  0
LWPOLYLINE
  5
BD
330
1F
100
AcDbEntity
  8
0
  6
Continuous
 62
     7
100
AcDbPolyline
 90
       83
 70
   128
 43
0.0
 10
54.1461110115
 20
-1.1162756333
 10
54.1571753049
 20
-1.141143724
 10
54.1654646684
 20
-1.1770642995
 10
54.1700698704
 20
-1.2249584001
 10
54.1719119512
 20
-1.2848260258
 10
54.1719119512
 20
-1.2848260258
 10
54.1719119512
 20
-2.6700707819
 10
54.1719119512
 20
-2.6700707819
 10
55.2228190434
 20
-2.6700707819
 10
55.2228190434
 20
-2.6700707819
 10
55.2486081745
 20
-2.6848074283
 10
55.2688710633
 20
-2.7059913574
 10
55.2826866692
 20
-2.7336225693
 10
55.2900549924
 20
-2.767701064
 10
55.2900549924
 20
-2.767701064
 10
55.2826866692
 20
-2.8174372454
 10
55.2605816997
 20
-2.8625682248
 10
55.2421608918
 20
-2.8819100731
 10
55.2163717607
 20
-2.8948046387
 10
55.182293266
 20
-2.9030940022
 10
55.1399254078
 20
-2.9058571234
 10
55.1399254078
 20
-2.9058571234
 10
54.1719119512
 20
-2.9058571234
 10
54.1719119512
 20
-2.9058571234
 10
54.1719119512
 20
-5.0251710754
 10
54.1719119512
 20
-5.0251710754
 10
54.6296690282
 20
-5.6588468681
 10
54.6296690282
 20
-5.6588468681
 10
55.1408464482
 20
-4.9533299245
 10
55.1408464482
 20
-4.9533299245
 10
55.1629514177
 20
-4.9376722377
 10
55.1887405488
 20
-4.9330670358
 10
55.1887405488
 20
-4.9330670358
 10
55.2228190434
 20
-4.9422774397
 10
55.2559764977
 20
-4.970829692
 10
55.2817656288
 20
-5.0141185906
 10
55.2900549924
 20
-5.0693810144
 10
55.2900549924
 20
-5.0693810144
 10
55.2808445884
 20
-5.131090721
 10
55.2808445884
 20
-5.131090721
 10
54.6922997752
 20
-5.9001594519
 10
54.6922997752
 20
-5.9001594519
 10
54.6720368864
 20
-5.9093698559
 10
54.6398004726
 20
-5.9121329771
 10
54.6398004726
 20
-5.9121329771
 10
54.6020378163
 20
-5.9121329771
 10
54.6020378163
 20
-5.9121329771
 10
54.568880362
 20
-5.8734492804
 10
54.568880362
 20
-5.8734492804
 10
53.9996773971
 20
-5.0878018223
 10
53.9996773971
 20
-5.0878018223
 10
53.9950721951
 20
-5.0224079542
 10
53.9950721951
 20
-5.0224079542
 10
53.9950721951
 20
-2.9058571234
 10
53.9950721951
 20
-2.9058571234
 10
52.9570596684
 20
-2.9058571234
 10
52.9570596684
 20
-2.9058571234
 10
52.9367967797
 20
-2.9012519214
 10
52.9183759718
 20
-2.8883573559
 10
52.9027182851
 20
-2.8662523864
 10
52.8898237195
 20
-2.8358580533
 10
52.8898237195
 20
-2.8358580533
 10
52.8787712348
 20
-2.7953322758
 10
52.8750870732
 20
-2.75849066
 10
52.8750870732
 20
-2.75849066
 10
52.8815343559
 20
-2.705070317
 10
52.9017972447
 20
-2.6571762164
 10
52.9202180526
 20
-2.6369133277
 10
52.9496913453
 20
-2.6221766813
 10
52.9892960823
 20
-2.6138873178
 10
53.0390322637
 20
-2.6111241966
 10
53.0390322637
 20
-2.6111241966
 10
53.9950721951
 20
-2.6111241966
 10
53.9950721951
 20
-2.6111241966
 10
53.9950721951
 20
-1.1715380571
 10
53.9950721951
 20
-1.1715380571
 10
54.0042825991
 20
-1.1356174816
 10
54.0190192454
 20
-1.1079862697
 10
54.0383610938
 20
-1.0895654618
 10
54.0641502248
 20
-1.0785129771
 10
54.0641502248
 20
-1.0785129771
 10
54.1129653659
 20
-1.087723381
 10
54.1461228201
 20
-1.1162756333
  0
LWPOLYLINE
  5
BE
330
1F
100
AcDbEntity
  8
0
  6
Continuous
 62
     7
100
AcDbPolyline
 90
       27
 70
   128
 43
0.0
 10
56.3271343708
 20
-1.1144335525
 10
56.3381989634
 20
-1.1374595624
 10
56.346488327
 20
-1.1724590975
 10
56.351093529
 20
-1.2175900769
 10
56.3529356098
 20
-1.2746945815
 10
56.3529356098
 20
-1.2746945815
 10
56.3529356098
 20
-2.0013954542
 10
56.3529356098
 20
-2.0013954542
 10
56.3363568826
 20
-2.0557368376
 10
56.3105677515
 20
-2.0870522111
 10
56.2847786204
 20
-2.1017888574
 10
56.2645157317
 20
-2.1063940594
 10
56.2645157317
 20
-2.1063940594
 10
56.2258320351
 20
-2.0990257362
 10
56.1982008232
 20
-2.0787628475
 10
56.181622096
 20
-2.0437633124
 10
56.1760958537
 20
-1.9949481714
 10
56.1760958537
 20
-1.9949481714
 10
56.1760958537
 20
-1.1706170167
 10
56.1760958537
 20
-1.1706170167
 10
56.1871483384
 20
-1.1346964412
 10
56.2028060252
 20
-1.1079862697
 10
56.2230689139
 20
-1.0886444214
 10
56.2479370046
 20
-1.0785129771
 10
56.2479370046
 20
-1.0785129771
 10
56.2949100648
 20
-1.087723381
 10
56.3271464787
 20
-1.1144335525
  0
LWPOLYLINE
  5
BF
330
1F
100
AcDbEntity
  8
0
  6
Continuous
 62
     7
100
AcDbPolyline
 90
       30
 70
   128
 43
0.0
 10
56.3252866268
 20
-2.647044772
 10
56.337277923
 20
-2.6700707819
 10
56.346488327
 20
-2.705070317
 10
56.351093529
 20
-2.7502012964
 10
56.3529356098
 20
-2.807305801
 10
56.3529356098
 20
-2.807305801
 10
56.3529356098
 20
-5.8071343719
 10
56.3529356098
 20
-5.8071343719
 10
56.3391200038
 20
-5.8559495129
 10
56.3068835899
 20
-5.8992384115
 10
56.3068835899
 20
-5.8992384115
 10
56.2903048628
 20
-5.9084488155
 10
56.2645157317
 20
-5.9121329771
 10
56.2645157317
 20
-5.9121329771
 10
56.2267530755
 20
-5.9047646539
 10
56.1991218636
 20
-5.8826596844
 10
56.1889904192
 20
-5.8642388765
 10
56.181622096
 20
-5.8393707858
 10
56.1779379345
 20
-5.8071343719
 10
56.1760958537
 20
-5.7684506752
 10
56.1760958537
 20
-5.7684506752
 10
56.1760958537
 20
-2.7087544786
 10
56.1760958537
 20
-2.7087544786
 10
56.1853062576
 20
-2.6755970243
 10
56.2009639444
 20
-2.6479658124
 10
56.2212268331
 20
-2.6267818833
 10
56.2479370046
 20
-2.6111241966
 10
56.2479370046
 20
-2.6111241966
 10
56.293067984
 20
-2.6203346005
 10
56.3253043979
 20
-2.647044772
  0
LWPOLYLINE
  5
C0
330
1F
100
AcDbEntity
  8
0
  6
Continuous
 62
     7
100
AcDbPolyline
 90
       32
 70
   128
 43
0.0
 10
59.1243207455
 20
-2.6433606104
 10
59.7036805716
 20
-3.4474288765
 10
59.7036805716
 20
-3.4474288765
 10
59.7128909756
 20
-3.5063754618
 10
59.7128909756
 20
-3.5063754618
 10
59.7128909756
 20
-5.0555654085
 10
59.7128909756
 20
-5.0555654085
 10
59.6935491273
 20
-5.1080647111
 10
59.6935491273
 20
-5.1080647111
 10
59.105004314
 20
-5.9056856943
 10
59.105004314
 20
-5.9056856943
 10
59.0571102134
 20
-5.9121329771
 10
59.0571102134
 20
-5.9121329771
 10
57.9131780412
 20
-5.9121329771
 10
57.9131780412
 20
-5.9121329771
 10
57.8846257889
 20
-5.886343846
 10
57.8846257889
 20
-5.886343846
 10
57.3006861776
 20
-5.08227558
 10
57.3006861776
 20
-5.08227558
 10
57.2960809756
 20
-5.0168817118
 10
57.2960809756
 20
-5.0168817118
 10
57.2960809756
 20
-3.4612444824
 10
57.2960809756
 20
-3.4612444824
 10
57.3154228239
 20
-3.4151924626
 10
57.3154228239
 20
-3.4151924626
 10
57.9039676372
 20
-2.6240187621
 10
57.9039676372
 20
-2.6240187621
 10
57.9325198895
 20
-2.6111241966
 10
57.9325198895
 20
-2.6111241966
 10
59.0911887081
 20
-2.6175714794
 10
59.0911887081
 20
-2.6175714794
 10
59.1243461623
 20
-2.6433606104
  0
LWPOLYLINE
  5
C1
330
1F
100
AcDbEntity
  8
0
  6
Continuous
 62
     7
100
AcDbPolyline
 90
       16
 70
   128
 43
0.0
 10
59.5360398293
 20
-3.5404539565
 10
59.0313210823
 20
-2.846910538
 10
59.0313210823
 20
-2.846910538
 10
57.9776508689
 20
-2.846910538
 10
57.9776508689
 20
-2.846910538
 10
57.4729207317
 20
-3.5340066737
 10
57.4729207317
 20
-3.5340066737
 10
57.4729207317
 20
-4.9828032172
 10
57.4729207317
 20
-4.9828032172
 10
57.9776508689
 20
-5.6763466356
 10
57.9776508689
 20
-5.6763466356
 10
59.0313210823
 20
-5.6763466356
 10
59.0313210823
 20
-5.6763466356
 10
59.5360512195
 20
-4.975434894
 10
59.5360512195
 20
-4.975434894
 10
59.5360512195
 20
-3.5404539565
  0
LWPOLYLINE
  5
C2
330
1F
100
AcDbEntity
  8
0
  6
Continuous
 62
     7
100
AcDbPolyline
 90
       61
 70
   128
 43
0.0
 10
62.4188780785
 20
-2.6433606104
 10
63.0037683117
 20
-3.4474288765
 10
63.0037683117
 20
-3.4474288765
 10
63.0138997561
 20
-3.5063754618
 10
63.0138997561
 20
-3.5063754618
 10
63.0138997561
 20
-5.8071343719
 10
63.0138997561
 20
-5.8071343719
 10
63.0037683117
 20
-5.8531863917
 10
62.9853475038
 20
-5.8854228056
 10
62.9595583727
 20
-5.9056856943
 10
62.925479878
 20
-5.9121329771
 10
62.925479878
 20
-5.9121329771
 10
62.890480343
 20
-5.9038436135
 10
62.8619280907
 20
-5.8789755228
 10
62.8435072828
 20
-5.8338445434
 10
62.83706
 20
-5.7666085944
 10
62.83706
 20
-5.7666085944
 10
62.83706
 20
-3.5358487545
 10
62.83706
 20
-3.5358487545
 10
62.3323298628
 20
-2.846910538
 10
62.3323298628
 20
-2.846910538
 10
61.8469415739
 20
-2.846910538
 10
61.8469415739
 20
-2.846910538
 10
60.7739295122
 20
-4.2966281219
 10
60.7739295122
 20
-4.2966281219
 10
60.7739295122
 20
-5.8062133315
 10
60.7739295122
 20
-5.8062133315
 10
60.7601139063
 20
-5.8559495129
 10
60.7278774924
 20
-5.8992384115
 10
60.7278774924
 20
-5.8992384115
 10
60.7112987652
 20
-5.9084488155
 10
60.6855096341
 20
-5.9121329771
 10
60.6855096341
 20
-5.9121329771
 10
60.6477469779
 20
-5.9047646539
 10
60.620115766
 20
-5.8826596844
 10
60.6099843216
 20
-5.8642388765
 10
60.6026159985
 20
-5.8393707858
 10
60.5989318369
 20
-5.8071343719
 10
60.5970897561
 20
-5.7684506752
 10
60.5970897561
 20
-5.7684506752
 10
60.5970897561
 20
-2.7032282362
 10
60.5970897561
 20
-2.7032282362
 10
60.6063001601
 20
-2.6673076608
 10
60.6228788872
 20
-2.6405974893
 10
60.6440628163
 20
-2.6212556409
 10
60.6726150686
 20
-2.6111241966
 10
60.6726150686
 20
-2.6111241966
 10
60.7122198056
 20
-2.6194135601
 10
60.7444562195
 20
-2.6452026912
 10
60.7573507851
 20
-2.6673076608
 10
60.766561189
 20
-2.7013861554
 10
60.7720874314
 20
-2.7474381752
 10
60.7739295122
 20
-2.8054637202
 10
60.7739295122
 20
-2.8054637202
 10
60.7739295122
 20
-3.9457117309
 10
60.7739295122
 20
-3.9457117309
 10
61.775100423
 20
-2.6111241966
 10
61.775100423
 20
-2.6111241966
 10
62.3848291654
 20
-2.6175714794
 10
62.3848291654
 20
-2.6175714794
 10
62.4189076601
 20
-2.6433606104
  0
LWPOLYLINE
  5
C3
330
1F
100
AcDbEntity
  8
0
  6
Continuous
 62
     7
100
AcDbPolyline
 90
       50
 70
   128
 43
0.0
 10
65.1432871819
 20
-2.6369133277
 10
65.716232279
 20
-3.4409815937
 10
65.716232279
 20
-3.4409815937
 10
65.7254426829
 20
-3.4805863307
 10
65.7254426829
 20
-3.4805863307
 10
65.7254426829
 20
-4.9579351265
 10
65.7254426829
 20
-4.9579351265
 10
66.2983298095
 20
-5.7095040899
 10
66.2983298095
 20
-5.7095040899
 10
66.3093822942
 20
-5.7564771501
 10
66.3130664558
 20
-5.7813452408
 10
66.3130664558
 20
-5.7813452408
 10
66.3121454154
 20
-5.8043712507
 10
66.3084612538
 20
-5.8209499778
 10
66.3084612538
 20
-5.8209499778
 10
66.2974087691
 20
-5.8531863917
 10
66.2835931631
 20
-5.8798965632
 10
66.2660933956
 20
-5.8992384115
 10
66.2458305069
 20
-5.9121329771
 10
66.2458305069
 20
-5.9121329771
 10
66.213594093
 20
-5.9112119367
 10
66.1878049619
 20
-5.9093698559
 10
66.1684631136
 20
-5.9056856943
 10
66.155568548
 20
-5.9001594519
 10
66.155568548
 20
-5.9001594519
 10
65.658206734
 20
-5.282141346
 10
65.658206734
 20
-5.282141346
 10
65.1507134756
 20
-5.9066067347
 10
65.1507134756
 20
-5.9066067347
 10
65.1175560213
 20
-5.9121329771
 10
65.1175560213
 20
-5.9121329771
 10
64.5151956021
 20
-5.9121329771
 10
64.5151956021
 20
-5.9121329771
 10
64.4866433498
 20
-5.886343846
 10
64.4866433498
 20
-5.886343846
 10
63.9027037386
 20
-5.08227558
 10
63.9027037386
 20
-5.08227558
 10
63.8980985366
 20
-5.0168817118
 10
63.8980985366
 20
-5.0168817118
 10
63.8980985366
 20
-3.4612444824
 10
63.8980985366
 20
-3.4612444824
 10
63.9165193445
 20
-3.4151924626
 10
63.9165193445
 20
-3.4151924626
 10
64.4949327134
 20
-2.6240187621
 10
64.4949327134
 20
-2.6240187621
 10
64.5225639253
 20
-2.6111241966
 10
64.5225639253
 20
-2.6111241966
 10
65.1055824962
 20
-2.6175714794
 10
65.1055824962
 20
-2.6175714794
 10
65.1433451524
 20
-2.6369133277
  0
LWPOLYLINE
  5
C4
330
1F
100
AcDbEntity
  8
0
  6
Continuous
 62
     7
100
AcDbPolyline
 90
       16
 70
   128
 43
0.0
 10
65.5485987663
 20
-3.5404539565
 10
65.0512411128
 20
-2.846910538
 10
65.0512411128
 20
-2.846910538
 10
64.5723001067
 20
-2.846910538
 10
64.5723001067
 20
-2.846910538
 10
64.0749382927
 20
-3.5340066737
 10
64.0749382927
 20
-3.5340066737
 10
64.0749382927
 20
-4.9828032172
 10
64.0749382927
 20
-4.9828032172
 10
64.5723001067
 20
-5.6763466356
 10
64.5723001067
 20
-5.6763466356
 10
65.0512411128
 20
-5.6763466356
 10
65.0512411128
 20
-5.6763466356
 10
65.5486029268
 20
-4.975434894
 10
65.5486029268
 20
-4.975434894
 10
65.5486029268
 20
-3.5404539565
  0
LWPOLYLINE
  5
C5
330
1F
100
AcDbEntity
  8
0
  6
Continuous
 62
     7
100
AcDbPolyline
 90
       33
 70
   128
 43
0.0
 10
67.3501491547
 20
-1.1144335525
 10
67.3612104268
 20
-1.1383806028
 10
67.3694997904
 20
-1.1724590975
 10
67.3741049924
 20
-1.2185111173
 10
67.3759470732
 20
-1.2756156219
 10
67.3759470732
 20
-1.2756156219
 10
67.3759470732
 20
-4.9597772072
 10
67.3759470732
 20
-4.9597772072
 10
67.9396237957
 20
-5.7085830495
 10
67.9396237957
 20
-5.7085830495
 10
67.9506762805
 20
-5.7417405037
 10
67.9543604421
 20
-5.7739769176
 10
67.9543604421
 20
-5.7739769176
 10
67.9479131593
 20
-5.823713099
 10
67.9276502706
 20
-5.8697651188
 10
67.8954138567
 20
-5.9010804923
 10
67.8493618369
 20
-5.9121329771
 10
67.8493618369
 20
-5.9121329771
 10
67.8060729383
 20
-5.9056856943
 10
67.8060729383
 20
-5.9056856943
 10
67.2138439634
 20
-5.0914859839
 10
67.2138439634
 20
-5.0914859839
 10
67.1991073171
 20
-5.0389866813
 10
67.1991073171
 20
-5.0389866813
 10
67.1991073171
 20
-1.1706170167
 10
67.1991073171
 20
-1.1706170167
 10
67.2101598018
 20
-1.1346964412
 10
67.2258174886
 20
-1.1079862697
 10
67.2460803773
 20
-1.0886444214
 10
67.270948468
 20
-1.0785129771
 10
67.270948468
 20
-1.0785129771
 10
67.3179215282
 20
-1.087723381
 10
67.3501579421
 20
-1.1144335525
  0
LWPOLYLINE
  5
C6
330
1F
100
AcDbEntity
  8
0
  6
Continuous
 62
     7
100
AcDbPolyline
 90
       43
 70
   128
 43
0.0
 10
73.9788413048
 20
-1.1181177141
 10
74.5582200838
 20
-1.9295543033
 10
74.5582200838
 20
-1.9295543033
 10
74.5674304878
 20
-1.989421929
 10
74.5674304878
 20
-1.989421929
 10
74.5674304878
 20
-2.7944112354
 10
74.5674304878
 20
-2.7944112354
 10
74.5572990434
 20
-2.8404632553
 10
74.5572990434
 20
-2.8404632553
 10
73.956780705
 20
-3.6518998444
 10
73.956780705
 20
-3.6518998444
 10
73.912570766
 20
-3.6721627332
 10
73.912570766
 20
-3.6721627332
 10
72.3274602439
 20
-3.6721627332
 10
72.3274602439
 20
-3.6721627332
 10
72.3274602439
 20
-5.8025291699
 10
72.3274602439
 20
-5.8025291699
 10
72.3118025572
 20
-5.8559495129
 10
72.2814082241
 20
-5.8992384115
 10
72.2814082241
 20
-5.8992384115
 10
72.264829497
 20
-5.9084488155
 10
72.2390403659
 20
-5.9121329771
 10
72.2390403659
 20
-5.9121329771
 10
72.2012777096
 20
-5.9047646539
 10
72.1736464977
 20
-5.8826596844
 10
72.1635150534
 20
-5.8642388765
 10
72.1561467302
 20
-5.8393707858
 10
72.1524625686
 20
-5.8071343719
 10
72.1506204878
 20
-5.7675296348
 10
72.1506204878
 20
-5.7675296348
 10
72.1506204878
 20
-1.1770642995
 10
72.1506204878
 20
-1.1770642995
 10
72.1598308918
 20
-1.1475910068
 10
72.1736464977
 20
-1.1227229161
 10
72.1911462652
 20
-1.1043021082
 10
72.2132512348
 20
-1.0914075426
 10
72.2132512348
 20
-1.0914075426
 10
72.313644638
 20
-1.0849602598
 10
72.313644638
 20
-1.0849602598
 10
73.9024393216
 20
-1.0785129771
 10
73.9024393216
 20
-1.0785129771
 10
73.9475703011
 20
-1.0886444214
 10
73.9788856745
 20
-1.1181177141
  0
LWPOLYLINE
  5
C7
330
1F
100
AcDbEntity
  8
0
  6
Continuous
 62
     7
100
AcDbPolyline
 90
       12
 70
   128
 43
0.0
 10
74.3905901909
 20
-2.0336318681
 10
73.8858605945
 20
-1.3142993185
 10
73.8858605945
 20
-1.3142993185
 10
72.3274602439
 20
-1.3142993185
 10
72.3274602439
 20
-1.3142993185
 10
72.3274602439
 20
-3.4363763917
 10
72.3274602439
 20
-3.4363763917
 10
73.8812553925
 20
-3.4363763917
 10
73.8812553925
 20
-3.4363763917
 10
74.3905907317
 20
-2.7170438422
 10
74.3905907317
 20
-2.7170438422
 10
74.3905907317
 20
-2.0336318681
  0
LWPOLYLINE
  5
C8
330
1F
100
AcDbEntity
  8
0
  6
Continuous
 62
     7
100
AcDbPolyline
 90
       59
 70
   128
 43
0.0
 10
77.2715806961
 20
-2.6442816508
 10
77.8573867835
 20
-3.4640076036
 10
77.8573867835
 20
-3.4640076036
 10
77.8647551067
 20
-3.4990071387
 10
77.8665971875
 20
-3.5238752294
 10
77.8665971875
 20
-3.5238752294
 10
77.8656761471
 20
-3.5524274816
 10
77.8619919855
 20
-3.5708482896
 10
77.8619919855
 20
-3.5708482896
 10
77.8472553392
 20
-3.606768865
 10
77.8269924505
 20
-3.6344000769
 10
77.8012033194
 20
-3.6528208848
 10
77.7698879459
 20
-3.6638733696
 10
77.7698879459
 20
-3.6638733696
 10
77.7256780069
 20
-3.650978804
 10
77.6879153506
 20
-3.6141371882
 10
77.6879153506
 20
-3.6141371882
 10
77.1656854459
 20
-2.846910538
 10
77.1656854459
 20
-2.846910538
 10
76.6867444398
 20
-2.846910538
 10
76.6867444398
 20
-2.846910538
 10
75.6284690244
 20
-4.2966281219
 10
75.6284690244
 20
-4.2966281219
 10
75.6284690244
 20
-5.8062133315
 10
75.6284690244
 20
-5.8062133315
 10
75.6146534184
 20
-5.8559495129
 10
75.5824170046
 20
-5.8992384115
 10
75.5824170046
 20
-5.8992384115
 10
75.5658382774
 20
-5.9084488155
 10
75.5400491463
 20
-5.9121329771
 10
75.5400491463
 20
-5.9121329771
 10
75.5022864901
 20
-5.9047646539
 10
75.4746552782
 20
-5.8826596844
 10
75.4645238338
 20
-5.8642388765
 10
75.4571555107
 20
-5.8393707858
 10
75.4534713491
 20
-5.8071343719
 10
75.4516292683
 20
-5.7684506752
 10
75.4516292683
 20
-5.7684506752
 10
75.4516292683
 20
-2.7032282362
 10
75.4516292683
 20
-2.7032282362
 10
75.4608396723
 20
-2.6673076608
 10
75.4774183994
 20
-2.6405974893
 10
75.4986023285
 20
-2.6212556409
 10
75.5271545808
 20
-2.6111241966
 10
75.5271545808
 20
-2.6111241966
 10
75.5667593178
 20
-2.6194135601
 10
75.5989957317
 20
-2.6452026912
 10
75.6118902973
 20
-2.6673076608
 10
75.6211007012
 20
-2.7013861554
 10
75.6266269436
 20
-2.7474381752
 10
75.6284690244
 20
-2.8054637202
 10
75.6284690244
 20
-2.8054637202
 10
75.6284690244
 20
-3.9457117309
 10
75.6284690244
 20
-3.9457117309
 10
76.6287188948
 20
-2.6111241966
 10
76.6287188948
 20
-2.6111241966
 10
77.2384476372
 20
-2.6175714794
 10
77.2384476372
 20
-2.6175714794
 10
77.2716050915
 20
-2.6442816508
  0
LWPOLYLINE
  5
C9
330
1F
100
AcDbEntity
  8
0
  6
Continuous
 62
     7
100
AcDbPolyline
 90
       32
 70
   128
 43
0.0
 10
80.5808901787
 20
-2.6433606104
 10
81.1602376448
 20
-3.4474288765
 10
81.1602376448
 20
-3.4474288765
 10
81.1694480488
 20
-3.5063754618
 10
81.1694480488
 20
-3.5063754618
 10
81.1694480488
 20
-5.0555654085
 10
81.1694480488
 20
-5.0555654085
 10
81.1501062005
 20
-5.1080647111
 10
81.1501062005
 20
-5.1080647111
 10
80.5615613872
 20
-5.9056856943
 10
80.5615613872
 20
-5.9056856943
 10
80.5136672866
 20
-5.9121329771
 10
80.5136672866
 20
-5.9121329771
 10
79.3697351143
 20
-5.9121329771
 10
79.3697351143
 20
-5.9121329771
 10
79.341182862
 20
-5.886343846
 10
79.341182862
 20
-5.886343846
 10
78.7572432508
 20
-5.08227558
 10
78.7572432508
 20
-5.08227558
 10
78.7526380488
 20
-5.0168817118
 10
78.7526380488
 20
-5.0168817118
 10
78.7526380488
 20
-3.4612444824
 10
78.7526380488
 20
-3.4612444824
 10
78.7719798971
 20
-3.4151924626
 10
78.7719798971
 20
-3.4151924626
 10
79.3605247104
 20
-2.6240187621
 10
79.3605247104
 20
-2.6240187621
 10
79.3890769627
 20
-2.6111241966
 10
79.3890769627
 20
-2.6111241966
 10
80.5477457813
 20
-2.6175714794
 10
80.5477457813
 20
-2.6175714794
 10
80.5809032355
 20
-2.6433606104
  0
LWPOLYLINE
  5
CA
330
1F
100
AcDbEntity
  8
0
  6
Continuous
 62
     7
100
AcDbPolyline
 90
       16
 70
   128
 43
0.0
 10
80.9925794601
 20
-3.5404539565
 10
80.4878781555
 20
-2.846910538
 10
80.4878781555
 20
-2.846910538
 10
79.4342079421
 20
-2.846910538
 10
79.4342079421
 20
-2.846910538
 10
78.9294778049
 20
-3.5340066737
 10
78.9294778049
 20
-3.5340066737
 10
78.9294778049
 20
-4.9828032172
 10
78.9294778049
 20
-4.9828032172
 10
79.4342079421
 20
-5.6763466356
 10
79.4342079421
 20
-5.6763466356
 10
80.4878781555
 20
-5.6763466356
 10
80.4878781555
 20
-5.6763466356
 10
80.9926082927
 20
-4.975434894
 10
80.9926082927
 20
-4.975434894
 10
80.9926082927
 20
-3.5404539565
  0
LWPOLYLINE
  5
CB
330
1F
100
AcDbEntity
  8
0
  6
Continuous
 62
     7
100
AcDbPolyline
 90
       55
 70
   128
 43
0.0
 10
84.444642067
 20
-1.1144335525
 10
84.4557201829
 20
-1.1383806028
 10
84.4640095465
 20
-1.1724590975
 10
84.4686147485
 20
-1.2185111173
 10
84.4704568293
 20
-1.2756156219
 10
84.4704568293
 20
-1.2756156219
 10
84.4704568293
 20
-5.8071343719
 10
84.4704568293
 20
-5.8071343719
 10
84.4603253849
 20
-5.8531863917
 10
84.441904577
 20
-5.8854228056
 10
84.4161154459
 20
-5.9056856943
 10
84.3820369512
 20
-5.9121329771
 10
84.3820369512
 20
-5.9121329771
 10
84.3470374162
 20
-5.9038436135
 10
84.3184851639
 20
-5.8808176036
 10
84.3000643559
 20
-5.8384497454
 10
84.2936170732
 20
-5.7730558772
 10
84.2936170732
 20
-5.7730558772
 10
84.2936170732
 20
-4.6447813917
 10
84.2936170732
 20
-4.6447813917
 10
83.3209984146
 20
-5.9056856943
 10
83.3209984146
 20
-5.9056856943
 10
83.28691992
 20
-5.9121329771
 10
83.28691992
 20
-5.9121329771
 10
82.678112218
 20
-5.9121329771
 10
82.678112218
 20
-5.9121329771
 10
82.6486389253
 20
-5.886343846
 10
82.6486389253
 20
-5.886343846
 10
82.0582520313
 20
-5.08227558
 10
82.0582520313
 20
-5.08227558
 10
82.0536468293
 20
-5.0168817118
 10
82.0536468293
 20
-5.0168817118
 10
82.0536468293
 20
-3.4612444824
 10
82.0536468293
 20
-3.4612444824
 10
82.0729886776
 20
-3.4151924626
 10
82.0729886776
 20
-3.4151924626
 10
82.6679807736
 20
-2.6240187621
 10
82.6679807736
 20
-2.6240187621
 10
82.7167959146
 20
-2.6111241966
 10
82.7167959146
 20
-2.6111241966
 10
83.2970513643
 20
-2.6175714794
 10
83.2970513643
 20
-2.6175714794
 10
83.335735061
 20
-2.6378343681
 10
83.335735061
 20
-2.6378343681
 10
84.2936170732
 20
-3.953080054
 10
84.2936170732
 20
-3.953080054
 10
84.2936170732
 20
-1.1650907743
 10
84.2936170732
 20
-1.1650907743
 10
84.3055905983
 20
-1.1319333201
 10
84.3203272447
 20
-1.106144189
 10
84.3378270122
 20
-1.0886444214
 10
84.3580899009
 20
-1.0785129771
 10
84.3580899009
 20
-1.0785129771
 10
84.4105892035
 20
-1.087723381
 10
84.4446676982
 20
-1.1144335525
  0
LWPOLYLINE
  5
CC
330
1F
100
AcDbEntity
  8
0
  6
Continuous
 62
     7
100
AcDbPolyline
 90
       14
 70
   128
 43
0.0
 10
84.2199325562
 20
-4.2616285868
 10
83.2086314863
 20
-2.846910538
 10
83.2086314863
 20
-2.846910538
 10
82.7287694398
 20
-2.846910538
 10
82.7287694398
 20
-2.846910538
 10
82.2304865854
 20
-3.5340066737
 10
82.2304865854
 20
-3.5340066737
 10
82.2304865854
 20
-4.9828032172
 10
82.2304865854
 20
-4.9828032172
 10
82.7287694398
 20
-5.6763466356
 10
82.7287694398
 20
-5.6763466356
 10
83.2031052439
 20
-5.6763466356
 10
83.2031052439
 20
-5.6763466356
 10
84.2199338415
 20
-4.2616285868
  0
LWPOLYLINE
  5
CD
330
1F
100
AcDbEntity
  8
0
  6
Continuous
 62
     7
100
AcDbPolyline
 90
       64
 70
   128
 43
0.0
 10
85.5029225349
 20
-2.6479658124
 10
85.5158376791
 20
-2.6719128627
 10
85.5241270427
 20
-2.7059913574
 10
85.5296532851
 20
-2.7529644176
 10
85.5314953659
 20
-2.8100689222
 10
85.5314953659
 20
-2.8100689222
 10
85.5314953659
 20
-4.9947767423
 10
85.5314953659
 20
-4.9947767423
 10
86.036225503
 20
-5.6763466356
 10
86.036225503
 20
-5.6763466356
 10
86.5216137919
 20
-5.6763466356
 10
86.5216137919
 20
-5.6763466356
 10
87.5946258537
 20
-4.220181769
 10
87.5946258537
 20
-4.220181769
 10
87.5946258537
 20
-2.7105965594
 10
87.5946258537
 20
-2.7105965594
 10
87.6038362576
 20
-2.6774391051
 10
87.6194939444
 20
-2.6488868528
 10
87.6397568331
 20
-2.6277029237
 10
87.6664670046
 20
-2.6111241966
 10
87.6664670046
 20
-2.6111241966
 10
87.7051507012
 20
-2.6194135601
 10
87.7465975191
 20
-2.6433606104
 10
87.7465975191
 20
-2.6433606104
 10
87.7576500038
 20
-2.6682287012
 10
87.765018327
 20
-2.7041492766
 10
87.769623529
 20
-2.7502012964
 10
87.7714656098
 20
-2.807305801
 10
87.7714656098
 20
-2.807305801
 10
87.7714656098
 20
-5.8071343719
 10
87.7714656098
 20
-5.8071343719
 10
87.7613341654
 20
-5.8531863917
 10
87.7429133575
 20
-5.8854228056
 10
87.7171242264
 20
-5.9056856943
 10
87.6830457317
 20
-5.9121329771
 10
87.6830457317
 20
-5.9121329771
 10
87.6480461966
 20
-5.9038436135
 10
87.6194939444
 20
-5.8808176036
 10
87.6010731364
 20
-5.8384497454
 10
87.5946258537
 20
-5.7730558772
 10
87.5946258537
 20
-5.7730558772
 10
87.5946258537
 20
-4.6447813917
 10
87.5946258537
 20
-4.6447813917
 10
86.6220071951
 20
-5.9056856943
 10
86.6220071951
 20
-5.9056856943
 10
86.5879287005
 20
-5.9121329771
 10
86.5879287005
 20
-5.9121329771
 10
85.9791209985
 20
-5.9121329771
 10
85.9791209985
 20
-5.9121329771
 10
85.9496477058
 20
-5.886343846
 10
85.9496477058
 20
-5.886343846
 10
85.3647870541
 20
-5.08227558
 10
85.3647870541
 20
-5.08227558
 10
85.3546556098
 20
-5.0168817118
 10
85.3546556098
 20
-5.0168817118
 10
85.3546556098
 20
-2.695859913
 10
85.3546556098
 20
-2.695859913
 10
85.3638660137
 20
-2.6682287012
 10
85.3786026601
 20
-2.6452026912
 10
85.3979445084
 20
-2.6258608429
 10
85.4237336395
 20
-2.6111241966
 10
85.4237336395
 20
-2.6111241966
 10
85.4697856593
 20
-2.6203346005
 10
85.5029431136
 20
-2.6479658124
  0
LWPOLYLINE
  5
CE
330
1F
100
AcDbEntity
  8
0
  6
Continuous
 62
     7
100
AcDbPolyline
 90
       54
 70
   128
 43
0.0
 10
91.0079479218
 20
-2.616650439
 10
91.043922138
 20
-2.6415185297
 10
91.0651060671
 20
-2.6838863879
 10
91.0651060671
 20
-2.6838863879
 10
91.0614219055
 20
-2.7529644176
 10
91.0503694207
 20
-2.8017795586
 10
91.0503694207
 20
-2.8017795586
 10
91.0319486128
 20
-2.8211214069
 10
91.0089226029
 20
-2.8358580533
 10
90.981291391
 20
-2.8441474169
 10
90.9490549771
 20
-2.846910538
 10
90.9490549771
 20
-2.846910538
 10
89.3298659604
 20
-2.846910538
 10
89.3298659604
 20
-2.846910538
 10
88.8325041463
 20
-3.5395329161
 10
88.8325041463
 20
-3.5395329161
 10
88.8325041463
 20
-4.9837242576
 10
88.8325041463
 20
-4.9837242576
 10
89.3307870008
 20
-5.6763466356
 10
89.3307870008
 20
-5.6763466356
 10
90.9886597142
 20
-5.6763466356
 10
90.9886597142
 20
-5.6763466356
 10
91.0107646837
 20
-5.681872878
 10
91.0291854916
 20
-5.6947674435
 10
91.0448431784
 20
-5.7131882515
 10
91.0558956631
 20
-5.7380563422
 10
91.0558956631
 20
-5.7380563422
 10
91.0669481479
 20
-5.7666085944
 10
91.0706323095
 20
-5.7942398063
 10
91.0706323095
 20
-5.7942398063
 10
91.0651060671
 20
-5.8338445434
 10
91.0485273399
 20
-5.8734492804
 10
91.034711734
 20
-5.8900280076
 10
91.0162909261
 20
-5.9020015327
 10
90.990501795
 20
-5.9093698559
 10
90.9601074619
 20
-5.9121329771
 10
90.9601074619
 20
-5.9121329771
 10
89.2690772942
 20
-5.9121329771
 10
89.2690772942
 20
-5.9121329771
 10
89.2405250419
 20
-5.886343846
 10
89.2405250419
 20
-5.886343846
 10
88.6556643902
 20
-5.08227558
 10
88.6556643902
 20
-5.08227558
 10
88.6556643902
 20
-5.0168817118
 10
88.6556643902
 20
-5.0168817118
 10
88.6602695922
 20
-3.4612444824
 10
88.6602695922
 20
-3.4612444824
 10
88.6796114405
 20
-3.4151924626
 10
88.6796114405
 20
-3.4151924626
 10
89.2626300114
 20
-2.6240187621
 10
89.2626300114
 20
-2.6240187621
 10
89.2911822637
 20
-2.6111241966
 10
89.2911822637
 20
-2.6111241966
 10
91.0080015625
 20
-2.616650439
  0
LWPOLYLINE
  5
CF
330
1F
100
AcDbEntity
  8
0
  6
Continuous
 62
     7
100
AcDbPolyline
 90
       83
 70
   128
 43
0.0
 10
93.2276844978
 20
-1.1162756333
 10
93.2387614024
 20
-1.141143724
 10
93.247050766
 20
-1.1770642995
 10
93.251655968
 20
-1.2249584001
 10
93.2534980488
 20
-1.2848260258
 10
93.2534980488
 20
-1.2848260258
 10
93.2534980488
 20
-2.6700707819
 10
93.2534980488
 20
-2.6700707819
 10
94.304405141
 20
-2.6700707819
 10
94.304405141
 20
-2.6700707819
 10
94.3301942721
 20
-2.6848074283
 10
94.3504571608
 20
-2.7059913574
 10
94.3642727668
 20
-2.7336225693
 10
94.3716410899
 20
-2.767701064
 10
94.3716410899
 20
-2.767701064
 10
94.3642727668
 20
-2.8174372454
 10
94.3421677973
 20
-2.8625682248
 10
94.3237469893
 20
-2.8819100731
 10
94.2979578582
 20
-2.8948046387
 10
94.2638793636
 20
-2.9030940022
 10
94.2215115053
 20
-2.9058571234
 10
94.2215115053
 20
-2.9058571234
 10
93.2534980488
 20
-2.9058571234
 10
93.2534980488
 20
-2.9058571234
 10
93.2534980488
 20
-5.0251710754
 10
93.2534980488
 20
-5.0251710754
 10
93.7112551258
 20
-5.6588468681
 10
93.7112551258
 20
-5.6588468681
 10
94.2224325457
 20
-4.9533299245
 10
94.2224325457
 20
-4.9533299245
 10
94.2445375152
 20
-4.9376722377
 10
94.2703266463
 20
-4.9330670358
 10
94.2703266463
 20
-4.9330670358
 10
94.304405141
 20
-4.9422774397
 10
94.3375625953
 20
-4.970829692
 10
94.3633517264
 20
-5.0141185906
 10
94.3716410899
 20
-5.0693810144
 10
94.3716410899
 20
-5.0693810144
 10
94.362430686
 20
-5.131090721
 10
94.362430686
 20
-5.131090721
 10
93.7738858727
 20
-5.9001594519
 10
93.7738858727
 20
-5.9001594519
 10
93.753622984
 20
-5.9093698559
 10
93.7213865701
 20
-5.9121329771
 10
93.7213865701
 20
-5.9121329771
 10
93.6836239139
 20
-5.9121329771
 10
93.6836239139
 20
-5.9121329771
 10
93.6504664596
 20
-5.8734492804
 10
93.6504664596
 20
-5.8734492804
 10
93.0812634947
 20
-5.0878018223
 10
93.0812634947
 20
-5.0878018223
 10
93.0766582927
 20
-5.0224079542
 10
93.0766582927
 20
-5.0224079542
 10
93.0766582927
 20
-2.9058571234
 10
93.0766582927
 20
-2.9058571234
 10
92.038645766
 20
-2.9058571234
 10
92.038645766
 20
-2.9058571234
 10
92.0183828773
 20
-2.9012519214
 10
91.9999620694
 20
-2.8883573559
 10
91.9843043826
 20
-2.8662523864
 10
91.9714098171
 20
-2.8358580533
 10
91.9714098171
 20
-2.8358580533
 10
91.9603573323
 20
-2.7953322758
 10
91.9566731707
 20
-2.75849066
 10
91.9566731707
 20
-2.75849066
 10
91.9631204535
 20
-2.705070317
 10
91.9833833422
 20
-2.6571762164
 10
92.0018041502
 20
-2.6369133277
 10
92.0312774428
 20
-2.6221766813
 10
92.0708821799
 20
-2.6138873178
 10
92.1206183613
 20
-2.6111241966
 10
92.1206183613
 20
-2.6111241966
 10
93.0766582927
 20
-2.6111241966
 10
93.0766582927
 20
-2.6111241966
 10
93.0766582927
 20
-1.1715380571
 10
93.0766582927
 20
-1.1715380571
 10
93.0858686966
 20
-1.1356174816
 10
93.100605343
 20
-1.1079862697
 10
93.1199471913
 20
-1.0895654618
 10
93.1457363224
 20
-1.0785129771
 10
93.1457363224
 20
-1.0785129771
 10
93.1945514634
 20
-1.087723381
 10
93.2277089177
 20
-1.1162756333
  0
LWPOLYLINE
  5
D0
330
1F
100
AcDbEntity
  8
0
  6
Continuous
 62
     7
100
AcDbPolyline
 90
       30
 70
   128
 43
0.0
 10
95.4086780548
 20
-4.9450405609
 10
95.419785061
 20
-4.9680665708
 10
95.4280744245
 20
-5.0012240251
 10
95.4326796265
 20
-5.0463550045
 10
95.4345217073
 20
-5.1016174283
 10
95.4345217073
 20
-5.1016174283
 10
95.4345217073
 20
-5.8098974931
 10
95.4345217073
 20
-5.8098974931
 10
95.4207061014
 20
-5.8577915937
 10
95.3884696875
 20
-5.8992384115
 10
95.3884696875
 20
-5.8992384115
 10
95.3718909604
 20
-5.9084488155
 10
95.3461018293
 20
-5.9121329771
 10
95.3461018293
 20
-5.9121329771
 10
95.308339173
 20
-5.9047646539
 10
95.2807079611
 20
-5.8835807248
 10
95.2705765168
 20
-5.8660809572
 10
95.2632081936
 20
-5.8412128665
 10
95.259524032
 20
-5.8098974931
 10
95.2576819512
 20
-5.7721348368
 10
95.2576819512
 20
-5.7721348368
 10
95.2576819512
 20
-4.9993819443
 10
95.2576819512
 20
-4.9993819443
 10
95.268734436
 20
-4.9606982476
 10
95.2853131631
 20
-4.9321459954
 10
95.3064970922
 20
-4.9155672682
 10
95.3332072637
 20
-4.9100410258
 10
95.3332072637
 20
-4.9100410258
 10
95.3774172027
 20
-4.9183303894
 10
95.4087325762
 20
-4.9450405609
  0
LWPOLYLINE
  5
D1
330
1F
100
AcDbEntity
  8
0
  6
Continuous
 62
     7
100
AcDbPolyline
 90
       56
 70
   128
 43
0.0
 10
2.3477319628
 20
-8.3344692194
 10
2.3735211014
 20
-8.3446006638
 10
2.3937839901
 20
-8.3621004313
 10
2.407599596
 20
-8.3897316432
 10
2.4149679192
 20
-8.4247311783
 10
2.4149679192
 20
-8.4247311783
 10
2.4085206364
 20
-8.484598804
 10
2.3882577477
 20
-8.5288087431
 10
2.3707579802
 20
-8.5444664298
 10
2.3458898895
 20
-8.5555189146
 10
2.3118113948
 20
-8.5628872377
 10
2.270364577
 20
-8.5647293185
 10
2.270364577
 20
-8.5647293185
 10
0.1768397561
 20
-8.5647293185
 10
0.1768397561
 20
-8.5647293185
 10
0.1768397561
 20
-10.6868063917
 10
0.1768397561
 20
-10.6868063917
 10
1.2268258079
 20
-10.6868063917
 10
1.2268258079
 20
-10.6868063917
 10
1.2609043026
 20
-10.7043061592
 10
1.2857723933
 20
-10.7282532095
 10
1.3005090396
 20
-10.7604896234
 10
1.3051142416
 20
-10.7991733201
 10
1.3051142416
 20
-10.7991733201
 10
1.3005090396
 20
-10.8415411783
 10
1.2876144741
 20
-10.8783827941
 10
1.2756409489
 20
-10.8931194405
 10
1.257220141
 20
-10.906014006
 10
1.2305099695
 20
-10.91522441
 10
1.1973525152
 20
-10.9225927332
 10
1.1973525152
 20
-10.9225927332
 10
0.1768397561
 20
-10.9225927332
 10
0.1768397561
 20
-10.9225927332
 10
0.1768397561
 20
-13.0594064527
 10
0.1768397561
 20
-13.0594064527
 10
0.1630241502
 20
-13.1073005533
 10
0.1307877363
 20
-13.1496684115
 10
0.1307877363
 20
-13.1496684115
 10
0.1142090091
 20
-13.1588788155
 10
0.088419878
 20
-13.1625629771
 10
0.088419878
 20
-13.1625629771
 10
0.0506572218
 20
-13.1551946539
 10
0.0230260099
 20
-13.1330896844
 10
0.0128945655
 20
-13.1146688765
 10
0.0055262424
 20
-13.0898007858
 10
0.0018420808
 20
-13.0575643719
 10
0.0
 20
-13.0179596348
 10
0.0
 20
-13.0179596348
 10
0.0
 20
-8.4210470167
 10
0.0
 20
-8.4210470167
 10
0.0110524848
 20
-8.3906526836
 10
0.0276312119
 20
-8.3648635525
 10
0.0515782622
 20
-8.3446006638
 10
0.0810515549
 20
-8.3289429771
 10
0.0810515549
 20
-8.3289429771
 10
2.3477319703
 20
-8.3344692194
  0
LWPOLYLINE
  5
D2
330
1F
100
AcDbEntity
  8
0
  6
Continuous
 62
     7
100
AcDbPolyline
 90
       32
 70
   128
 43
0.0
 10
5.1292702556
 20
-9.8937906104
 10
5.7086083765
 20
-10.6978588765
 10
5.7086083765
 20
-10.6978588765
 10
5.7178187805
 20
-10.7568054618
 10
5.7178187805
 20
-10.7568054618
 10
5.7178187805
 20
-12.3059954085
 10
5.7178187805
 20
-12.3059954085
 10
5.6984769322
 20
-12.3584947111
 10
5.6984769322
 20
-12.3584947111
 10
5.1099321189
 20
-13.1561156943
 10
5.1099321189
 20
-13.1561156943
 10
5.0620380183
 20
-13.1625629771
 10
5.0620380183
 20
-13.1625629771
 10
3.918105846
 20
-13.1625629771
 10
3.918105846
 20
-13.1625629771
 10
3.8895535938
 20
-13.136773846
 10
3.8895535938
 20
-13.136773846
 10
3.3056139825
 20
-12.33270558
 10
3.3056139825
 20
-12.33270558
 10
3.3010087805
 20
-12.2673117118
 10
3.3010087805
 20
-12.2673117118
 10
3.3010087805
 20
-10.7116744824
 10
3.3010087805
 20
-10.7116744824
 10
3.3203506288
 20
-10.6656224626
 10
3.3203506288
 20
-10.6656224626
 10
3.9088954421
 20
-9.8744487621
 10
3.9088954421
 20
-9.8744487621
 10
3.9374476944
 20
-9.8615541966
 10
3.9374476944
 20
-9.8615541966
 10
5.096116513
 20
-9.8680014794
 10
5.096116513
 20
-9.8680014794
 10
5.1292739672
 20
-9.8937906104
  0
LWPOLYLINE
  5
D3
330
1F
100
AcDbEntity
  8
0
  6
Continuous
 62
     7
100
AcDbPolyline
 90
       16
 70
   128
 43
0.0
 10
5.5409781635
 20
-10.7908839565
 10
5.0362488872
 20
-10.097340538
 10
5.0362488872
 20
-10.097340538
 10
3.9825786738
 20
-10.097340538
 10
3.9825786738
 20
-10.097340538
 10
3.4778485366
 20
-10.7844366737
 10
3.4778485366
 20
-10.7844366737
 10
3.4778485366
 20
-12.2332332172
 10
3.4778485366
 20
-12.2332332172
 10
3.9825786738
 20
-12.9267766356
 10
3.9825786738
 20
-12.9267766356
 10
5.0362488872
 20
-12.9267766356
 10
5.0362488872
 20
-12.9267766356
 10
5.5409790244
 20
-12.225864894
 10
5.5409790244
 20
-12.225864894
 10
5.5409790244
 20
-10.7908839565
  0
LWPOLYLINE
  5
D4
330
1F
100
AcDbEntity
  8
0
  6
Continuous
 62
     7
100
AcDbPolyline
 90
       59
 70
   128
 43
0.0
 10
8.4219872952
 20
-9.8947116508
 10
9.0077750762
 20
-10.7144376036
 10
9.0077750762
 20
-10.7144376036
 10
9.0151433994
 20
-10.7494371387
 10
9.0169854802
 20
-10.7743052294
 10
9.0169854802
 20
-10.7743052294
 10
9.0160644398
 20
-10.8028574816
 10
9.0123802782
 20
-10.8212782896
 10
9.0123802782
 20
-10.8212782896
 10
8.9976436319
 20
-10.857198865
 10
8.9773807431
 20
-10.8848300769
 10
8.951591612
 20
-10.9032508848
 10
8.9202762386
 20
-10.9143033696
 10
8.9202762386
 20
-10.9143033696
 10
8.8760662995
 20
-10.901408804
 10
8.8383036433
 20
-10.8645671882
 10
8.8383036433
 20
-10.8645671882
 10
8.3160737386
 20
-10.097340538
 10
8.3160737386
 20
-10.097340538
 10
7.8371327325
 20
-10.097340538
 10
7.8371327325
 20
-10.097340538
 10
6.7788573171
 20
-11.5470581219
 10
6.7788573171
 20
-11.5470581219
 10
6.7788573171
 20
-13.0566433315
 10
6.7788573171
 20
-13.0566433315
 10
6.7650417111
 20
-13.1063795129
 10
6.7328052973
 20
-13.1496684115
 10
6.7328052973
 20
-13.1496684115
 10
6.7162265701
 20
-13.1588788155
 10
6.690437439
 20
-13.1625629771
 10
6.690437439
 20
-13.1625629771
 10
6.6526747828
 20
-13.1551946539
 10
6.6250435709
 20
-13.1330896844
 10
6.6149121265
 20
-13.1146688765
 10
6.6075438034
 20
-13.0898007858
 10
6.6038596418
 20
-13.0575643719
 10
6.602017561
 20
-13.0188806752
 10
6.602017561
 20
-13.0188806752
 10
6.602017561
 20
-9.9536582362
 10
6.602017561
 20
-9.9536582362
 10
6.6112279649
 20
-9.9177376608
 10
6.6278066921
 20
-9.8910274893
 10
6.6489906212
 20
-9.8716856409
 10
6.6775428735
 20
-9.8615541966
 10
6.6775428735
 20
-9.8615541966
 10
6.7171476105
 20
-9.8698435601
 10
6.7493840244
 20
-9.8956326912
 10
6.7622785899
 20
-9.9177376608
 10
6.7714889939
 20
-9.9518161554
 10
6.7770152363
 20
-9.9978681752
 10
6.7788573171
 20
-10.0558937202
 10
6.7788573171
 20
-10.0558937202
 10
6.7788573171
 20
-11.1961417309
 10
6.7788573171
 20
-11.1961417309
 10
7.7791071875
 20
-9.8615541966
 10
7.7791071875
 20
-9.8615541966
 10
8.3888359299
 20
-9.8680014794
 10
8.3888359299
 20
-9.8680014794
 10
8.4219933841
 20
-9.8947116508
  0
LWPOLYLINE
  5
D5
330
1F
100
AcDbEntity
  8
0
  6
Continuous
 62
     7
100
AcDbPolyline
 90
       63
 70
   128
 43
0.0
 10
14.4419074059
 20
-8.3344692194
 10
14.4677025457
 20
-8.3446006638
 10
14.4879654345
 20
-8.3621004313
 10
14.5017810404
 20
-8.3897316432
 10
14.5091493636
 20
-8.4247311783
 10
14.5091493636
 20
-8.4247311783
 10
14.5036231212
 20
-8.4809146425
 10
14.4879654345
 20
-8.5251245815
 10
14.4879654345
 20
-8.5251245815
 10
14.4658604649
 20
-8.542624349
 10
14.4363871723
 20
-8.5545978742
 10
14.398624516
 20
-8.5619661973
 10
14.3534935366
 20
-8.5647293185
 10
14.3534935366
 20
-8.5647293185
 10
13.9113941463
 20
-8.5647293185
 10
13.9113941463
 20
-8.5647293185
 10
13.9113941463
 20
-12.9267766356
 10
13.9113941463
 20
-12.9267766356
 10
14.4363871723
 20
-12.9267766356
 10
14.4363871723
 20
-12.9267766356
 10
14.4640183841
 20
-12.9415132819
 10
14.4861233537
 20
-12.9626972111
 10
14.50086
 20
-12.9903284229
 10
14.5091493636
 20
-13.0244069176
 10
14.5091493636
 20
-13.0244069176
 10
14.5036231212
 20
-13.0815114222
 10
14.4870443941
 20
-13.1257213612
 10
14.4732287881
 20
-13.141379048
 10
14.4548079802
 20
-13.1533525731
 10
14.4299398895
 20
-13.1597998559
 10
14.3995455564
 20
-13.1625629771
 10
14.3995455564
 20
-13.1625629771
 10
13.2712710709
 20
-13.1625629771
 10
13.2712710709
 20
-13.1625629771
 10
13.2454819398
 20
-13.1478263307
 10
13.2252190511
 20
-13.127563442
 10
13.2114034451
 20
-13.0999322301
 10
13.204035122
 20
-13.0667747758
 10
13.204035122
 20
-13.0667747758
 10
13.2104824047
 20
-13.0069071501
 10
13.2289032127
 20
-12.9636182515
 10
13.2454819398
 20
-12.9470395243
 10
13.2703500305
 20
-12.9359870396
 10
13.3025864444
 20
-12.9286187164
 10
13.3421911814
 20
-12.9267766356
 10
13.3421911814
 20
-12.9267766356
 10
13.7345543902
 20
-12.9267766356
 10
13.7345543902
 20
-12.9267766356
 10
13.7345543902
 20
-8.5647293185
 10
13.7345543902
 20
-8.5647293185
 10
13.2721921113
 20
-8.5647293185
 10
13.2721921113
 20
-8.5647293185
 10
13.2454819398
 20
-8.551834753
 10
13.2261400915
 20
-8.5315718643
 10
13.2114034451
 20
-8.503019612
 10
13.204035122
 20
-8.4670990365
 10
13.204035122
 20
-8.4670990365
 10
13.2104824047
 20
-8.4081524512
 10
13.2279821723
 20
-8.3694687545
 10
13.2546923438
 20
-8.3446006638
 10
13.2850866768
 20
-8.3289429771
 10
13.2850866768
 20
-8.3289429771
 10
14.4419134146
 20
-8.3344692194
  0
LWPOLYLINE
  5
D6
330
1F
100
AcDbEntity
  8
0
  6
Continuous
 62
     7
100
AcDbPolyline
 90
       61
 70
   128
 43
0.0
 10
17.2658115625
 20
-9.8937906104
 10
17.8506839215
 20
-10.6978588765
 10
17.8506839215
 20
-10.6978588765
 10
17.8608153659
 20
-10.7568054618
 10
17.8608153659
 20
-10.7568054618
 10
17.8608153659
 20
-13.0575643719
 10
17.8608153659
 20
-13.0575643719
 10
17.8506839215
 20
-13.1036163917
 10
17.8322631136
 20
-13.1358528056
 10
17.8064739825
 20
-13.1561156943
 10
17.7723954878
 20
-13.1625629771
 10
17.7723954878
 20
-13.1625629771
 10
17.7373959527
 20
-13.1542736135
 10
17.7088437005
 20
-13.1294055228
 10
17.6904228925
 20
-13.0842745434
 10
17.6839756098
 20
-13.0170385944
 10
17.6839756098
 20
-13.0170385944
 10
17.6839756098
 20
-10.7862787545
 10
17.6839756098
 20
-10.7862787545
 10
17.1792454726
 20
-10.097340538
 10
17.1792454726
 20
-10.097340538
 10
16.6938571837
 20
-10.097340538
 10
16.6938571837
 20
-10.097340538
 10
15.620845122
 20
-11.5470581219
 10
15.620845122
 20
-11.5470581219
 10
15.620845122
 20
-13.0566433315
 10
15.620845122
 20
-13.0566433315
 10
15.607029516
 20
-13.1063795129
 10
15.5747931021
 20
-13.1496684115
 10
15.5747931021
 20
-13.1496684115
 10
15.558214375
 20
-13.1588788155
 10
15.5324252439
 20
-13.1625629771
 10
15.5324252439
 20
-13.1625629771
 10
15.4946625877
 20
-13.1551946539
 10
15.4670313758
 20
-13.1330896844
 10
15.4568999314
 20
-13.1146688765
 10
15.4495316082
 20
-13.0898007858
 10
15.4458474466
 20
-13.0575643719
 10
15.4440053659
 20
-13.0188806752
 10
15.4440053659
 20
-13.0188806752
 10
15.4440053659
 20
-9.9536582362
 10
15.4440053659
 20
-9.9536582362
 10
15.4532157698
 20
-9.9177376608
 10
15.469794497
 20
-9.8910274893
 10
15.4909784261
 20
-9.8716856409
 10
15.5195306784
 20
-9.8615541966
 10
15.5195306784
 20
-9.8615541966
 10
15.5591354154
 20
-9.8698435601
 10
15.5913718293
 20
-9.8956326912
 10
15.6042663948
 20
-9.9177376608
 10
15.6134767988
 20
-9.9518161554
 10
15.6190030412
 20
-9.9978681752
 10
15.620845122
 20
-10.0558937202
 10
15.620845122
 20
-10.0558937202
 10
15.620845122
 20
-11.1961417309
 10
15.620845122
 20
-11.1961417309
 10
16.6220160328
 20
-9.8615541966
 10
16.6220160328
 20
-9.8615541966
 10
17.2317447752
 20
-9.8680014794
 10
17.2317447752
 20
-9.8680014794
 10
17.2658232698
 20
-9.8937906104
  0
LWPOLYLINE
  5
D7
330
1F
100
AcDbEntity
  8
0
  6
Continuous
 62
     7
100
AcDbPolyline
 90
       80
 70
   128
 43
0.0
 10
21.0512876511
 20
-9.867080439
 10
21.0807725915
 20
-9.8919485297
 10
21.102877561
 20
-9.9343163879
 10
21.102877561
 20
-9.9343163879
 10
21.1019565206
 20
-9.9757632057
 10
21.0991933994
 20
-10.00892066
 10
21.0955092378
 20
-10.0347097911
 10
21.089061955
 20
-10.0522095586
 10
21.089061955
 20
-10.0522095586
 10
21.0743253087
 20
-10.0715514069
 10
21.05406242
 20
-10.0862880533
 10
21.0273522485
 20
-10.0945774169
 10
20.9951158346
 20
-10.097340538
 10
20.9951158346
 20
-10.097340538
 10
19.4284261204
 20
-10.097340538
 10
19.4284261204
 20
-10.097340538
 10
18.9890898514
 20
-10.7752262697
 10
18.9890898514
 20
-10.7752262697
 10
19.4311892416
 20
-11.4531120015
 10
19.4311892416
 20
-11.4531120015
 10
20.4977540206
 20
-11.4531120015
 10
20.4977540206
 20
-11.4531120015
 10
20.5299904345
 20
-11.4779800922
 10
20.5299904345
 20
-11.4779800922
 10
21.093667157
 20
-12.2479698635
 10
21.093667157
 20
-12.2479698635
 10
21.1010354802
 20
-12.2820483582
 10
21.102877561
 20
-12.3106006104
 10
21.102877561
 20
-12.3106006104
 10
21.1010354802
 20
-12.3299424588
 10
21.093667157
 20
-12.3612578322
 10
21.093667157
 20
-12.3612578322
 10
21.0697201067
 20
-12.4045467309
 10
21.0697201067
 20
-12.4045467309
 10
20.5088065053
 20
-13.1561156943
 10
20.5088065053
 20
-13.1561156943
 10
20.4618334451
 20
-13.1625629771
 10
20.4618334451
 20
-13.1625629771
 10
18.8011976105
 20
-13.1625629771
 10
18.8011976105
 20
-13.1625629771
 10
18.7680401563
 20
-13.1358528056
 10
18.7450141463
 20
-13.0898007858
 10
18.7450141463
 20
-13.0898007858
 10
18.7569876715
 20
-13.078748301
 10
18.7615928735
 20
-13.0667747758
 10
18.7569876715
 20
-13.0557222911
 10
18.7450141463
 20
-13.0446698063
 10
18.7450141463
 20
-13.0446698063
 10
18.7523824695
 20
-12.9912494633
 10
18.7735663986
 20
-12.9553288879
 10
18.7910661662
 20
-12.9424343223
 10
18.8168552973
 20
-12.9341449588
 10
18.8490917111
 20
-12.9286187164
 10
18.8886964482
 20
-12.9267766356
 10
18.8886964482
 20
-12.9267766356
 10
20.4655176067
 20
-12.9267766356
 10
20.4655176067
 20
-12.9267766356
 10
20.9159063605
 20
-12.3041533277
 10
20.9159063605
 20
-12.3041533277
 10
20.4664386471
 20
-11.6888983429
 10
20.4664386471
 20
-11.6888983429
 10
19.3713216159
 20
-11.6888983429
 10
19.3713216159
 20
-11.6888983429
 10
19.3381641616
 20
-11.6621881714
 10
19.3381641616
 20
-11.6621881714
 10
18.7542245503
 20
-10.8350938955
 10
18.7542245503
 20
-10.8350938955
 10
18.7477772675
 20
-10.808383724
 10
18.7450141463
 20
-10.768778987
 10
18.7450141463
 20
-10.768778987
 10
18.7459351867
 20
-10.7402267347
 10
18.7496193483
 20
-10.7218059268
 10
18.7496193483
 20
-10.7218059268
 10
18.7781716006
 20
-10.6748328665
 10
18.7781716006
 20
-10.6748328665
 10
19.3400062424
 20
-9.8744487621
 10
19.3400062424
 20
-9.8744487621
 10
19.3685584947
 20
-9.8615541966
 10
19.3685584947
 20
-9.8615541966
 10
21.0512992988
 20
-9.867080439
  0
LWPOLYLINE
  5
D8
330
1F
100
AcDbEntity
  8
0
  6
Continuous
 62
     7
100
AcDbPolyline
 90
       83
 70
   128
 43
0.0
 10
23.3170539141
 20
-8.3667056333
 10
23.3281111585
 20
-8.391573724
 10
23.3364005221
 20
-8.4274942995
 10
23.3410057241
 20
-8.4753884001
 10
23.3428478049
 20
-8.5352560258
 10
23.3428478049
 20
-8.5352560258
 10
23.3428478049
 20
-9.9205007819
 10
23.3428478049
 20
-9.9205007819
 10
24.3937548971
 20
-9.9205007819
 10
24.3937548971
 20
-9.9205007819
 10
24.4195440282
 20
-9.9352374283
 10
24.4398069169
 20
-9.9564213574
 10
24.4536225229
 20
-9.9840525693
 10
24.460990846
 20
-10.018131064
 10
24.460990846
 20
-10.018131064
 10
24.4536225229
 20
-10.0678672454
 10
24.4315175534
 20
-10.1129982248
 10
24.4130967454
 20
-10.1323400731
 10
24.3873076143
 20
-10.1452346387
 10
24.3532291197
 20
-10.1535240022
 10
24.3108612614
 20
-10.1562871234
 10
24.3108612614
 20
-10.1562871234
 10
23.3428478049
 20
-10.1562871234
 10
23.3428478049
 20
-10.1562871234
 10
23.3428478049
 20
-12.2756010754
 10
23.3428478049
 20
-12.2756010754
 10
23.8006048819
 20
-12.9092768681
 10
23.8006048819
 20
-12.9092768681
 10
24.3117823018
 20
-12.2037599245
 10
24.3117823018
 20
-12.2037599245
 10
24.3338872713
 20
-12.1881022377
 10
24.3596764024
 20
-12.1834970358
 10
24.3596764024
 20
-12.1834970358
 10
24.3937548971
 20
-12.1927074397
 10
24.4269123514
 20
-12.221259692
 10
24.4527014825
 20
-12.2645485906
 10
24.460990846
 20
-12.3198110144
 10
24.460990846
 20
-12.3198110144
 10
24.4517804421
 20
-12.381520721
 10
24.4517804421
 20
-12.381520721
 10
23.8632356288
 20
-13.1505894519
 10
23.8632356288
 20
-13.1505894519
 10
23.8429727401
 20
-13.1597998559
 10
23.8107363262
 20
-13.1625629771
 10
23.8107363262
 20
-13.1625629771
 10
23.77297367
 20
-13.1625629771
 10
23.77297367
 20
-13.1625629771
 10
23.7398162157
 20
-13.1238792804
 10
23.7398162157
 20
-13.1238792804
 10
23.1706132508
 20
-12.3382318223
 10
23.1706132508
 20
-12.3382318223
 10
23.1660080488
 20
-12.2728379542
 10
23.1660080488
 20
-12.2728379542
 10
23.1660080488
 20
-10.1562871234
 10
23.1660080488
 20
-10.1562871234
 10
22.1279955221
 20
-10.1562871234
 10
22.1279955221
 20
-10.1562871234
 10
22.1077326334
 20
-10.1516819214
 10
22.0893118255
 20
-10.1387873559
 10
22.0736541387
 20
-10.1166823864
 10
22.0607595732
 20
-10.0862880533
 10
22.0607595732
 20
-10.0862880533
 10
22.0497070884
 20
-10.0457622758
 10
22.0460229268
 20
-10.00892066
 10
22.0460229268
 20
-10.00892066
 10
22.0524702096
 20
-9.955500317
 10
22.0727330983
 20
-9.9076062164
 10
22.0911539062
 20
-9.8873433277
 10
22.1206271989
 20
-9.8726066813
 10
22.160231936
 20
-9.8643173178
 10
22.2099681174
 20
-9.8615541966
 10
22.2099681174
 20
-9.8615541966
 10
23.1660080488
 20
-9.8615541966
 10
23.1660080488
 20
-9.8615541966
 10
23.1660080488
 20
-8.4219680571
 10
23.1660080488
 20
-8.4219680571
 10
23.1752184527
 20
-8.3860474816
 10
23.1899550991
 20
-8.3584162697
 10
23.2092969474
 20
-8.3399954618
 10
23.2350860785
 20
-8.3289429771
 10
23.2350860785
 20
-8.3289429771
 10
23.2839012195
 20
-8.338153381
 10
23.3170586738
 20
-8.3667056333
  0
LWPOLYLINE
  5
D9
330
1F
100
AcDbEntity
  8
0
  6
Continuous
 62
     7
100
AcDbPolyline
 90
       59
 70
   128
 43
0.0
 10
27.1670073271
 20
-9.8947116508
 10
27.7527892226
 20
-10.7144376036
 10
27.7527892226
 20
-10.7144376036
 10
27.7601575457
 20
-10.7494371387
 10
27.7619996265
 20
-10.7743052294
 10
27.7619996265
 20
-10.7743052294
 10
27.7610785861
 20
-10.8028574816
 10
27.7573944245
 20
-10.8212782896
 10
27.7573944245
 20
-10.8212782896
 10
27.7426577782
 20
-10.857198865
 10
27.7223948895
 20
-10.8848300769
 10
27.6966057584
 20
-10.9032508848
 10
27.6652903849
 20
-10.9143033696
 10
27.6652903849
 20
-10.9143033696
 10
27.6210804459
 20
-10.901408804
 10
27.5833177896
 20
-10.8645671882
 10
27.5833177896
 20
-10.8645671882
 10
27.0610878849
 20
-10.097340538
 10
27.0610878849
 20
-10.097340538
 10
26.5821468788
 20
-10.097340538
 10
26.5821468788
 20
-10.097340538
 10
25.5238714634
 20
-11.5470581219
 10
25.5238714634
 20
-11.5470581219
 10
25.5238714634
 20
-13.0566433315
 10
25.5238714634
 20
-13.0566433315
 10
25.5100558575
 20
-13.1063795129
 10
25.4778194436
 20
-13.1496684115
 10
25.4778194436
 20
-13.1496684115
 10
25.4612407165
 20
-13.1588788155
 10
25.4354515854
 20
-13.1625629771
 10
25.4354515854
 20
-13.1625629771
 10
25.3976889291
 20
-13.1551946539
 10
25.3700577172
 20
-13.1330896844
 10
25.3599262729
 20
-13.1146688765
 10
25.3525579497
 20
-13.0898007858
 10
25.3488737881
 20
-13.0575643719
 10
25.3470317073
 20
-13.0188806752
 10
25.3470317073
 20
-13.0188806752
 10
25.3470317073
 20
-9.9536582362
 10
25.3470317073
 20
-9.9536582362
 10
25.3562421113
 20
-9.9177376608
 10
25.3728208384
 20
-9.8910274893
 10
25.3940047675
 20
-9.8716856409
 10
25.4225570198
 20
-9.8615541966
 10
25.4225570198
 20
-9.8615541966
 10
25.4621617569
 20
-9.8698435601
 10
25.4943981707
 20
-9.8956326912
 10
25.5072927363
 20
-9.9177376608
 10
25.5165031402
 20
-9.9518161554
 10
25.5220293826
 20
-9.9978681752
 10
25.5238714634
 20
-10.0558937202
 10
25.5238714634
 20
-10.0558937202
 10
25.5238714634
 20
-11.1961417309
 10
25.5238714634
 20
-11.1961417309
 10
26.5241213338
 20
-9.8615541966
 10
26.5241213338
 20
-9.8615541966
 10
27.1338500762
 20
-9.8680014794
 10
27.1338500762
 20
-9.8680014794
 10
27.1670075305
 20
-9.8947116508
  0
LWPOLYLINE
  5
DA
330
1F
100
AcDbEntity
  8
0
  6
Continuous
 62
     7
100
AcDbPolyline
 90
       64
 70
   128
 43
0.0
 10
28.7963151932
 20
-9.8983958124
 10
28.8092225572
 20
-9.9223428627
 10
28.8175119207
 20
-9.9564213574
 10
28.8230381631
 20
-10.0033944176
 10
28.8248802439
 20
-10.0604989222
 10
28.8248802439
 20
-10.0604989222
 10
28.8248802439
 20
-12.2452067423
 10
28.8248802439
 20
-12.2452067423
 10
29.3296103811
 20
-12.9267766356
 10
29.3296103811
 20
-12.9267766356
 10
29.81499867
 20
-12.9267766356
 10
29.81499867
 20
-12.9267766356
 10
30.8880107317
 20
-11.470611769
 10
30.8880107317
 20
-11.470611769
 10
30.8880107317
 20
-9.9610265594
 10
30.8880107317
 20
-9.9610265594
 10
30.8972211357
 20
-9.9278691051
 10
30.9128788224
 20
-9.8993168528
 10
30.9331417111
 20
-9.8781329237
 10
30.9598518826
 20
-9.8615541966
 10
30.9598518826
 20
-9.8615541966
 10
30.9985355793
 20
-9.8698435601
 10
31.0399823971
 20
-9.8937906104
 10
31.0399823971
 20
-9.8937906104
 10
31.0510348819
 20
-9.9186587012
 10
31.058403205
 20
-9.9545792766
 10
31.063008407
 20
-10.0006312964
 10
31.0648504878
 20
-10.057735801
 10
31.0648504878
 20
-10.057735801
 10
31.0648504878
 20
-13.0575643719
 10
31.0648504878
 20
-13.0575643719
 10
31.0547190434
 20
-13.1036163917
 10
31.0362982355
 20
-13.1358528056
 10
31.0105091044
 20
-13.1561156943
 10
30.9764306098
 20
-13.1625629771
 10
30.9764306098
 20
-13.1625629771
 10
30.9414310747
 20
-13.1542736135
 10
30.9128788224
 20
-13.1312476036
 10
30.8944580145
 20
-13.0888797454
 10
30.8880107317
 20
-13.0234858772
 10
30.8880107317
 20
-13.0234858772
 10
30.8880107317
 20
-11.8952113917
 10
30.8880107317
 20
-11.8952113917
 10
29.9153920732
 20
-13.1561156943
 10
29.9153920732
 20
-13.1561156943
 10
29.8813135785
 20
-13.1625629771
 10
29.8813135785
 20
-13.1625629771
 10
29.2725058765
 20
-13.1625629771
 10
29.2725058765
 20
-13.1625629771
 10
29.2430325838
 20
-13.136773846
 10
29.2430325838
 20
-13.136773846
 10
28.6581719322
 20
-12.33270558
 10
28.6581719322
 20
-12.33270558
 10
28.6480404878
 20
-12.2673117118
 10
28.6480404878
 20
-12.2673117118
 10
28.6480404878
 20
-9.946289913
 10
28.6480404878
 20
-9.946289913
 10
28.6572508918
 20
-9.9186587012
 10
28.6719875381
 20
-9.8956326912
 10
28.6913293864
 20
-9.8762908429
 10
28.7171185175
 20
-9.8615541966
 10
28.7171185175
 20
-9.8615541966
 10
28.7631705373
 20
-9.8707646005
 10
28.7963279916
 20
-9.8983958124
  0
LWPOLYLINE
  5
DB
330
1F
100
AcDbEntity
  8
0
  6
Continuous
 62
     7
100
AcDbPolyline
 90
       54
 70
   128
 43
0.0
 10
34.3013703823
 20
-9.867080439
 10
34.337307016
 20
-9.8919485297
 10
34.3584909451
 20
-9.9343163879
 10
34.3584909451
 20
-9.9343163879
 10
34.3548067835
 20
-10.0033944176
 10
34.3437542988
 20
-10.0522095586
 10
34.3437542988
 20
-10.0522095586
 10
34.3253334909
 20
-10.0715514069
 10
34.3023074809
 20
-10.0862880533
 10
34.2746762691
 20
-10.0945774169
 10
34.2424398552
 20
-10.097340538
 10
34.2424398552
 20
-10.097340538
 10
32.6232508384
 20
-10.097340538
 10
32.6232508384
 20
-10.097340538
 10
32.1258890244
 20
-10.7899629161
 10
32.1258890244
 20
-10.7899629161
 10
32.1258890244
 20
-12.2341542576
 10
32.1258890244
 20
-12.2341542576
 10
32.6241718788
 20
-12.9267766356
 10
32.6241718788
 20
-12.9267766356
 10
34.2820445922
 20
-12.9267766356
 10
34.2820445922
 20
-12.9267766356
 10
34.3041495617
 20
-12.932302878
 10
34.3225703697
 20
-12.9451974435
 10
34.3382280564
 20
-12.9636182515
 10
34.3492805412
 20
-12.9884863422
 10
34.3492805412
 20
-12.9884863422
 10
34.3603330259
 20
-13.0170385944
 10
34.3640171875
 20
-13.0446698063
 10
34.3640171875
 20
-13.0446698063
 10
34.3584909451
 20
-13.0842745434
 10
34.341912218
 20
-13.1238792804
 10
34.328096612
 20
-13.1404580076
 10
34.3096758041
 20
-13.1524315327
 10
34.283886673
 20
-13.1597998559
 10
34.2534923399
 20
-13.1625629771
 10
34.2534923399
 20
-13.1625629771
 10
32.5624621723
 20
-13.1625629771
 10
32.5624621723
 20
-13.1625629771
 10
32.53390992
 20
-13.136773846
 10
32.53390992
 20
-13.136773846
 10
31.9490492683
 20
-12.33270558
 10
31.9490492683
 20
-12.33270558
 10
31.9490492683
 20
-12.2673117118
 10
31.9490492683
 20
-12.2673117118
 10
31.9536544703
 20
-10.7116744824
 10
31.9536544703
 20
-10.7116744824
 10
31.9729963186
 20
-10.6656224626
 10
31.9729963186
 20
-10.6656224626
 10
32.5560148895
 20
-9.8744487621
 10
32.5560148895
 20
-9.8744487621
 10
32.5845671418
 20
-9.8615541966
 10
32.5845671418
 20
-9.8615541966
 10
34.3013864405
 20
-9.867080439
  0
LWPOLYLINE
  5
DC
330
1F
100
AcDbEntity
  8
0
  6
Continuous
 62
     7
100
AcDbPolyline
 90
       83
 70
   128
 43
0.0
 10
36.5210771561
 20
-8.3667056333
 10
36.5321462805
 20
-8.391573724
 10
36.5404356441
 20
-8.4274942995
 10
36.545040846
 20
-8.4753884001
 10
36.5468829268
 20
-8.5352560258
 10
36.5468829268
 20
-8.5352560258
 10
36.5468829268
 20
-9.9205007819
 10
36.5468829268
 20
-9.9205007819
 10
37.5977900191
 20
-9.9205007819
 10
37.5977900191
 20
-9.9205007819
 10
37.6235791502
 20
-9.9352374283
 10
37.6438420389
 20
-9.9564213574
 10
37.6576576448
 20
-9.9840525693
 10
37.665025968
 20
-10.018131064
 10
37.665025968
 20
-10.018131064
 10
37.6576576448
 20
-10.0678672454
 10
37.6355526753
 20
-10.1129982248
 10
37.6171318674
 20
-10.1323400731
 10
37.5913427363
 20
-10.1452346387
 10
37.5572642416
 20
-10.1535240022
 10
37.5148963834
 20
-10.1562871234
 10
37.5148963834
 20
-10.1562871234
 10
36.5468829268
 20
-10.1562871234
 10
36.5468829268
 20
-10.1562871234
 10
36.5468829268
 20
-12.2756010754
 10
36.5468829268
 20
-12.2756010754
 10
37.0046400038
 20
-12.9092768681
 10
37.0046400038
 20
-12.9092768681
 10
37.5158174238
 20
-12.2037599245
 10
37.5158174238
 20
-12.2037599245
 10
37.5379223933
 20
-12.1881022377
 10
37.5637115244
 20
-12.1834970358
 10
37.5637115244
 20
-12.1834970358
 10
37.5977900191
 20
-12.1927074397
 10
37.6309474733
 20
-12.221259692
 10
37.6567366044
 20
-12.2645485906
 10
37.665025968
 20
-12.3198110144
 10
37.665025968
 20
-12.3198110144
 10
37.655815564
 20
-12.381520721
 10
37.655815564
 20
-12.381520721
 10
37.0672707508
 20
-13.1505894519
 10
37.0672707508
 20
-13.1505894519
 10
37.047007862
 20
-13.1597998559
 10
37.0147714482
 20
-13.1625629771
 10
37.0147714482
 20
-13.1625629771
 10
36.9770087919
 20
-13.1625629771
 10
36.9770087919
 20
-13.1625629771
 10
36.9438513377
 20
-13.1238792804
 10
36.9438513377
 20
-13.1238792804
 10
36.3746483727
 20
-12.3382318223
 10
36.3746483727
 20
-12.3382318223
 10
36.3700431707
 20
-12.2728379542
 10
36.3700431707
 20
-12.2728379542
 10
36.3700431707
 20
-10.1562871234
 10
36.3700431707
 20
-10.1562871234
 10
35.3320306441
 20
-10.1562871234
 10
35.3320306441
 20
-10.1562871234
 10
35.3117677553
 20
-10.1516819214
 10
35.2933469474
 20
-10.1387873559
 10
35.2776892607
 20
-10.1166823864
 10
35.2647946951
 20
-10.0862880533
 10
35.2647946951
 20
-10.0862880533
 10
35.2537422104
 20
-10.0457622758
 10
35.2500580488
 20
-10.00892066
 10
35.2500580488
 20
-10.00892066
 10
35.2565053316
 20
-9.955500317
 10
35.2767682203
 20
-9.9076062164
 10
35.2951890282
 20
-9.8873433277
 10
35.3246623209
 20
-9.8726066813
 10
35.3642670579
 20
-9.8643173178
 10
35.4140032393
 20
-9.8615541966
 10
35.4140032393
 20
-9.8615541966
 10
36.3700431707
 20
-9.8615541966
 10
36.3700431707
 20
-9.8615541966
 10
36.3700431707
 20
-8.4219680571
 10
36.3700431707
 20
-8.4219680571
 10
36.3792535747
 20
-8.3860474816
 10
36.393990221
 20
-8.3584162697
 10
36.4133320694
 20
-8.3399954618
 10
36.4391212005
 20
-8.3289429771
 10
36.4391212005
 20
-8.3289429771
 10
36.4879363415
 20
-8.338153381
 10
36.5210937957
 20
-8.3667056333
  0
LWPOLYLINE
  5
DD
330
1F
100
AcDbEntity
  8
0
  6
Continuous
 62
     7
100
AcDbPolyline
 90
       27
 70
   128
 43
0.0
 10
38.7021005154
 20
-8.3648635525
 10
38.713169939
 20
-8.3878895624
 10
38.7214593026
 20
-8.4228890975
 10
38.7260645046
 20
-8.4680200769
 10
38.7279065854
 20
-8.5251245815
 10
38.7279065854
 20
-8.5251245815
 10
38.7279065854
 20
-9.2518254542
 10
38.7279065854
 20
-9.2518254542
 10
38.7113278582
 20
-9.3061668376
 10
38.6855387271
 20
-9.3374822111
 10
38.659749596
 20
-9.3522188574
 10
38.6394867073
 20
-9.3568240594
 10
38.6394867073
 20
-9.3568240594
 10
38.6008030107
 20
-9.3494557362
 10
38.5731717988
 20
-9.3291928475
 10
38.5565930716
 20
-9.2941933124
 10
38.5510668293
 20
-9.2453781714
 10
38.5510668293
 20
-9.2453781714
 10
38.5510668293
 20
-8.4210470167
 10
38.5510668293
 20
-8.4210470167
 10
38.562119314
 20
-8.3851264412
 10
38.5777770008
 20
-8.3584162697
 10
38.5980398895
 20
-8.3390744214
 10
38.6229079802
 20
-8.3289429771
 10
38.6229079802
 20
-8.3289429771
 10
38.6698810404
 20
-8.338153381
 10
38.7021174543
 20
-8.3648635525
  0
LWPOLYLINE
  5
DE
330
1F
100
AcDbEntity
  8
0
  6
Continuous
 62
     7
100
AcDbPolyline
 90
       30
 70
   128
 43
0.0
 10
38.7002527714
 20
-9.897474772
 10
38.7122488986
 20
-9.9205007819
 10
38.7214593026
 20
-9.955500317
 10
38.7260645046
 20
-10.0006312964
 10
38.7279065854
 20
-10.057735801
 10
38.7279065854
 20
-10.057735801
 10
38.7279065854
 20
-13.0575643719
 10
38.7279065854
 20
-13.0575643719
 10
38.7140909794
 20
-13.1063795129
 10
38.6818545655
 20
-13.1496684115
 10
38.6818545655
 20
-13.1496684115
 10
38.6652758384
 20
-13.1588788155
 10
38.6394867073
 20
-13.1625629771
 10
38.6394867073
 20
-13.1625629771
 10
38.6017240511
 20
-13.1551946539
 10
38.5740928392
 20
-13.1330896844
 10
38.5639613948
 20
-13.1146688765
 10
38.5565930716
 20
-13.0898007858
 10
38.5529089101
 20
-13.0575643719
 10
38.5510668293
 20
-13.0188806752
 10
38.5510668293
 20
-13.0188806752
 10
38.5510668293
 20
-9.9591844786
 10
38.5510668293
 20
-9.9591844786
 10
38.5602772332
 20
-9.9260270243
 10
38.57593492
 20
-9.8983958124
 10
38.5961978087
 20
-9.8772118833
 10
38.6229079802
 20
-9.8615541966
 10
38.6229079802
 20
-9.8615541966
 10
38.6680389596
 20
-9.8707646005
 10
38.7002753735
 20
-9.897474772
  0
LWPOLYLINE
  5
DF
330
1F
100
AcDbEntity
  8
0
  6
Continuous
 62
     7
100
AcDbPolyline
 90
       32
 70
   128
 43
0.0
 10
41.4993166924
 20
-9.8937906104
 10
42.0786515473
 20
-10.6978588765
 10
42.0786515473
 20
-10.6978588765
 10
42.0878619512
 20
-10.7568054618
 10
42.0878619512
 20
-10.7568054618
 10
42.0878619512
 20
-12.3059954085
 10
42.0878619512
 20
-12.3059954085
 10
42.0685201029
 20
-12.3584947111
 10
42.0685201029
 20
-12.3584947111
 10
41.4799752896
 20
-13.1561156943
 10
41.4799752896
 20
-13.1561156943
 10
41.432081189
 20
-13.1625629771
 10
41.432081189
 20
-13.1625629771
 10
40.2881490168
 20
-13.1625629771
 10
40.2881490168
 20
-13.1625629771
 10
40.2595967645
 20
-13.136773846
 10
40.2595967645
 20
-13.136773846
 10
39.6756571532
 20
-12.33270558
 10
39.6756571532
 20
-12.33270558
 10
39.6710519512
 20
-12.2673117118
 10
39.6710519512
 20
-12.2673117118
 10
39.6710519512
 20
-10.7116744824
 10
39.6710519512
 20
-10.7116744824
 10
39.6903937995
 20
-10.6656224626
 10
39.6903937995
 20
-10.6656224626
 10
40.2789386128
 20
-9.8744487621
 10
40.2789386128
 20
-9.8744487621
 10
40.3074908651
 20
-9.8615541966
 10
40.3074908651
 20
-9.8615541966
 10
41.4661596837
 20
-9.8680014794
 10
41.4661596837
 20
-9.8680014794
 10
41.499317138
 20
-9.8937906104
  0
LWPOLYLINE
  5
E0
330
1F
100
AcDbEntity
  8
0
  6
Continuous
 62
     7
100
AcDbPolyline
 90
       16
 70
   128
 43
0.0
 10
41.9110059738
 20
-10.7908839565
 10
41.4062920579
 20
-10.097340538
 10
41.4062920579
 20
-10.097340538
 10
40.3526218445
 20
-10.097340538
 10
40.3526218445
 20
-10.097340538
 10
39.8478917073
 20
-10.7844366737
 10
39.8478917073
 20
-10.7844366737
 10
39.8478917073
 20
-12.2332332172
 10
39.8478917073
 20
-12.2332332172
 10
40.3526218445
 20
-12.9267766356
 10
40.3526218445
 20
-12.9267766356
 10
41.4062920579
 20
-12.9267766356
 10
41.4062920579
 20
-12.9267766356
 10
41.9110221951
 20
-12.225864894
 10
41.9110221951
 20
-12.225864894
 10
41.9110221951
 20
-10.7908839565
  0
LWPOLYLINE
  5
E1
330
1F
100
AcDbEntity
  8
0
  6
Continuous
 62
     7
100
AcDbPolyline
 90
       61
 70
   128
 43
0.0
 10
44.7938740253
 20
-9.8937906104
 10
45.3787392873
 20
-10.6978588765
 10
45.3787392873
 20
-10.6978588765
 10
45.3888707317
 20
-10.7568054618
 10
45.3888707317
 20
-10.7568054618
 10
45.3888707317
 20
-13.0575643719
 10
45.3888707317
 20
-13.0575643719
 10
45.3787392873
 20
-13.1036163917
 10
45.3603184794
 20
-13.1358528056
 10
45.3345293483
 20
-13.1561156943
 10
45.3004508537
 20
-13.1625629771
 10
45.3004508537
 20
-13.1625629771
 10
45.2654513186
 20
-13.1542736135
 10
45.2368990663
 20
-13.1294055228
 10
45.2184782584
 20
-13.0842745434
 10
45.2120309756
 20
-13.0170385944
 10
45.2120309756
 20
-13.0170385944
 10
45.2120309756
 20
-10.7862787545
 10
45.2120309756
 20
-10.7862787545
 10
44.7073008384
 20
-10.097340538
 10
44.7073008384
 20
-10.097340538
 10
44.2219125495
 20
-10.097340538
 10
44.2219125495
 20
-10.097340538
 10
43.1489004878
 20
-11.5470581219
 10
43.1489004878
 20
-11.5470581219
 10
43.1489004878
 20
-13.0566433315
 10
43.1489004878
 20
-13.0566433315
 10
43.1350848819
 20
-13.1063795129
 10
43.102848468
 20
-13.1496684115
 10
43.102848468
 20
-13.1496684115
 10
43.0862697409
 20
-13.1588788155
 10
43.0604806098
 20
-13.1625629771
 10
43.0604806098
 20
-13.1625629771
 10
43.0227179535
 20
-13.1551946539
 10
42.9950867416
 20
-13.1330896844
 10
42.9849552973
 20
-13.1146688765
 10
42.9775869741
 20
-13.0898007858
 10
42.9739028125
 20
-13.0575643719
 10
42.9720607317
 20
-13.0188806752
 10
42.9720607317
 20
-13.0188806752
 10
42.9720607317
 20
-9.9536582362
 10
42.9720607317
 20
-9.9536582362
 10
42.9812711357
 20
-9.9177376608
 10
42.9978498628
 20
-9.8910274893
 10
43.0190337919
 20
-9.8716856409
 10
43.0475860442
 20
-9.8615541966
 10
43.0475860442
 20
-9.8615541966
 10
43.0871907813
 20
-9.8698435601
 10
43.1194271951
 20
-9.8956326912
 10
43.1323217607
 20
-9.9177376608
 10
43.1415321646
 20
-9.9518161554
 10
43.147058407
 20
-9.9978681752
 10
43.1489004878
 20
-10.0558937202
 10
43.1489004878
 20
-10.0558937202
 10
43.1489004878
 20
-11.1961417309
 10
43.1489004878
 20
-11.1961417309
 10
44.1500713986
 20
-9.8615541966
 10
44.1500713986
 20
-9.8615541966
 10
44.759800141
 20
-9.8680014794
 10
44.759800141
 20
-9.8680014794
 10
44.7938786357
 20
-9.8937906104
  0
LWPOLYLINE
  5
E2
330
1F
100
AcDbEntity
  8
0
  6
Continuous
 62
     7
100
AcDbPolyline
 90
       50
 70
   128
 43
0.0
 10
47.5183129311
 20
-9.8873433277
 10
48.0912032546
 20
-10.6914115937
 10
48.0912032546
 20
-10.6914115937
 10
48.1004136585
 20
-10.7310163307
 10
48.1004136585
 20
-10.7310163307
 10
48.1004136585
 20
-12.2083651265
 10
48.1004136585
 20
-12.2083651265
 10
48.6733007851
 20
-12.9599340899
 10
48.6733007851
 20
-12.9599340899
 10
48.6843532698
 20
-13.0069071501
 10
48.6880374314
 20
-13.0317752408
 10
48.6880374314
 20
-13.0317752408
 10
48.687116391
 20
-13.0548012507
 10
48.6834322294
 20
-13.0713799778
 10
48.6834322294
 20
-13.0713799778
 10
48.6723797447
 20
-13.1036163917
 10
48.6585641387
 20
-13.1303265632
 10
48.6410643712
 20
-13.1496684115
 10
48.6208014825
 20
-13.1625629771
 10
48.6208014825
 20
-13.1625629771
 10
48.5885650686
 20
-13.1616419367
 10
48.5627759375
 20
-13.1597998559
 10
48.5434340892
 20
-13.1561156943
 10
48.5305395236
 20
-13.1505894519
 10
48.5305395236
 20
-13.1505894519
 10
48.0331777096
 20
-12.532571346
 10
48.0331777096
 20
-12.532571346
 10
47.5256844512
 20
-13.1570367347
 10
47.5256844512
 20
-13.1570367347
 10
47.492526997
 20
-13.1625629771
 10
47.492526997
 20
-13.1625629771
 10
46.8901665777
 20
-13.1625629771
 10
46.8901665777
 20
-13.1625629771
 10
46.8616143255
 20
-13.136773846
 10
46.8616143255
 20
-13.136773846
 10
46.2776747142
 20
-12.33270558
 10
46.2776747142
 20
-12.33270558
 10
46.2730695122
 20
-12.2673117118
 10
46.2730695122
 20
-12.2673117118
 10
46.2730695122
 20
-10.7116744824
 10
46.2730695122
 20
-10.7116744824
 10
46.2914903201
 20
-10.6656224626
 10
46.2914903201
 20
-10.6656224626
 10
46.869903689
 20
-9.8744487621
 10
46.869903689
 20
-9.8744487621
 10
46.8975349009
 20
-9.8615541966
 10
46.8975349009
 20
-9.8615541966
 10
47.4805534718
 20
-9.8680014794
 10
47.4805534718
 20
-9.8680014794
 10
47.518316128
 20
-9.8873433277
  0
LWPOLYLINE
  5
E3
330
1F
100
AcDbEntity
  8
0
  6
Continuous
 62
     7
100
AcDbPolyline
 90
       16
 70
   128
 43
0.0
 10
47.9235649109
 20
-10.7908839565
 10
47.4262120884
 20
-10.097340538
 10
47.4262120884
 20
-10.097340538
 10
46.9472710823
 20
-10.097340538
 10
46.9472710823
 20
-10.097340538
 10
46.4499092683
 20
-10.7844366737
 10
46.4499092683
 20
-10.7844366737
 10
46.4499092683
 20
-12.2332332172
 10
46.4499092683
 20
-12.2332332172
 10
46.9472710823
 20
-12.9267766356
 10
46.9472710823
 20
-12.9267766356
 10
47.4262120884
 20
-12.9267766356
 10
47.4262120884
 20
-12.9267766356
 10
47.9235739024
 20
-12.225864894
 10
47.9235739024
 20
-12.225864894
 10
47.9235739024
 20
-10.7908839565
  0
LWPOLYLINE
  5
E4
330
1F
100
AcDbEntity
  8
0
  6
Continuous
 62
     7
100
AcDbPolyline
 90
       33
 70
   128
 43
0.0
 10
49.7251152992
 20
-8.3648635525
 10
49.7361814024
 20
-8.3888106028
 10
49.744470766
 20
-8.4228890975
 10
49.749075968
 20
-8.4689411173
 10
49.7509180488
 20
-8.5260456219
 10
49.7509180488
 20
-8.5260456219
 10
49.7509180488
 20
-12.2102072072
 10
49.7509180488
 20
-12.2102072072
 10
50.3145947713
 20
-12.9590130495
 10
50.3145947713
 20
-12.9590130495
 10
50.3256472561
 20
-12.9921705037
 10
50.3293314177
 20
-13.0244069176
 10
50.3293314177
 20
-13.0244069176
 10
50.3228841349
 20
-13.074143099
 10
50.3026212462
 20
-13.1201951188
 10
50.2703848323
 20
-13.1515104923
 10
50.2243328125
 20
-13.1625629771
 10
50.2243328125
 20
-13.1625629771
 10
50.1810439139
 20
-13.1561156943
 10
50.1810439139
 20
-13.1561156943
 10
49.588814939
 20
-12.3419159839
 10
49.588814939
 20
-12.3419159839
 10
49.5740782927
 20
-12.2894166813
 10
49.5740782927
 20
-12.2894166813
 10
49.5740782927
 20
-8.4210470167
 10
49.5740782927
 20
-8.4210470167
 10
49.5851307774
 20
-8.3851264412
 10
49.6007884642
 20
-8.3584162697
 10
49.6210513529
 20
-8.3390744214
 10
49.6459194436
 20
-8.3289429771
 10
49.6459194436
 20
-8.3289429771
 10
49.6928925038
 20
-8.338153381
 10
49.7251289177
 20
-8.3648635525
  0
LWPOLYLINE
  5
E5
330
1F
100
AcDbEntity
  8
0
  6
Continuous
 62
     7
100
AcDbPolyline
 90
       51
 70
   128
 43
0.0
 10
54.6766221523
 20
-8.3657845929
 10
54.6876945732
 20
-8.3897316432
 10
54.6959839367
 20
-8.4238101379
 10
54.7005891387
 20
-8.4707831981
 10
54.7024312195
 20
-8.5278877027
 10
54.7024312195
 20
-8.5278877027
 10
54.7024312195
 20
-12.2442857019
 10
54.7024312195
 20
-12.2442857019
 10
55.2071613567
 20
-12.9267766356
 10
55.2071613567
 20
-12.9267766356
 10
56.2608315701
 20
-12.9267766356
 10
56.2608315701
 20
-12.9267766356
 10
56.7655617073
 20
-12.2378384191
 10
56.7655617073
 20
-12.2378384191
 10
56.7655617073
 20
-8.4219680571
 10
56.7655617073
 20
-8.4219680571
 10
56.7784562729
 20
-8.3860474816
 10
56.7941139596
 20
-8.3584162697
 10
56.8143768483
 20
-8.3399954618
 10
56.8374028582
 20
-8.3289429771
 10
56.8374028582
 20
-8.3289429771
 10
56.8797707165
 20
-8.338153381
 10
56.9129281707
 20
-8.3648635525
 10
56.9258227363
 20
-8.3888106028
 10
56.9350331402
 20
-8.4228890975
 10
56.9405593826
 20
-8.4689411173
 10
56.9424014634
 20
-8.5260456219
 10
56.9424014634
 20
-8.5260456219
 10
56.9230596151
 20
-12.3548105495
 10
56.9230596151
 20
-12.3548105495
 10
56.3345148018
 20
-13.1561156943
 10
56.3345148018
 20
-13.1561156943
 10
56.2866207012
 20
-13.1625629771
 10
56.2866207012
 20
-13.1625629771
 10
55.142688529
 20
-13.1625629771
 10
55.142688529
 20
-13.1625629771
 10
55.1141362767
 20
-13.1358528056
 10
55.1141362767
 20
-13.1358528056
 10
54.5348018674
 20
-12.328100378
 10
54.5348018674
 20
-12.328100378
 10
54.5255914634
 20
-12.2627065098
 10
54.5255914634
 20
-12.2627065098
 10
54.5255914634
 20
-8.4210470167
 10
54.5255914634
 20
-8.4210470167
 10
54.5366439482
 20
-8.3851264412
 10
54.5523016349
 20
-8.3584162697
 10
54.5725645236
 20
-8.3390744214
 10
54.5974326143
 20
-8.3289429771
 10
54.5974326143
 20
-8.3289429771
 10
54.6444056745
 20
-8.338153381
 10
54.6766420884
 20
-8.3657845929
  0
LWPOLYLINE
  5
E6
330
1F
100
AcDbEntity
  8
0
  6
Continuous
 62
     7
100
AcDbPolyline
 90
       80
 70
   128
 43
0.0
 10
60.1328611374
 20
-9.867080439
 10
60.162358689
 20
-9.8919485297
 10
60.1844636585
 20
-9.9343163879
 10
60.1844636585
 20
-9.9343163879
 10
60.1835426181
 20
-9.9757632057
 10
60.180779497
 20
-10.00892066
 10
60.1770953354
 20
-10.0347097911
 10
60.1706480526
 20
-10.0522095586
 10
60.1706480526
 20
-10.0522095586
 10
60.1559114063
 20
-10.0715514069
 10
60.1356485175
 20
-10.0862880533
 10
60.108938346
 20
-10.0945774169
 10
60.0767019322
 20
-10.097340538
 10
60.0767019322
 20
-10.097340538
 10
58.510012218
 20
-10.097340538
 10
58.510012218
 20
-10.097340538
 10
58.0706759489
 20
-10.7752262697
 10
58.0706759489
 20
-10.7752262697
 10
58.5127753392
 20
-11.4531120015
 10
58.5127753392
 20
-11.4531120015
 10
59.5793401181
 20
-11.4531120015
 10
59.5793401181
 20
-11.4531120015
 10
59.611576532
 20
-11.4779800922
 10
59.611576532
 20
-11.4779800922
 10
60.1752532546
 20
-12.2479698635
 10
60.1752532546
 20
-12.2479698635
 10
60.1826215777
 20
-12.2820483582
 10
60.1844636585
 20
-12.3106006104
 10
60.1844636585
 20
-12.3106006104
 10
60.1826215777
 20
-12.3299424588
 10
60.1752532546
 20
-12.3612578322
 10
60.1752532546
 20
-12.3612578322
 10
60.1513062043
 20
-12.4045467309
 10
60.1513062043
 20
-12.4045467309
 10
59.5903926029
 20
-13.1561156943
 10
59.5903926029
 20
-13.1561156943
 10
59.5434195427
 20
-13.1625629771
 10
59.5434195427
 20
-13.1625629771
 10
57.8827837081
 20
-13.1625629771
 10
57.8827837081
 20
-13.1625629771
 10
57.8496262538
 20
-13.1358528056
 10
57.8266002439
 20
-13.0898007858
 10
57.8266002439
 20
-13.0898007858
 10
57.8385737691
 20
-13.078748301
 10
57.843178971
 20
-13.0667747758
 10
57.8385737691
 20
-13.0557222911
 10
57.8266002439
 20
-13.0446698063
 10
57.8266002439
 20
-13.0446698063
 10
57.8339685671
 20
-12.9912494633
 10
57.8551524962
 20
-12.9553288879
 10
57.8726522637
 20
-12.9424343223
 10
57.8984413948
 20
-12.9341449588
 10
57.9306778087
 20
-12.9286187164
 10
57.9702825457
 20
-12.9267766356
 10
57.9702825457
 20
-12.9267766356
 10
59.5471037043
 20
-12.9267766356
 10
59.5471037043
 20
-12.9267766356
 10
59.9974924581
 20
-12.3041533277
 10
59.9974924581
 20
-12.3041533277
 10
59.5480247447
 20
-11.6888983429
 10
59.5480247447
 20
-11.6888983429
 10
58.4529077134
 20
-11.6888983429
 10
58.4529077134
 20
-11.6888983429
 10
58.4197502591
 20
-11.6621881714
 10
58.4197502591
 20
-11.6621881714
 10
57.8358106479
 20
-10.8350938955
 10
57.8358106479
 20
-10.8350938955
 10
57.8293633651
 20
-10.808383724
 10
57.8266002439
 20
-10.768778987
 10
57.8266002439
 20
-10.768778987
 10
57.8275212843
 20
-10.7402267347
 10
57.8312054459
 20
-10.7218059268
 10
57.8312054459
 20
-10.7218059268
 10
57.8597576982
 20
-10.6748328665
 10
57.8597576982
 20
-10.6748328665
 10
58.4215923399
 20
-9.8744487621
 10
58.4215923399
 20
-9.8744487621
 10
58.4501445922
 20
-9.8615541966
 10
58.4501445922
 20
-9.8615541966
 10
60.1328853963
 20
-9.867080439
  0
LWPOLYLINE
  5
E7
330
1F
100
AcDbEntity
  8
0
  6
Continuous
 62
     7
100
AcDbPolyline
 90
       52
 70
   128
 43
0.0
 10
62.9540085793
 20
-9.8947116508
 10
63.5333665396
 20
-10.715358644
 10
63.5333665396
 20
-10.715358644
 10
63.5407348628
 20
-10.7365425731
 10
63.5425769436
 20
-10.7752262697
 10
63.5425769436
 20
-10.7752262697
 10
63.5416559032
 20
-10.808383724
 10
63.5379717416
 20
-10.8286466127
 10
63.5379717416
 20
-10.8286466127
 10
63.5140246913
 20
-10.8756196729
 10
63.5140246913
 20
-10.8756196729
 10
62.9236377973
 20
-11.6760037774
 10
62.9236377973
 20
-11.6760037774
 10
62.8757436966
 20
-11.6888983429
 10
62.8757436966
 20
-11.6888983429
 10
61.3044487805
 20
-11.6888983429
 10
61.3044487805
 20
-11.6888983429
 10
61.3044487805
 20
-12.2525750655
 10
61.3044487805
 20
-12.2525750655
 10
61.8036526753
 20
-12.9267766356
 10
61.8036526753
 20
-12.9267766356
 10
62.9098221913
 20
-12.9267766356
 10
62.9098221913
 20
-12.9267766356
 10
62.9531110899
 20
-12.9525657667
 10
62.9752160595
 20
-12.985723221
 10
62.9844264634
 20
-13.0188806752
 10
62.9871895846
 20
-13.0446698063
 10
62.9871895846
 20
-13.0446698063
 10
62.9825843826
 20
-13.0962480685
 10
62.9678477363
 20
-13.1330896844
 10
62.943900686
 20
-13.1551946539
 10
62.9107432317
 20
-13.1625629771
 10
62.9107432317
 20
-13.1625629771
 10
61.7447060899
 20
-13.1625629771
 10
61.7447060899
 20
-13.1625629771
 10
61.7152327973
 20
-13.136773846
 10
61.7152327973
 20
-13.136773846
 10
61.1322142264
 20
-12.33270558
 10
61.1322142264
 20
-12.33270558
 10
61.1276090244
 20
-12.2673117118
 10
61.1276090244
 20
-12.2673117118
 10
61.1276090244
 20
-10.7116744824
 10
61.1276090244
 20
-10.7116744824
 10
61.1469508727
 20
-10.6656224626
 10
61.1469508727
 20
-10.6656224626
 10
61.7345746456
 20
-9.8744487621
 10
61.7345746456
 20
-9.8744487621
 10
61.7640479383
 20
-9.8615541966
 10
61.7640479383
 20
-9.8615541966
 10
62.9208746761
 20
-9.8680014794
 10
62.9208746761
 20
-9.8680014794
 10
62.9540321303
 20
-9.8947116508
  0
LWPOLYLINE
  5
E8
330
1F
100
AcDbEntity
  8
0
  6
Continuous
 62
     7
100
AcDbPolyline
 90
       12
 70
   128
 43
0.0
 10
63.2984638214
 20
-10.7715421082
 10
62.8435072828
 20
-10.097340538
 10
62.8435072828
 20
-10.097340538
 10
61.8027316349
 20
-10.097340538
 10
61.8027316349
 20
-10.097340538
 10
61.3044487805
 20
-10.8286466127
 10
61.3044487805
 20
-10.8286466127
 10
61.3044487805
 20
-11.4531120015
 10
61.3044487805
 20
-11.4531120015
 10
62.8389020808
 20
-11.4531120015
 10
62.8389020808
 20
-11.4531120015
 10
63.2985012386
 20
-10.7715421082
  0
LWPOLYLINE
  5
E9
330
1F
100
AcDbEntity
  8
0
  6
Continuous
 62
     7
100
AcDbPolyline
 90
       30
 70
   128
 43
0.0
 10
70.083796978
 20
-8.3353902598
 10
70.1059108079
 20
-8.3455217042
 10
70.1234105755
 20
-8.3611793909
 10
70.1372261814
 20
-8.3851264412
 10
70.1464365854
 20
-8.4145997339
 10
70.1464365854
 20
-8.4145997339
 10
70.1464365854
 20
-8.5260456219
 10
70.1464365854
 20
-8.5260456219
 10
70.1464365854
 20
-13.0575643719
 10
70.1464365854
 20
-13.0575643719
 10
70.1289368178
 20
-13.1146688765
 10
70.0939372828
 20
-13.1561156943
 10
70.0939372828
 20
-13.1561156943
 10
70.0598587881
 20
-13.1625629771
 10
70.0598587881
 20
-13.1625629771
 10
67.7922573323
 20
-13.1625629771
 10
67.7922573323
 20
-13.1625629771
 10
67.7526525953
 20
-13.127563442
 10
67.7296265854
 20
-13.0769062202
 10
67.7296265854
 20
-13.0769062202
 10
67.7296265854
 20
-12.9461184839
 10
67.7296265854
 20
-12.9461184839
 10
67.7296265854
 20
-8.4210470167
 10
67.7296265854
 20
-8.4210470167
 10
67.7406790701
 20
-8.3906526836
 10
67.7572577973
 20
-8.3648635525
 10
67.7812048476
 20
-8.3446006638
 10
67.8115991806
 20
-8.3289429771
 10
67.8115991806
 20
-8.3289429771
 10
70.0838058384
 20
-8.3353902598
  0
LWPOLYLINE
  5
EA
330
1F
100
AcDbEntity
  8
0
  6
Continuous
 62
     7
100
AcDbPolyline
 90
        8
 70
   128
 43
0.0
 10
69.9695944786
 20
-12.9267766356
 10
69.9695968293
 20
-8.5647293185
 10
69.9695968293
 20
-8.5647293185
 10
67.9064663415
 20
-8.5647293185
 10
67.9064663415
 20
-8.5647293185
 10
67.9064663415
 20
-12.9267766356
 10
67.9064663415
 20
-12.9267766356
 10
69.9695968293
 20
-12.9267766356
  0
LWPOLYLINE
  5
EB
330
1F
100
AcDbEntity
  8
0
  6
Continuous
 62
     7
100
AcDbPolyline
 90
       61
 70
   128
 43
0.0
 10
72.8524327278
 20
-9.8937906104
 10
73.4373139215
 20
-10.6978588765
 10
73.4373139215
 20
-10.6978588765
 10
73.4474453659
 20
-10.7568054618
 10
73.4474453659
 20
-10.7568054618
 10
73.4474453659
 20
-13.0575643719
 10
73.4474453659
 20
-13.0575643719
 10
73.4373139215
 20
-13.1036163917
 10
73.4188931136
 20
-13.1358528056
 10
73.3931039825
 20
-13.1561156943
 10
73.3590254878
 20
-13.1625629771
 10
73.3590254878
 20
-13.1625629771
 10
73.3240259527
 20
-13.1542736135
 10
73.2954737005
 20
-13.1294055228
 10
73.2770528925
 20
-13.0842745434
 10
73.2706056098
 20
-13.0170385944
 10
73.2706056098
 20
-13.0170385944
 10
73.2706056098
 20
-10.7862787545
 10
73.2706056098
 20
-10.7862787545
 10
72.7658754726
 20
-10.097340538
 10
72.7658754726
 20
-10.097340538
 10
72.2804871837
 20
-10.097340538
 10
72.2804871837
 20
-10.097340538
 10
71.207475122
 20
-11.5470581219
 10
71.207475122
 20
-11.5470581219
 10
71.207475122
 20
-13.0566433315
 10
71.207475122
 20
-13.0566433315
 10
71.193659516
 20
-13.1063795129
 10
71.1614231021
 20
-13.1496684115
 10
71.1614231021
 20
-13.1496684115
 10
71.144844375
 20
-13.1588788155
 10
71.1190552439
 20
-13.1625629771
 10
71.1190552439
 20
-13.1625629771
 10
71.0812925877
 20
-13.1551946539
 10
71.0536613758
 20
-13.1330896844
 10
71.0435299314
 20
-13.1146688765
 10
71.0361616082
 20
-13.0898007858
 10
71.0324774466
 20
-13.0575643719
 10
71.0306353659
 20
-13.0188806752
 10
71.0306353659
 20
-13.0188806752
 10
71.0306353659
 20
-9.9536582362
 10
71.0306353659
 20
-9.9536582362
 10
71.0398457698
 20
-9.9177376608
 10
71.056424497
 20
-9.8910274893
 10
71.0776084261
 20
-9.8716856409
 10
71.1061606784
 20
-9.8615541966
 10
71.1061606784
 20
-9.8615541966
 10
71.1457654154
 20
-9.8698435601
 10
71.1780018293
 20
-9.8956326912
 10
71.1908963948
 20
-9.9177376608
 10
71.2001067988
 20
-9.9518161554
 10
71.2056330412
 20
-9.9978681752
 10
71.207475122
 20
-10.0558937202
 10
71.207475122
 20
-10.0558937202
 10
71.207475122
 20
-11.1961417309
 10
71.207475122
 20
-11.1961417309
 10
72.2086460328
 20
-9.8615541966
 10
72.2086460328
 20
-9.8615541966
 10
72.8183747752
 20
-9.8680014794
 10
72.8183747752
 20
-9.8680014794
 10
72.8524532698
 20
-9.8937906104
  0
LWPOLYLINE
  5
EC
330
1F
100
AcDbEntity
  8
0
  6
Continuous
 62
     7
100
AcDbPolyline
 90
       33
 70
   128
 43
0.0
 10
74.4826793671
 20
-8.3648635525
 10
74.4937472561
 20
-8.3888106028
 10
74.5020366197
 20
-8.4228890975
 10
74.5066418216
 20
-8.4689411173
 10
74.5084839024
 20
-8.5260456219
 10
74.5084839024
 20
-8.5260456219
 10
74.5084839024
 20
-12.2102072072
 10
74.5084839024
 20
-12.2102072072
 10
75.072160625
 20
-12.9590130495
 10
75.072160625
 20
-12.9590130495
 10
75.0832131098
 20
-12.9921705037
 10
75.0868972713
 20
-13.0244069176
 10
75.0868972713
 20
-13.0244069176
 10
75.0804499886
 20
-13.074143099
 10
75.0601870998
 20
-13.1201951188
 10
75.027950686
 20
-13.1515104923
 10
74.9818986662
 20
-13.1625629771
 10
74.9818986662
 20
-13.1625629771
 10
74.9386097675
 20
-13.1561156943
 10
74.9386097675
 20
-13.1561156943
 10
74.3463807927
 20
-12.3419159839
 10
74.3463807927
 20
-12.3419159839
 10
74.3316441463
 20
-12.2894166813
 10
74.3316441463
 20
-12.2894166813
 10
74.3316441463
 20
-8.4210470167
 10
74.3316441463
 20
-8.4210470167
 10
74.3426966311
 20
-8.3851264412
 10
74.3583543178
 20
-8.3584162697
 10
74.3786172066
 20
-8.3390744214
 10
74.4034852973
 20
-8.3289429771
 10
74.4034852973
 20
-8.3289429771
 10
74.4504583575
 20
-8.338153381
 10
74.4826947713
 20
-8.3648635525
  0
LWPOLYLINE
  5
ED
330
1F
100
AcDbEntity
  8
0
  6
Continuous
 62
     7
100
AcDbPolyline
 90
       61
 70
   128
 43
0.0
 10
76.1460661888
 20
-9.8947116508
 10
76.173724939
 20
-9.955500317
 10
76.173724939
 20
-9.955500317
 10
77.1656854459
 20
-12.7876995358
 10
77.1656854459
 20
-12.7876995358
 10
78.1668563567
 20
-9.9214218223
 10
78.1668563567
 20
-9.9214218223
 10
78.1963296494
 20
-9.8836591661
 10
78.2368554268
 20
-9.8615541966
 10
78.2368554268
 20
-9.8615541966
 10
78.2736970427
 20
-9.867080439
 10
78.3031703354
 20
-9.8855012469
 10
78.3252753049
 20
-9.9149745396
 10
78.3400119512
 20
-9.9564213574
 10
78.3400119512
 20
-9.9564213574
 10
78.355669638
 20
-9.9610265594
 10
78.3611958803
 20
-9.9665528018
 10
78.355669638
 20
-9.9748421653
 10
78.3400119512
 20
-9.9840525693
 10
78.3400119512
 20
-9.9840525693
 10
78.3400119512
 20
-9.9960260944
 10
78.3400119512
 20
-10.004315458
 10
78.3400119512
 20
-10.004315458
 10
78.3381698704
 20
-10.0245783467
 10
78.3335646684
 20
-10.0503674778
 10
78.3243542645
 20
-10.0816828513
 10
78.3123807393
 20
-10.1194455076
 10
78.3123807393
 20
-10.1194455076
 10
76.6968758841
 20
-14.8241198521
 10
76.6968758841
 20
-14.8241198521
 10
76.6674025915
 20
-14.8526721044
 10
76.626876814
 20
-14.8720139527
 10
76.626876814
 20
-14.8720139527
 10
76.0429372027
 20
-14.8130673673
 10
76.0429372027
 20
-14.8130673673
 10
76.0079376677
 20
-14.7854361554
 10
75.9867537386
 20
-14.7458314184
 10
75.9867537386
 20
-14.7458314184
 10
75.983069577
 20
-14.7264895701
 10
75.9821485366
 20
-14.700700439
 10
75.9821485366
 20
-14.700700439
 10
75.9895168598
 20
-14.6463590556
 10
76.0125428697
 20
-14.6085963993
 10
76.0309636776
 20
-14.5947807934
 10
76.0567528087
 20
-14.584649349
 10
76.0880681822
 20
-14.5791231066
 10
76.1258308384
 20
-14.5772810258
 10
76.1258308384
 20
-14.5772810258
 10
76.5752985518
 20
-14.5772810258
 10
76.5752985518
 20
-14.5772810258
 10
77.0772655678
 20
-13.1505894519
 10
77.0772655678
 20
-13.1505894519
 10
75.9821485366
 20
-10.0383939527
 10
75.9821485366
 20
-10.0383939527
 10
75.9895168598
 20
-9.964710721
 10
76.0097797485
 20
-9.9094482972
 10
76.0429372027
 20
-9.8735277217
 10
76.085305061
 20
-9.8615541966
 10
76.085305061
 20
-9.8615541966
 10
76.1147783537
 20
-9.8698435601
 10
76.1460937271
 20
-9.8947116508
  0
LWPOLYLINE
  5
EE
330
1F
100
AcDbEntity
  8
0
  6
Continuous
 62
     7
100
AcDbPolyline
 90
       30
 70
   128
 43
0.0
 10
79.4341564178
 20
-12.1954705609
 10
79.4452604268
 20
-12.2184965708
 10
79.4535497904
 20
-12.2516540251
 10
79.4581549924
 20
-12.2967850045
 10
79.4599970732
 20
-12.3520474283
 10
79.4599970732
 20
-12.3520474283
 10
79.4599970732
 20
-13.0603274931
 10
79.4599970732
 20
-13.0603274931
 10
79.4461814672
 20
-13.1082215937
 10
79.4139450534
 20
-13.1496684115
 10
79.4139450534
 20
-13.1496684115
 10
79.3973663262
 20
-13.1588788155
 10
79.3715771951
 20
-13.1625629771
 10
79.3715771951
 20
-13.1625629771
 10
79.3338145389
 20
-13.1551946539
 10
79.306183327
 20
-13.1340107248
 10
79.2960518826
 20
-13.1165109572
 10
79.2886835595
 20
-13.0916428665
 10
79.2849993979
 20
-13.0603274931
 10
79.2831573171
 20
-13.0225648368
 10
79.2831573171
 20
-13.0225648368
 10
79.2831573171
 20
-12.2498119443
 10
79.2831573171
 20
-12.2498119443
 10
79.2942098018
 20
-12.2111282476
 10
79.310788529
 20
-12.1825759954
 10
79.3319724581
 20
-12.1659972682
 10
79.3586826296
 20
-12.1604710258
 10
79.3586826296
 20
-12.1604710258
 10
79.4028925686
 20
-12.1687603894
 10
79.4342079421
 20
-12.1954705609
  0
MTEXT
  5
F0
330
1F
100
AcDbEntity
  8
0
  6
Continuous
 62
     7
100
AcDbMText
 10
0.0
 20
-15.8915803444
 30
0.0
 40
4.83362
 41
0.0
 71
     1
 72
     1
  1
SOLIDWORKS Educational Product.
  7
SLDTEXTSTYLE0
 73
     1
 44
1.0
  0
MTEXT
  5
F1
330
1F
100
AcDbEntity
  8
0
  6
Continuous
 62
     7
100
AcDbMText
 10
0.0
 20
-23.1420103444
 30
0.0
 40
4.83362
 41
0.0
 71
     1
 72
     1
  1
For Instructional Use Only.
  7
SLDTEXTSTYLE0
 73
     1
 44
1.0
  0
ENDSEC
  0
SECTION
  2
OBJECTS
  0
DICTIONARY
  5
C
330
0
100
AcDbDictionary
281
     1
  3
ACAD_GROUP
350
D
  3
ACAD_LAYOUT
350
1A
  3
ACAD_MLINESTYLE
350
17
  3
ACAD_PLOTSETTINGS
350
19
  3
ACAD_PLOTSTYLENAME
350
E
  3
ACAD_SCALELIST
350
47
  0
DICTIONARY
  5
D
102
{ACAD_REACTORS
330
C
102
}
330
C
100
AcDbDictionary
281
     1
  0
DICTIONARY
  5
1A
102
{ACAD_REACTORS
330
C
102
}
330
C
100
AcDbDictionary
281
     1
  3
Layout1
350
1E
  3
Layout2
350
26
  3
Model
350
22
  0
DICTIONARY
  5
17
102
{ACAD_REACTORS
330
C
102
}
330
C
100
AcDbDictionary
281
     1
  3
Standard
350
18
  0
DICTIONARY
  5
19
102
{ACAD_REACTORS
330
C
102
}
330
C
100
AcDbDictionary
281
     1
  0
ACDBDICTIONARYWDFLT
  5
E
102
{ACAD_REACTORS
330
C
102
}
330
C
100
AcDbDictionary
281
     1
  3
Normal
350
F
100
AcDbDictionaryWithDefault
340
F
  0
DICTIONARY
  5
47
102
{ACAD_REACTORS
330
C
102
}
330
C
100
AcDbDictionary
281
     1
  3
A0
350
48
  3
A1
350
49
  3
A2
350
4A
  3
A3
350
4B
  3
A4
350
4C
  3
A5
350
4D
  3
A6
350
4E
  3
A7
350
4F
  3
A8
350
50
  3
A9
350
51
  3
B0
350
52
  3
B1
350
53
  3
B2
350
54
  3
B3
350
55
  3
B4
350
56
  3
B5
350
57
  3
B6
350
58
  3
B7
350
59
  3
B8
350
5A
  3
B9
350
5B
  3
C0
350
5C
  3
C1
350
5D
  3
C2
350
5E
  3
C3
350
5F
  3
C4
350
60
  3
C5
350
61
  3
C6
350
62
  3
C7
350
63
  3
C8
350
64
  3
C9
350
65
  3
D0
350
66
  3
D1
350
67
  3
D2
350
68
  0
LAYOUT
  5
1E
102
{ACAD_REACTORS
330
1A
102
}
330
1A
100
AcDbPlotSettings
  1

  2
none_device
  4

  6

 40
0.0
 41
0.0
 42
0.0
 43
0.0
 44
0.0
 45
0.0
 46
0.0
 47
0.0
 48
0.0
 49
0.0
140
0.0
141
0.0
142
1.0
143
1.0
 70
   688
 72
     1
 73
     0
 74
     5
  7

 75
    16
147
1.0
148
0.0
149
0.0
100
AcDbLayout
  1
Layout1
 70
     1
 71
     1
 10
0.0
 20
0.0
 11
420.0
 21
297.0
 12
0.0
 22
0.0
 32
0.0
 14
1.0000000000E+20
 24
1.0000000000E+20
 34
1.0000000000E+20
 15
-1.0000000000E+20
 25
-1.0000000000E+20
 35
-1.0000000000E+20
146
0.0
 13
0.0
 23
0.0
 33
0.0
 16
1.0
 26
0.0
 36
0.0
 17
0.0
 27
1.0
 37
0.0
 76
     0
330
1B
  0
LAYOUT
  5
26
102
{ACAD_REACTORS
330
1A
102
}
330
1A
100
AcDbPlotSettings
  1

  2
none_device
  4

  6

 40
0.0
 41
0.0
 42
0.0
 43
0.0
 44
0.0
 45
0.0
 46
0.0
 47
0.0
 48
0.0
 49
0.0
140
0.0
141
0.0
142
1.0
143
1.0
 70
   688
 72
     1
 73
     0
 74
     5
  7

 75
    16
147
1.0
148
0.0
149
0.0
100
AcDbLayout
  1
Layout2
 70
     1
 71
     2
 10
0.0
 20
0.0
 11
0.0
 21
0.0
 12
0.0
 22
0.0
 32
0.0
 14
0.0
 24
0.0
 34
0.0
 15
0.0
 25
0.0
 35
0.0
146
0.0
 13
0.0
 23
0.0
 33
0.0
 16
1.0
 26
0.0
 36
0.0
 17
0.0
 27
1.0
 37
0.0
 76
     0
330
23
  0
LAYOUT
  5
22
102
{ACAD_REACTORS
330
1A
102
}
330
1A
100
AcDbPlotSettings
  1

  2
none_device
  4
ANSI_A_(11.00_x_8.50_Inches)
  6

 40
6.35
 41
19.05
 42
6.35000508
 43
19.05000254
 44
279.4
 45
215.9
 46
23.9290004325
 47
-3.1767685927
 48
0.0
 49
0.0
140
0.0
141
0.0
142
0.0391628479
143
1.0
 70
  1696
 72
     0
 73
     0
 74
     0
  7

 75
     0
147
0.0179189148
148
-1300.4909072572
149
0.0
100
AcDbLayout
  1
Model
 70
     1
 71
     0
 10
0.0
 20
0.0
 11
420.0
 21
297.0
 12
0.0
 22
0.0
 32
0.0
 14
0.0
 24
-14.8720139527
 34
0.0
 15
220.0
 25
200.0
 35
0.0
146
0.0
 13
0.0
 23
0.0
 33
0.0
 16
1.0
 26
0.0
 36
0.0
 17
0.0
 27
1.0
 37
0.0
 76
     0
330
1F
331
29
  0
MLINESTYLE
  5
18
102
{ACAD_REACTORS
330
17
102
}
330
17
100
AcDbMlineStyle
  2
Standard
 70
     0
  3

 62
   256
 51
90.0
 52
90.0
 71
     2
 49
0.5
 62
   256
  6
BYLAYER
 49
-0.5
 62
   256
  6
BYLAYER
  0
ACDBPLACEHOLDER
  5
F
102
{ACAD_REACTORS
330
E
102
}
330
E
  0
SCALE
  5
48
102
{ACAD_REACTORS
330
47
102
}
330
47
100
AcDbScale
 70
     0
300
1:1
140
1.0
141
1.0
290
     1
  0
SCALE
  5
49
102
{ACAD_REACTORS
330
47
102
}
330
47
100
AcDbScale
 70
     0
300
1:2
140
1.0
141
2.0
290
     0
  0
SCALE
  5
4A
102
{ACAD_REACTORS
330
47
102
}
330
47
100
AcDbScale
 70
     0
300
1:4
140
1.0
141
4.0
290
     0
  0
SCALE
  5
4B
102
{ACAD_REACTORS
330
47
102
}
330
47
100
AcDbScale
 70
     0
300
1:5
140
1.0
141
5.0
290
     0
  0
SCALE
  5
4C
102
{ACAD_REACTORS
330
47
102
}
330
47
100
AcDbScale
 70
     0
300
1:8
140
1.0
141
8.0
290
     0
  0
SCALE
  5
4D
102
{ACAD_REACTORS
330
47
102
}
330
47
100
AcDbScale
 70
     0
300
1:10
140
1.0
141
10.0
290
     0
  0
SCALE
  5
4E
102
{ACAD_REACTORS
330
47
102
}
330
47
100
AcDbScale
 70
     0
300
1:16
140
1.0
141
16.0
290
     0
  0
SCALE
  5
4F
102
{ACAD_REACTORS
330
47
102
}
330
47
100
AcDbScale
 70
     0
300
1:20
140
1.0
141
20.0
290
     0
  0
SCALE
  5
50
102
{ACAD_REACTORS
330
47
102
}
330
47
100
AcDbScale
 70
     0
300
1:30
140
1.0
141
30.0
290
     0
  0
SCALE
  5
51
102
{ACAD_REACTORS
330
47
102
}
330
47
100
AcDbScale
 70
     0
300
1:40
140
1.0
141
40.0
290
     0
  0
SCALE
  5
52
102
{ACAD_REACTORS
330
47
102
}
330
47
100
AcDbScale
 70
     0
300
1:50
140
1.0
141
50.0
290
     0
  0
SCALE
  5
53
102
{ACAD_REACTORS
330
47
102
}
330
47
100
AcDbScale
 70
     0
300
1:100
140
1.0
141
100.0
290
     0
  0
SCALE
  5
54
102
{ACAD_REACTORS
330
47
102
}
330
47
100
AcDbScale
 70
     0
300
2:1
140
2.0
141
1.0
290
     0
  0
SCALE
  5
55
102
{ACAD_REACTORS
330
47
102
}
330
47
100
AcDbScale
 70
     0
300
4:1
140
4.0
141
1.0
290
     0
  0
SCALE
  5
56
102
{ACAD_REACTORS
330
47
102
}
330
47
100
AcDbScale
 70
     0
300
8:1
140
8.0
141
1.0
290
     0
  0
SCALE
  5
57
102
{ACAD_REACTORS
330
47
102
}
330
47
100
AcDbScale
 70
     0
300
10:1
140
10.0
141
1.0
290
     0
  0
SCALE
  5
58
102
{ACAD_REACTORS
330
47
102
}
330
47
100
AcDbScale
 70
     0
300
100:1
140
100.0
141
1.0
290
     0
  0
SCALE
  5
59
102
{ACAD_REACTORS
330
47
102
}
330
47
100
AcDbScale
 70
     0
300
1/128" = 1'-0"
140
0.0078125
141
12.0
290
     0
  0
SCALE
  5
5A
102
{ACAD_REACTORS
330
47
102
}
330
47
100
AcDbScale
 70
     0
300
1/64" = 1'-0"
140
0.015625
141
12.0
290
     0
  0
SCALE
  5
5B
102
{ACAD_REACTORS
330
47
102
}
330
47
100
AcDbScale
 70
     0
300
1/32" = 1'-0"
140
0.03125
141
12.0
290
     0
  0
SCALE
  5
5C
102
{ACAD_REACTORS
330
47
102
}
330
47
100
AcDbScale
 70
     0
300
1/16" = 1'-0"
140
0.0625
141
12.0
290
     0
  0
SCALE
  5
5D
102
{ACAD_REACTORS
330
47
102
}
330
47
100
AcDbScale
 70
     0
300
3/32" = 1'-0"
140
0.09375
141
12.0
290
     0
  0
SCALE
  5
5E
102
{ACAD_REACTORS
330
47
102
}
330
47
100
AcDbScale
 70
     0
300
1/8" = 1'-0"
140
0.125
141
12.0
290
     0
  0
SCALE
  5
5F
102
{ACAD_REACTORS
330
47
102
}
330
47
100
AcDbScale
 70
     0
300
3/16" = 1'-0"
140
0.1875
141
12.0
290
     0
  0
SCALE
  5
60
102
{ACAD_REACTORS
330
47
102
}
330
47
100
AcDbScale
 70
     0
300
1/4" = 1'-0"
140
0.25
141
12.0
290
     0
  0
SCALE
  5
61
102
{ACAD_REACTORS
330
47
102
}
330
47
100
AcDbScale
 70
     0
300
3/8" = 1'-0"
140
0.375
141
12.0
290
     0
  0
SCALE
  5
62
102
{ACAD_REACTORS
330
47
102
}
330
47
100
AcDbScale
 70
     0
300
1/2" = 1'-0"
140
0.5
141
12.0
290
     0
  0
SCALE
  5
63
102
{ACAD_REACTORS
330
47
102
}
330
47
100
AcDbScale
 70
     0
300
3/4" = 1'-0"
140
0.75
141
12.0
290
     0
  0
SCALE
  5
64
102
{ACAD_REACTORS
330
47
102
}
330
47
100
AcDbScale
 70
     0
300
1" = 1'-0"
140
1.0
141
12.0
290
     0
  0
SCALE
  5
65
102
{ACAD_REACTORS
330
47
102
}
330
47
100
AcDbScale
 70
     0
300
1-1/2" = 1'-0"
140
1.5
141
12.0
290
     0
  0
SCALE
  5
66
102
{ACAD_REACTORS
330
47
102
}
330
47
100
AcDbScale
 70
     0
300
3" = 1'-0"
140
3.0
141
12.0
290
     0
  0
SCALE
  5
67
102
{ACAD_REACTORS
330
47
102
}
330
47
100
AcDbScale
 70
     0
300
6" = 1'-0"
140
6.0
141
12.0
290
     0
  0
SCALE
  5
68
102
{ACAD_REACTORS
330
47
102
}
330
47
100
AcDbScale
 70
     0
300
1'-0" = 1'-0"
140
12.0
141
12.0
290
     0
  0
ENDSEC
  0
EOF
